<svg width="83" height="51" viewBox="0 0 83 51" fill="none" xmlns="http://www.w3.org/2000/svg">
<path d="M33.0569 3.01464L56.2664 43.1247C58.1381 46.3533 55.7672 50.4513 52.0238 50.4513H5.48012C1.73666 50.4513 -0.634192 46.3533 1.23754 43.1247L24.5718 3.01464C26.4435 -0.214028 31.1852 -0.214028 33.0569 3.01464Z" fill="#FC7D1C"/>
<path d="M59.0116 3.01464L82.3458 43.1247C84.2175 46.3533 81.8467 50.4513 78.1032 50.4513H31.5595C27.8161 50.4513 25.4452 46.3533 27.317 43.1247L50.5264 3.01464C52.3981 -0.214028 57.1398 -0.214028 59.0116 3.01464Z" fill="#F63636"/>
<path d="M56.3911 43.373L41.7917 18.2888L27.1922 43.373C25.3204 46.6017 27.6913 50.5755 31.31 50.5755H52.2733C56.0168 50.5755 58.2629 46.6017 56.3911 43.373Z" fill="url(#paint0_linear_27_8615)"/>
<defs>
<linearGradient id="paint0_linear_27_8615" x1="26.5362" y1="34.4321" x2="57.1078" y2="34.4321" gradientUnits="userSpaceOnUse">
<stop stop-color="#F63636"/>
<stop offset="1" stop-color="#FC7D1C"/>
</linearGradient>
</defs>
</svg>
