<svg width="100" height="61" viewBox="0 0 100 61" fill="none" xmlns="http://www.w3.org/2000/svg">
<path d="M39.25 3.0814L67.15 51.907C69.4 55.8372 66.55 60.8256 62.05 60.8256H6.10001C1.60001 60.8256 -1.25 55.8372 1.00001 51.907L29.05 3.0814C31.3 -0.84883 37 -0.84883 39.25 3.0814Z" fill="#3DA153"/>
<path d="M70.45 3.0814L98.5 51.907C100.75 55.8372 97.9 60.8256 93.4 60.8256H37.45C32.95 60.8256 30.1 55.8372 32.35 51.907L60.25 3.0814C62.5 -0.84883 68.2 -0.84883 70.45 3.0814Z" fill="#FFDC5E"/>
<path d="M67.3 52.2093L49.75 21.6744L32.2 52.2093C29.95 56.1396 32.8 60.9768 37.15 60.9768H62.35C66.85 60.9768 69.55 56.1396 67.3 52.2093Z" fill="url(#paint0_linear_28_8796)"/>
<defs>
<linearGradient id="paint0_linear_28_8796" x1="31.375" y1="41.2976" x2="68.125" y2="41.2976" gradientUnits="userSpaceOnUse">
<stop stop-color="#FFDC5E"/>
<stop offset="1" stop-color="#3DA153"/>
</linearGradient>
</defs>
</svg>
