<svg width="1000" height="700" viewBox="0 0 1000 700" fill="none" xmlns="http://www.w3.org/2000/svg">
<path d="M1000 623.102C1000 662.27 958.481 685.524 899.552 699.051H334.829C192.916 670.914 16.2758 600.691 16.2758 482.618C16.2758 324.075 201.575 245.794 393.758 245.794C611.936 245.794 603.662 0.948486 833.867 0.948486C1000 0.948486 871.89 217.694 871.89 358.195C871.89 498.678 1000 502.68 1000 623.102Z" fill="#F2F9F3"/>
<path d="M492.812 506.279H291.214C290.708 506.279 290.298 505.868 290.298 505.361C290.298 504.855 290.708 504.443 291.214 504.443H492.812C493.317 504.443 493.727 504.855 493.727 505.361C493.727 505.868 493.317 506.279 492.812 506.279Z" fill="#B9EFC3"/>
<path d="M482.855 590.732H317.87C317.365 590.732 316.955 590.321 316.955 589.815C316.955 589.308 317.365 588.897 317.87 588.897H482.855C483.36 588.897 483.77 589.308 483.77 589.815C483.77 590.321 483.36 590.732 482.855 590.732Z" fill="#B9EFC3"/>
<path d="M420.501 550.357H321.052C320.546 550.357 320.136 549.945 320.136 549.439C320.136 548.932 320.546 548.521 321.052 548.521H420.501C421.006 548.521 421.416 548.932 421.416 549.439C421.416 549.945 421.006 550.357 420.501 550.357Z" fill="#B9EFC3"/>
<path d="M353.224 550.357C352.718 550.357 352.308 549.945 352.308 549.439V505.363C352.308 504.857 352.718 504.445 353.224 504.445C353.729 504.445 354.139 504.857 354.139 505.363V549.439C354.139 549.945 353.729 550.357 353.224 550.357Z" fill="#B9EFC3"/>
<path d="M400.363 577.559C399.858 577.559 399.448 577.148 399.448 576.642V549.439C399.448 548.932 399.858 548.521 400.363 548.521C400.869 548.521 401.279 548.932 401.279 549.439V576.642C401.279 577.148 400.869 577.559 400.363 577.559Z" fill="#B9EFC3"/>
<path d="M270.628 349.234H76.1384C75.6332 349.234 75.2231 348.823 75.2231 348.317V96.785C75.2231 96.2784 75.6332 95.8673 76.1384 95.8673H270.628C271.133 95.8673 271.543 96.2784 271.543 96.785V348.317C271.543 348.823 271.133 349.234 270.628 349.234ZM77.0538 347.399H269.713V97.7027H77.0538V347.399Z" fill="#B9EFC3"/>
<path d="M173.383 349.234C172.878 349.234 172.468 348.823 172.468 348.317V96.785C172.468 96.2784 172.878 95.8673 173.383 95.8673C173.888 95.8673 174.299 96.2784 174.299 96.785V348.317C174.299 348.823 173.888 349.234 173.383 349.234Z" fill="#B9EFC3"/>
<path d="M270.628 228.322H76.1384C75.6332 228.322 75.2231 227.911 75.2231 227.405C75.2231 226.898 75.6332 226.487 76.1384 226.487H270.628C271.133 226.487 271.543 226.898 271.543 227.405C271.543 227.911 271.133 228.322 270.628 228.322Z" fill="#B9EFC3"/>
<path d="M270.628 329.43H76.1366V348.317H270.628V329.43Z" fill="#B9EFC3"/>
<path d="M96.4478 165.848C96.2135 165.848 95.9792 165.758 95.7998 165.58C95.4428 165.222 95.4428 164.641 95.7998 164.283L128.461 131.537C128.818 131.179 129.398 131.179 129.755 131.537C130.112 131.895 130.112 132.477 129.755 132.835L97.0959 165.58C96.9165 165.76 96.6821 165.848 96.4478 165.848Z" fill="#B9EFC3"/>
<path d="M94.1229 194.887C93.8886 194.887 93.6542 194.797 93.4748 194.619C93.1178 194.261 93.1178 193.679 93.4748 193.321L153.586 133.053C153.943 132.695 154.524 132.695 154.881 133.053C155.238 133.411 155.238 133.993 154.881 134.351L94.7691 194.619C94.5915 194.797 94.3572 194.887 94.1229 194.887Z" fill="#B9EFC3"/>
<path d="M79.5618 587.786C87.0913 557.911 115.201 528.197 115.487 527.9L114.099 526.569C113.813 526.87 85.3558 556.942 77.7018 587.32L79.5618 587.786Z" fill="#2A7F3A"/>
<path d="M77.6725 603.006L79.5929 602.901C75.1224 520.329 43.0602 513.083 41.7019 512.817L41.3266 514.705C41.6415 514.768 73.2954 522.152 77.6725 603.006Z" fill="#2A7F3A"/>
<path d="M77.6744 610.404L79.5874 610.254C73.2753 527.986 97.3778 454.803 97.6213 454.07L95.7979 453.461C95.5563 454.193 71.3293 527.75 77.6744 610.404Z" fill="#2A7F3A"/>
<path d="M83.9847 679.952C60.6565 679.952 41.744 660.992 41.744 637.602V602.951H126.225V637.602C126.225 660.992 107.315 679.952 83.9847 679.952Z" fill="#D5F7D8"/>
<path d="M126.225 587.553H41.7458V602.952H126.225V587.553Z" fill="#C2EFC3"/>
<path d="M107.009 536.565C145.035 529.622 151.747 517.915 157.823 480.39C116.878 487.062 113.052 509.575 107.009 536.565Z" fill="#3DA153"/>
<path d="M87.7302 487.453C118.158 463.556 118.661 450.064 106.612 414.018C73.4748 439.035 80.5449 460.746 87.7302 487.453Z" fill="#3DA153"/>
<path d="M64.1494 535.578C57.6213 490.896 44.2959 482.589 0.953186 473.977C7.04929 522.052 33.0447 527.43 64.1494 535.578Z" fill="#3DA153"/>
<path d="M411.712 683.41C411.523 683.41 411.333 683.395 411.142 683.366C409.145 683.054 407.777 681.176 408.09 679.172L444.704 444.238C445.015 442.235 446.888 440.864 448.887 441.178C450.884 441.49 452.252 443.368 451.938 445.372L415.325 680.306C415.041 682.116 413.484 683.41 411.712 683.41Z" fill="#352B0F"/>
<path d="M587.446 683.41C585.674 683.41 584.116 682.116 583.832 680.304L547.219 445.37C546.908 443.368 548.273 441.49 550.271 441.176C552.262 440.861 554.141 442.233 554.454 444.236L591.067 679.17C591.378 681.172 590.012 683.05 588.015 683.364C587.825 683.395 587.634 683.41 587.446 683.41Z" fill="#352B0F"/>
<path d="M631.387 444.805H367.772C359.684 444.805 353.127 438.231 353.127 430.122V107.087C353.127 98.9784 359.684 92.4039 367.772 92.4039H631.387C639.475 92.4039 646.033 98.9784 646.033 107.087V430.122C646.033 438.231 639.475 444.805 631.387 444.805Z" fill="#FFEDCA"/>
<path d="M367.863 255.386V285.76H386.17L393.95 279.336V255.386H367.863Z" fill="#3DA153"/>
<path d="M380.103 268.847C378.73 268.847 377.355 268.322 376.31 267.274C374.932 265.892 372.689 265.892 371.312 267.274C370.956 267.632 370.375 267.632 370.018 267.274C369.661 266.916 369.661 266.334 370.018 265.976C372.111 263.878 375.514 263.878 377.606 265.976C378.985 267.358 381.227 267.358 382.604 265.976L382.743 265.837C384.836 263.739 388.239 263.739 390.331 265.837L390.941 266.448C391.298 266.808 391.298 267.388 390.941 267.747C390.584 268.103 390.004 268.105 389.645 267.747L389.035 267.136C387.66 265.756 385.416 265.754 384.037 267.136L383.898 267.276C382.851 268.324 381.478 268.847 380.103 268.847Z" fill="white"/>
<path d="M393.951 279.336H388.642C387.726 279.336 386.952 280.014 386.827 280.924L386.17 285.76L393.951 279.336Z" fill="#133319"/>
<path d="M566.856 550.041H432.303C430.952 550.041 429.857 548.943 429.857 547.589C429.857 546.234 430.952 545.137 432.303 545.137H566.856C568.207 545.137 569.302 546.234 569.302 547.589C569.302 548.943 568.206 550.041 566.856 550.041Z" fill="#352B0F"/>
<path d="M590.858 123.634H396.162V238.872H590.858V123.634Z" fill="#F8FBFF"/>
<path d="M590.858 284.218H396.162V399.457H590.858V284.218Z" fill="#F8FBFF"/>
<path d="M453.727 204.084H413.249C412.744 204.084 412.334 203.673 412.334 203.166V148.715C412.334 148.208 412.744 147.797 413.249 147.797H453.727C454.232 147.797 454.642 148.208 454.642 148.715V203.166C454.642 203.673 454.232 204.084 453.727 204.084ZM414.165 202.248H452.812V149.632H414.165V202.248Z" fill="#3DA153"/>
<path d="M413.247 204.084C413.057 204.084 412.867 204.025 412.702 203.902C412.297 203.599 412.213 203.025 412.515 202.617L452.993 148.166C453.295 147.76 453.87 147.676 454.274 147.979C454.679 148.281 454.763 148.858 454.461 149.263L413.983 203.715C413.802 203.957 413.527 204.084 413.247 204.084Z" fill="#3DA153"/>
<path d="M453.727 204.084C453.447 204.084 453.172 203.957 452.993 203.715L412.515 149.264C412.213 148.858 412.297 148.282 412.702 147.979C413.106 147.674 413.681 147.759 413.983 148.166L454.461 202.617C454.763 203.025 454.679 203.599 454.274 203.902C454.11 204.025 453.917 204.084 453.727 204.084Z" fill="#3DA153"/>
<path d="M578.009 137.398H413.249C412.744 137.398 412.334 136.986 412.334 136.48C412.334 135.973 412.744 135.562 413.249 135.562H578.009C578.514 135.562 578.924 135.973 578.924 136.48C578.924 136.986 578.514 137.398 578.009 137.398Z" fill="#3DA153"/>
<path d="M515.155 155.752H476.711C476.206 155.752 475.796 155.341 475.796 154.834C475.796 154.328 476.206 153.916 476.711 153.916H515.155C515.66 153.916 516.07 154.328 516.07 154.834C516.07 155.341 515.662 155.752 515.155 155.752Z" fill="#3DA153"/>
<path d="M551.768 176.859H476.711C476.206 176.859 475.796 176.448 475.796 175.942C475.796 175.435 476.206 175.024 476.711 175.024H551.768C552.273 175.024 552.683 175.435 552.683 175.942C552.683 176.448 552.275 176.859 551.768 176.859Z" fill="#3DA153"/>
<path d="M552.38 197.353H476.713C476.208 197.353 475.797 196.942 475.797 196.436C475.797 195.929 476.208 195.518 476.713 195.518H552.38C552.885 195.518 553.295 195.929 553.295 196.436C553.295 196.942 552.885 197.353 552.38 197.353Z" fill="#3DA153"/>
<path d="M488.306 385.791C487.801 385.791 487.391 385.379 487.391 384.873V292.015C487.391 291.509 487.801 291.098 488.306 291.098C488.812 291.098 489.222 291.509 489.222 292.015V384.873C489.222 385.379 488.812 385.791 488.306 385.791Z" fill="#3DA153"/>
<path d="M417.086 254.424C416.848 254.424 416.61 254.332 416.431 254.147C416.078 253.784 416.085 253.204 416.447 252.849C423.076 246.365 431.256 234.354 432.576 213.96C432.608 213.456 433.041 213.078 433.548 213.103C434.053 213.136 434.434 213.573 434.403 214.078C433.046 235.051 424.585 247.453 417.727 254.162C417.548 254.336 417.317 254.424 417.086 254.424Z" fill="#00236E"/>
<path d="M416.836 246.774L403.585 262.516L422.913 255.525L416.836 246.774Z" fill="#00236E"/>
<path d="M472.178 301.268H417.52C417.015 301.268 416.605 300.857 416.605 300.35C416.605 299.844 417.015 299.432 417.52 299.432H472.178C472.684 299.432 473.094 299.844 473.094 300.35C473.094 300.857 472.685 301.268 472.178 301.268Z" fill="#EFC745"/>
<path d="M472.178 346.023H417.52C417.015 346.023 416.605 345.611 416.605 345.105V315.646C416.605 315.14 417.015 314.729 417.52 314.729H472.178C472.684 314.729 473.094 315.14 473.094 315.646V345.105C473.094 345.613 472.685 346.023 472.178 346.023ZM418.436 344.187H471.263V316.564H418.436V344.187Z" fill="#EFC745"/>
<path d="M472.178 346.023C472.032 346.023 471.883 345.988 471.746 345.913L417.088 316.454C416.643 316.214 416.477 315.658 416.715 315.212C416.954 314.764 417.511 314.597 417.954 314.837L472.612 344.296C473.057 344.536 473.224 345.092 472.986 345.538C472.821 345.848 472.504 346.023 472.178 346.023Z" fill="#EFC745"/>
<path d="M417.52 346.023C417.194 346.023 416.878 345.848 416.713 345.54C416.473 345.094 416.64 344.538 417.086 344.297L471.744 314.839C472.189 314.598 472.744 314.765 472.984 315.213C473.224 315.659 473.057 316.215 472.61 316.456L417.952 345.914C417.817 345.988 417.668 346.023 417.52 346.023Z" fill="#EFC745"/>
<path d="M452.286 361.503H417.52C417.015 361.503 416.605 361.092 416.605 360.585C416.605 360.078 417.015 359.667 417.52 359.667H452.286C452.791 359.667 453.202 360.078 453.202 360.585C453.202 361.092 452.793 361.503 452.286 361.503Z" fill="#EFC745"/>
<path d="M472.178 374.778H417.52C417.015 374.778 416.605 374.367 416.605 373.86C416.605 373.354 417.015 372.943 417.52 372.943H472.178C472.684 372.943 473.094 373.354 473.094 373.86C473.094 374.367 472.685 374.778 472.178 374.778Z" fill="#EFC745"/>
<path d="M569.145 327.742H517.048C516.543 327.742 516.132 327.331 516.132 326.824V300.35C516.132 299.844 516.543 299.432 517.048 299.432H569.145C569.65 299.432 570.06 299.844 570.06 300.35V326.824C570.06 327.331 569.65 327.742 569.145 327.742ZM517.961 325.907H568.228V301.268H517.961V325.907Z" fill="#3DA153"/>
<path d="M569.143 327.742C569.004 327.742 568.863 327.711 568.729 327.643L516.632 301.168C516.182 300.939 516.001 300.387 516.229 299.935C516.456 299.484 517.009 299.3 517.46 299.531L569.557 326.005C570.007 326.235 570.188 326.786 569.959 327.239C569.8 327.558 569.478 327.742 569.143 327.742Z" fill="#3DA153"/>
<path d="M517.048 327.742C516.713 327.742 516.392 327.558 516.231 327.239C516.002 326.786 516.184 326.235 516.634 326.005L568.731 299.531C569.179 299.3 569.732 299.484 569.961 299.935C570.19 300.387 570.009 300.939 569.558 301.168L517.461 327.643C517.328 327.711 517.187 327.742 517.048 327.742Z" fill="#3DA153"/>
<path d="M538.344 350.936H517.046C516.541 350.936 516.131 350.525 516.131 350.018V341.838C516.131 341.331 516.541 340.92 517.046 340.92H538.344C538.849 340.92 539.259 341.331 539.259 341.838V350.018C539.259 350.527 538.849 350.936 538.344 350.936ZM517.961 349.101H537.428V342.756H517.961V349.101Z" fill="#3DA153"/>
<path d="M569.145 350.56H547.497C546.992 350.56 546.582 350.149 546.582 349.642V341.84C546.582 341.333 546.992 340.922 547.497 340.922H569.145C569.65 340.922 570.06 341.333 570.06 341.84V349.642C570.06 350.149 569.65 350.56 569.145 350.56ZM548.412 348.724H568.229V342.757H548.412V348.724Z" fill="#3DA153"/>
<path d="M543.096 306.245C542.591 306.245 542.181 305.834 542.181 305.328C542.174 271.868 558.64 263.392 572.458 262.175C572.971 262.127 573.406 262.504 573.45 263.008C573.494 263.513 573.123 263.959 572.619 264.003C559.565 265.154 544.004 273.257 544.013 305.328C544.011 305.834 543.601 306.245 543.096 306.245Z" fill="#00236E"/>
<path d="M568.498 268.474L588.687 264.651L569.295 257.84L568.498 268.474Z" fill="#00236E"/>
<path d="M570.098 381.661H516.094C515.589 381.661 515.179 381.25 515.179 380.743V361.354C515.179 360.847 515.589 360.436 516.094 360.436H570.098C570.604 360.436 571.014 360.847 571.014 361.354V380.743C571.014 381.25 570.604 381.661 570.098 381.661ZM517.009 379.826H569.183V362.272H517.009V379.826Z" fill="#3DA153"/>
<path d="M581.461 412.285C581.236 412.285 581.009 412.203 580.833 412.036L545.542 378.633C545.174 378.284 545.158 377.704 545.504 377.335C545.851 376.968 546.43 376.951 546.798 377.297L582.089 410.699C582.457 411.048 582.474 411.628 582.128 411.997C581.947 412.188 581.705 412.285 581.461 412.285Z" fill="#00236E"/>
<path d="M575.171 412.748L593.251 422.532L582.474 404.993L575.171 412.748Z" fill="#00236E"/>
<path d="M622.617 434.615C621.244 434.615 619.869 434.09 618.823 433.042L618.214 432.431C616.833 431.047 614.591 431.049 613.216 432.431L613.077 432.57C610.984 434.668 607.581 434.668 605.489 432.57C604.154 431.232 601.826 431.232 600.491 432.57C600.134 432.928 599.554 432.928 599.197 432.57C598.84 432.212 598.84 431.63 599.197 431.273C601.222 429.241 604.758 429.241 606.785 431.273C608.163 432.655 610.406 432.653 611.783 431.273L611.922 431.133C614.014 429.035 617.417 429.035 619.51 431.133L620.12 431.744C621.498 433.126 623.741 433.126 625.117 431.744L625.76 431.1C627.852 429.002 631.255 429.002 633.348 431.1C633.705 431.458 633.705 432.04 633.348 432.398C632.991 432.756 632.411 432.756 632.054 432.398C630.675 431.016 628.433 431.016 627.056 432.398L626.413 433.042C625.364 434.09 623.991 434.615 622.617 434.615Z" fill="#00236E"/>
<path d="M622.617 421.315C621.244 421.315 619.869 420.79 618.823 419.742L618.214 419.131C616.833 417.747 614.591 417.749 613.216 419.131L613.077 419.271C610.984 421.368 607.581 421.368 605.489 419.271C604.11 417.889 601.868 417.889 600.491 419.271C600.134 419.629 599.554 419.629 599.197 419.271C598.84 418.913 598.84 418.331 599.197 417.973C601.289 415.875 604.692 415.875 606.785 417.973C608.163 419.355 610.406 419.355 611.783 417.973L611.922 417.833C614.014 415.736 617.417 415.736 619.51 417.833L620.12 418.445C621.498 419.827 623.741 419.825 625.117 418.445L625.76 417.8C627.852 415.703 631.255 415.703 633.348 417.8C633.705 418.158 633.705 418.74 633.348 419.098C632.991 419.456 632.411 419.456 632.054 419.098C630.675 417.718 628.433 417.716 627.056 419.098L626.413 419.742C625.364 420.79 623.991 421.315 622.617 421.315Z" fill="#00236E"/>
<path d="M623.819 284.532C622.446 284.532 621.071 284.007 620.026 282.959L619.417 282.348C618.038 280.964 615.796 280.966 614.419 282.348L614.28 282.488C612.187 284.585 608.784 284.585 606.692 282.488C605.313 281.105 603.071 281.105 601.694 282.488C601.337 282.845 600.757 282.845 600.4 282.488C600.043 282.13 600.043 281.548 600.4 281.19C602.492 279.092 605.895 279.092 607.988 281.19C609.366 282.572 611.609 282.572 612.985 281.19L613.125 281.05C615.217 278.953 618.62 278.953 620.713 281.05L621.322 281.662C622.701 283.044 624.943 283.042 626.32 281.662L626.963 281.017C629.055 278.919 632.458 278.919 634.551 281.017C634.908 281.375 634.908 281.957 634.551 282.315C634.194 282.673 633.613 282.673 633.256 282.315C631.878 280.933 629.635 280.933 628.259 282.315L627.616 282.959C626.567 284.007 625.194 284.532 623.819 284.532Z" fill="#00236E"/>
<path d="M623.819 266.644C622.446 266.644 621.071 266.119 620.026 265.071L619.417 264.46C618.038 263.078 615.796 263.076 614.419 264.46L614.28 264.6C612.187 266.697 608.784 266.697 606.692 264.6C605.313 263.217 603.071 263.217 601.694 264.6C601.337 264.957 600.757 264.957 600.4 264.6C600.043 264.242 600.043 263.66 600.4 263.302C602.492 261.204 605.895 261.204 607.988 263.302C609.366 264.684 611.609 264.684 612.985 263.302L613.125 263.162C615.217 261.064 618.62 261.064 620.713 263.162L621.322 263.774C622.701 265.156 624.943 265.154 626.32 263.774L626.963 263.129C629.055 261.031 632.458 261.031 634.551 263.129C634.908 263.487 634.908 264.069 634.551 264.427C634.194 264.785 633.613 264.785 633.256 264.427C631.878 263.045 629.635 263.045 628.259 264.427L627.616 265.071C626.567 266.121 625.194 266.644 623.819 266.644Z" fill="#00236E"/>
<path d="M580.211 160.753V191.128H598.518L606.298 184.704V160.753H580.211Z" fill="#FFDC5E"/>
<path d="M592.451 174.214C591.078 174.214 589.703 173.689 588.658 172.641C587.279 171.259 585.037 171.259 583.66 172.641C583.303 172.999 582.723 172.999 582.366 172.641C582.009 172.283 582.009 171.701 582.366 171.344C584.458 169.246 587.861 169.246 589.954 171.344C591.332 172.726 593.575 172.726 594.952 171.344L595.091 171.204C597.183 169.106 600.586 169.106 602.679 171.204L603.288 171.815C603.645 172.173 603.645 172.755 603.288 173.113C602.931 173.471 602.351 173.471 601.994 173.113L601.385 172.502C600.006 171.12 597.763 171.12 596.387 172.502L596.248 172.641C595.199 173.689 593.824 174.214 592.451 174.214Z" fill="#3DA153"/>
<path d="M606.298 184.704H600.989C600.074 184.704 599.299 185.381 599.175 186.291L598.518 191.128L606.298 184.704Z" fill="#473B16"/>
<path d="M426.199 385.06V415.435H444.506L452.286 409.011V385.06H426.199Z" fill="#FFDC5E"/>
<path d="M438.439 398.521C437.066 398.521 435.691 397.996 434.646 396.948C433.268 395.566 431.025 395.566 429.648 396.948C429.291 397.306 428.711 397.306 428.354 396.948C427.997 396.59 427.997 396.009 428.354 395.651C430.446 393.553 433.85 393.553 435.942 395.651C437.321 397.033 439.563 397.033 440.94 395.651L441.079 395.511C443.171 393.413 446.575 393.413 448.667 395.511L449.277 396.122C449.634 396.48 449.634 397.062 449.277 397.42C448.92 397.778 448.339 397.778 447.982 397.42L447.373 396.809C445.994 395.427 443.752 395.427 442.375 396.809L442.236 396.948C441.187 397.996 439.814 398.521 438.439 398.521Z" fill="white"/>
<path d="M452.286 409.011H446.977C446.062 409.011 445.288 409.688 445.163 410.598L444.506 415.435L452.286 409.011Z" fill="#473B16"/>
<path d="M368.953 335.783C368.953 335.783 371.098 329.017 373.09 327.077C375.082 325.139 388.832 320.628 392.533 315.494C396.235 310.36 393.321 291.015 389.952 292.557C386.582 294.097 387.829 306.497 387.829 306.497C387.829 306.497 373.659 306.099 370.888 310.181C368.118 314.262 359.444 327.382 359.444 327.382L368.953 335.783Z" fill="#F2D3C9"/>
<path d="M396.458 322.781C394.981 323.497 393.207 322.821 392.574 321.303L379.475 289.873L379.312 281.919L384.934 287.645L397.859 319.104C398.436 320.508 397.822 322.12 396.458 322.781Z" fill="#00236E"/>
<path d="M387.093 296.87C389.718 299.317 384.779 307.18 379.312 310.79L370.888 310.18C370.888 310.18 383.565 293.583 387.093 296.87Z" fill="#F2D3C9"/>
<path d="M249.185 264.866L247.102 288.337L273.971 293.621L274.901 280.467C279.529 281.122 282.978 282.113 284.081 280.935C286.115 278.758 287.347 268.827 287.347 268.827C287.347 268.827 287.776 255.189 284.825 244.689C283.611 240.372 277.93 238.575 268.847 239.722C259.765 240.84 252.217 243.656 250.055 249.843C247.917 256.056 249.185 264.866 249.185 264.866Z" fill="#F2D3C9"/>
<path d="M238.795 245.66C238.004 260.806 242.194 270.581 249.021 274.465C255.847 278.349 266.842 267.922 266.919 264.921C266.994 261.92 255.221 258.119 263.281 250.841C275.117 240.157 264.79 283.982 283.532 284.965C291.206 285.369 290.677 267.599 288.202 266.916C285.727 266.233 285.301 272.112 282.101 272.053C274.979 271.923 271.28 246.835 275.573 246.48C285.423 245.669 292.448 249.222 293.085 237.057C293.398 231.063 291.955 226.114 288.59 223.928C284.85 221.498 267.902 218.272 258.547 220.562C248.958 222.908 239.452 233.106 238.795 245.66Z" fill="#0A210D"/>
<path d="M247.1 288.337C247.1 288.337 218.496 296.367 211.402 310.592C204.309 324.816 190.807 370.454 191.723 375.97C192.638 381.485 229.938 444.348 229.938 444.348L233.141 414.064L216.666 374.832C216.666 374.832 228.565 348.447 231.997 335.37C235.43 322.293 247.1 288.337 247.1 288.337Z" fill="#F7CA4D"/>
<path d="M279.595 663.681V681.347H325.361C325.361 672.515 308.199 675.727 303.179 668.791C301.35 666.264 299.274 663.681 299.274 663.681H279.595Z" fill="#00236E"/>
<path d="M218.8 662.684V680.35H173.034C173.034 671.518 190.196 674.73 195.216 667.794C197.044 665.267 199.12 662.684 199.12 662.684H218.8Z" fill="#00236E"/>
<path d="M276.391 428.288L218.8 663.143H199.12L227.421 430.353L276.391 428.288Z" fill="#352B0F"/>
<path d="M251.714 432.188C251.714 432.188 243.426 500.114 248.323 542.754L265.912 471.026L251.714 432.188Z" fill="#2B230C"/>
<path d="M303.051 432.188L299.276 664.599H279.596C279.596 664.599 251.646 474.174 251.646 427.95L303.051 432.188Z" fill="#473B16"/>
<path d="M271.357 288.337C285.087 288.337 305.453 301.873 309.572 311.28C313.691 320.687 330.681 360.161 330.681 360.161L359.444 323.331L373.429 337.158C373.429 337.158 334.708 399.579 318.502 397.89C310.34 397.04 299.045 366.572 299.045 366.572L303.051 432.189L227.422 430.353C227.422 430.353 229.024 377.126 227.422 365.425C225.821 353.724 218.727 338.353 219.642 323.899C220.558 309.445 242.525 288.796 247.102 288.337C251.679 287.878 271.357 288.337 271.357 288.337Z" fill="#FFDC5E"/>
<path d="M299.045 366.572L290.657 332.584C290.657 332.584 288.909 374.536 301.185 401.642L299.045 366.572Z" fill="#F7CA4D"/>
<path d="M773.452 90.9869C773.452 90.9869 765.725 94.8597 765.725 106.48C765.725 118.1 773.452 121.973 773.452 121.973C773.452 121.973 781.179 118.1 781.179 106.48C781.179 94.8597 773.452 90.9869 773.452 90.9869Z" fill="#3DA153"/>
<path d="M751.9 100.368C751.9 100.368 749.168 108.585 757.362 116.8C765.558 125.017 773.752 122.277 773.752 122.277C773.752 122.277 776.483 114.06 768.289 105.845C760.095 97.6293 751.9 100.368 751.9 100.368Z" fill="#5EB76F"/>
<path d="M795.967 100.368C795.967 100.368 798.699 108.585 790.505 116.8C782.309 125.017 774.115 122.277 774.115 122.277C774.115 122.277 771.383 114.06 779.577 105.845C787.773 97.6293 795.967 100.368 795.967 100.368Z" fill="#5EB76F"/>
<path d="M802.089 119.069H744.811C743.359 122.659 742.543 126.576 742.543 130.689H804.355C804.357 126.578 803.541 122.661 802.089 119.069Z" fill="#C2EFC3"/>
<path d="M757.227 157.062H789.674C798.483 151.604 804.355 141.835 804.355 130.689H742.543C742.545 141.835 748.418 151.604 757.227 157.062Z" fill="#D5F7D8"/>
<path d="M876.677 61.2293L876.472 59.0488L870.202 59.6343C873.025 55.9616 876.337 52.645 880.258 50.1176L879.077 48.2749C876.98 49.6276 875.085 51.2171 873.302 52.913V46.6432H871.12V55.1283C867.987 58.5496 865.379 62.3874 863.218 66.3281L860.123 58.9846L858.111 59.8344L861.893 68.8059C859.328 73.9414 857.485 79.0769 856.192 83.4416L852.364 78.0987L850.591 79.3761L855.434 86.136C854.087 91.1907 853.553 94.7404 853.49 95.1754L855.652 95.4874C855.674 95.3333 856.793 88.0228 860.013 79.0329L867.473 76.4927L866.77 74.4205L861.011 76.3807C862.874 71.6416 865.315 66.6199 868.487 61.9947L876.677 61.2293Z" fill="#3DA153"/>
<path d="M860.571 92.9619H848.932C848.932 123.68 837.293 134.832 837.293 158.606H872.213C872.211 134.83 860.571 123.68 860.571 92.9619Z" fill="#C2EFC3"/>
<path d="M921.358 157.587H728.039V172.773H921.358V157.587Z" fill="#EFD8AF"/>
<path d="M597.529 319.102L606.051 348.251L623.618 343.088L629.282 334.729L622.563 311.746L597.529 319.102Z" fill="#FFDC5E"/>
<path d="M629.282 334.729L624.187 336.227C623.308 336.486 622.756 337.354 622.891 338.262L623.618 343.09L629.282 334.729Z" fill="#473B16"/>
<path d="M759.356 612.128C759.356 612.128 766.007 635.619 763.365 640.525C760.725 645.431 748.996 655.229 748.996 655.229L750.578 659.738L789.831 645.901C789.831 645.901 787.707 641.883 784.568 634.639C781.428 627.395 775.587 606.405 775.587 606.405L759.356 612.128Z" fill="#F2D3C9"/>
<path d="M791.934 647.944L739.803 666.322C738.935 663.846 744.057 656.972 748.996 655.231C753.935 653.489 754.603 654.546 760.645 651.422C766.686 648.298 772.806 635.509 784.624 631.343C789.926 637.124 791.616 641.186 791.934 647.944Z" fill="#00236E"/>
<path d="M724.209 622.973C724.209 622.973 722.712 647.347 718.596 651.097C714.483 654.847 700.176 660.19 700.176 660.19V664.971H741.785C741.785 664.971 741.112 660.474 740.546 652.595C739.98 644.717 741.414 622.971 741.414 622.971H724.209V622.973V622.973Z" fill="#F2D3C9"/>
<path d="M743.094 667.596H687.834C687.834 664.971 694.94 660.19 700.176 660.19C705.412 660.19 705.692 661.409 712.425 660.471C719.158 659.533 729.163 649.502 741.692 649.502C744.778 656.721 745.029 661.115 743.094 667.596Z" fill="#00236E"/>
<path d="M719.675 417.85C719.675 417.85 701.417 475.291 701.509 512.918C701.529 521.474 759.799 633.073 759.799 633.073L783.349 622.973L752.207 507.914L760.398 412.046L719.675 417.85Z" fill="#0A210D"/>
<path d="M715.182 311.074L684.94 354.706L645.414 325.286C645.414 325.286 634.335 319.082 632.638 318.581C630.94 318.08 625.269 315.573 623.971 316.573L626.823 327.059C626.823 327.059 620.691 330.181 621.027 331.954C621.28 333.279 625.666 332.681 626.946 332.833C629.941 333.191 637.924 331.991 637.924 331.991C637.924 331.991 681.044 378.023 685.835 378.124C690.626 378.225 717.176 344.301 717.176 344.301L715.182 311.074Z" fill="#F2D3C9"/>
<path d="M774.371 416.25C774.371 416.25 780.758 421.653 780.758 450.675C780.758 473.291 750.814 640.81 750.814 640.81H718.675C718.675 640.81 726.095 530.932 726.355 521.126C726.615 511.319 731.962 415.279 731.962 415.279L774.371 416.25Z" fill="#133319"/>
<path d="M726.807 304.892C726.807 304.892 717.653 306.941 714.36 309.995C709.749 314.271 703.374 333.242 705.17 341.849C706.966 350.455 721.67 368.014 721.67 384.827C721.67 401.639 719.674 417.85 719.674 417.85L774.371 416.249C774.371 416.249 771.376 397.236 770.578 382.826C769.78 368.416 781.857 328.988 777.864 318.781C773.871 308.574 753.41 303.171 753.41 303.171L726.807 304.892Z" fill="#3DA153"/>
<path d="M774.371 317.261C793.335 319.431 773.602 385.313 773.602 385.313L758.68 443.588L744.26 440.883L756.606 378.122C756.606 378.122 761.207 315.755 774.371 317.261Z" fill="#F2D3C9"/>
<path d="M705.157 299.781L770.686 291.375C770.686 291.375 783.803 243.525 754.404 242.051C754.404 242.051 748.916 233.531 733.752 233.531C715.085 233.53 691.129 255.046 705.157 299.781Z" fill="#352B0F"/>
<path d="M727.199 255.046C722.036 255.046 717.505 257.524 716.277 265.91C715.083 274.063 716.271 282.554 719.85 289.769C722.825 295.765 730.375 293.39 730.375 293.39C729.977 302.763 726.805 304.893 726.805 304.893C726.805 304.893 721.242 323.583 734.745 323.583C748.247 323.583 753.408 303.169 753.408 303.169C748.246 292.518 749.436 277.625 749.436 277.625C749.436 277.625 754.208 277.409 754.4 271.022C754.598 264.418 747.532 264.607 747.252 264.631C734.745 265.697 734.746 255.046 727.199 255.046Z" fill="#F2D3C9"/>
<path d="M740.761 438.196L740.009 442.226L762.022 446.355L762.775 442.325L740.761 438.196Z" fill="#0D2811"/>
</svg>
