<svg width="173" height="157" viewBox="0 0 173 157" fill="none" xmlns="http://www.w3.org/2000/svg">
<path d="M167.6 41.7H99V154.5H167.6V41.7Z" fill="white"/>
<path d="M101.45 41.766H99.15V155.666H101.45V41.766Z" fill="white"/>
<path d="M167.95 155.666H98.25V40.966H167.95V155.666ZM100.05 154.166H166.25V42.466H100.05V154.166Z" fill="#683021"/>
<path d="M98.692 131.393H167.592C168.792 131.393 169.692 132.293 169.692 133.493C169.692 134.693 168.792 135.593 167.592 135.593H98.692C97.492 135.593 96.592 134.693 96.592 133.493C96.592 132.393 97.492 131.393 98.692 131.393Z" fill="white"/>
<path d="M167.592 136.493H98.692C97.092 136.493 95.692 135.193 95.692 133.493C95.692 131.893 96.992 130.493 98.692 130.493H167.592C169.192 130.493 170.592 131.793 170.592 133.493C170.492 135.093 169.192 136.493 167.592 136.493ZM98.692 132.293C97.992 132.293 97.492 132.793 97.492 133.493C97.492 134.193 97.992 134.693 98.692 134.693H167.592C168.292 134.693 168.792 134.193 168.792 133.493C168.792 132.793 168.292 132.293 167.592 132.293H98.692Z" fill="#683021"/>
<path d="M94.416 37.598H171.816C173.016 37.598 173.916 38.498 173.916 39.698C173.916 40.898 173.016 41.798 171.816 41.798H94.416C93.216 41.798 92.316 40.898 92.316 39.698C92.316 38.498 93.316 37.598 94.416 37.598Z" fill="white"/>
<path d="M171.816 42.598H94.416C92.816 42.598 91.416 41.298 91.416 39.698C91.416 38.098 92.716 36.698 94.316 36.698H94.416H171.816C173.416 36.698 174.816 37.998 174.816 39.598C174.816 41.298 173.516 42.598 171.816 42.598C171.816 42.598 171.916 42.598 171.816 42.598ZM94.416 38.498C93.716 38.498 93.216 38.998 93.216 39.698C93.216 40.398 93.716 40.898 94.416 40.898H171.816C172.516 40.898 173.016 40.398 173.016 39.698C173.016 38.998 172.516 38.498 171.816 38.498H94.416Z" fill="#683021"/>
<path d="M132.704 141.985H153.504C154.804 141.985 155.804 142.985 155.804 144.285V154.785H130.404V144.285C130.404 142.985 131.404 141.985 132.704 141.985Z" fill="white"/>
<path d="M156.704 155.685H129.504V143.285C129.504 142.085 130.504 141.085 131.704 141.085H154.604C155.804 141.085 156.804 142.085 156.804 143.285L156.704 155.685ZM131.304 153.885H154.904V143.285C154.904 143.085 154.704 142.885 154.504 142.885H131.704C131.504 142.885 131.304 143.085 131.304 143.285V153.885Z" fill="#683021"/>
<path opacity="0.3" d="M117.9 47.3H106.1V52.8H117.9V47.3Z" fill="#00BB85"/>
<path opacity="0.3" d="M139.2 47.3H127.4V52.8H139.2V47.3Z" fill="#00BB85"/>
<path opacity="0.3" d="M159.7 47.3H147.9V52.8H159.7V47.3Z" fill="#FF8345"/>
<path opacity="0.3" d="M117.9 57.5H106.1V63H117.9V57.5Z" fill="#00BB85"/>
<path opacity="0.3" d="M139.2 57.5H127.4V63H139.2V57.5Z" fill="#FF8345"/>
<path opacity="0.3" d="M159.7 57.5H147.9V63H159.7V57.5Z" fill="#00BB85"/>
<path opacity="0.3" d="M155.5 142.7H131.1V154.5H155.5V142.7Z" fill="#00BB85"/>
<path opacity="0.3" d="M117.9 68.6H106.1V74.1H117.9V68.6Z" fill="#00BB85"/>
<path opacity="0.3" d="M139.2 68.6H127.4V74.1H139.2V68.6Z" fill="#00BB85"/>
<path opacity="0.3" d="M159.7 68.6H147.9V74.1H159.7V68.6Z" fill="#00BB85"/>
<path opacity="0.3" d="M117.9 78.8H106.1V84.3H117.9V78.8Z" fill="#00BB85"/>
<path opacity="0.3" d="M139.2 78.8H127.4V84.3H139.2V78.8Z" fill="#00BB85"/>
<path opacity="0.3" d="M159.7 78.8H147.9V84.3H159.7V78.8Z" fill="#FF8345"/>
<path opacity="0.3" d="M117.9 89.1H106.1V94.6H117.9V89.1Z" fill="#00BB85"/>
<path opacity="0.3" d="M139.2 89.1H127.4V94.6H139.2V89.1Z" fill="#FF8345"/>
<path opacity="0.3" d="M159.7 89.1H147.9V94.6H159.7V89.1Z" fill="#00BB85"/>
<path opacity="0.3" d="M117.9 99.3H106.1V104.8H117.9V99.3Z" fill="#00BB85"/>
<path opacity="0.3" d="M139.2 99.3H127.4V104.8H139.2V99.3Z" fill="#00BB85"/>
<path opacity="0.3" d="M159.7 99.3H147.9V104.8H159.7V99.3Z" fill="#00BB85"/>
<path opacity="0.3" d="M117.9 110.3H106.1V115.8H117.9V110.3Z" fill="#00BB85"/>
<path opacity="0.3" d="M139.2 110.3H127.4V115.8H139.2V110.3Z" fill="#FF8345"/>
<path opacity="0.3" d="M159.7 110.3H147.9V115.8H159.7V110.3Z" fill="#00BB85"/>
<path opacity="0.3" d="M117.9 121.4H106.1V126.9H117.9V121.4Z" fill="#00BB85"/>
<path opacity="0.3" d="M139.2 121.4H127.4V126.9H139.2V121.4Z" fill="#00BB85"/>
<path opacity="0.3" d="M159.7 121.4H147.9V126.9H159.7V121.4Z" fill="#00BB85"/>
<g opacity="0.3">
<g opacity="0.3">
<g opacity="0.3">
<g opacity="0.3">
<path opacity="0.3" d="M117.935 52.991H105.835V47.091H117.935V52.991ZM107.035 51.591H116.735V48.391H107.035V51.591Z" fill="#00BB85"/>
</g>
</g>
<g opacity="0.3">
<g opacity="0.3">
<path opacity="0.3" d="M139.308 52.991H126.908V47.091H139.308V52.991ZM128.108 51.591H138.008V48.391H128.108V51.591Z" fill="#00BB85"/>
</g>
</g>
<g opacity="0.3">
<g opacity="0.3">
<path opacity="0.3" d="M160.38 52.991H147.98V47.091H160.48L160.38 52.991ZM149.18 51.591H159.08V48.391H149.18V51.591Z" fill="#FF8345"/>
</g>
</g>
</g>
<g opacity="0.3">
<g opacity="0.3">
<g opacity="0.3">
<path opacity="0.3" d="M117.935 63.456H105.835V57.556H117.935V63.456ZM107.035 62.056H116.735V58.856H107.035V62.056Z" fill="#00BB85"/>
</g>
</g>
<g opacity="0.3">
<g opacity="0.3">
<path opacity="0.3" d="M139.308 63.456H126.908V57.556H139.308V63.456ZM128.108 62.056H138.008V58.856H128.108V62.056Z" fill="#FF8345"/>
</g>
</g>
<g opacity="0.3">
<g opacity="0.3">
<path opacity="0.3" d="M160.38 63.456H147.98V57.556H160.48L160.38 63.456ZM149.18 58.856V62.056H159.08V58.856" fill="#00BB85"/>
</g>
</g>
</g>
<g opacity="0.3">
<g opacity="0.3">
<g opacity="0.3">
<path opacity="0.3" d="M117.935 73.921H105.835V68.021H117.935V73.921ZM107.035 72.521H116.735V69.321H107.035V72.521Z" fill="#00BB85"/>
</g>
</g>
<g opacity="0.3">
<g opacity="0.3">
<path opacity="0.3" d="M139.308 73.921H126.908V68.021H139.308V73.921ZM128.108 72.521H138.008V69.321H128.108V72.521Z" fill="#00BB85"/>
</g>
</g>
<g opacity="0.3">
<g opacity="0.3">
<path opacity="0.3" d="M160.38 73.921H147.98V68.021H160.48L160.38 73.921ZM149.18 72.521H159.08V69.321H149.18V72.521Z" fill="#00BB85"/>
</g>
</g>
</g>
<g opacity="0.3">
<g opacity="0.3">
<g opacity="0.3">
<path opacity="0.3" d="M117.935 84.387H105.835V78.487H117.935V84.387ZM107.035 82.987H116.735V79.787H107.035V82.987Z" fill="#00BB85"/>
</g>
</g>
<g opacity="0.3">
<g opacity="0.3">
<path opacity="0.3" d="M139.308 84.387H126.908V78.487H139.308V84.387ZM128.108 82.987H138.008V79.787H128.108V82.987Z" fill="#00BB85"/>
</g>
</g>
<g opacity="0.3">
<g opacity="0.3">
<path opacity="0.3" d="M160.38 84.387H147.98V78.487H160.48L160.38 84.387ZM149.18 82.987H159.08V79.787H149.18V82.987Z" fill="#FF8345"/>
</g>
</g>
</g>
<g opacity="0.3">
<g opacity="0.3">
<g opacity="0.3">
<path opacity="0.3" d="M117.935 94.852H105.835V88.952H117.935V94.852ZM107.035 93.452H116.735V90.252H107.035V93.452Z" fill="#00BB85"/>
</g>
</g>
<g opacity="0.3">
<g opacity="0.3">
<path opacity="0.3" d="M139.308 94.852H126.908V88.952H139.308V94.852ZM128.108 93.452H138.008V90.252H128.108V93.452Z" fill="#FF8345"/>
</g>
</g>
<g opacity="0.3">
<g opacity="0.3">
<path opacity="0.3" d="M160.38 94.852H147.98V88.952H160.48L160.38 94.852ZM149.18 93.452H159.08V90.252H149.18V93.452Z" fill="#00BB85"/>
</g>
</g>
</g>
<g opacity="0.3">
<g opacity="0.3">
<g opacity="0.3">
<path opacity="0.3" d="M117.935 105.317H105.835V99.417H117.935V105.317ZM107.035 103.917H116.735V100.717H107.035V103.917Z" fill="#00BB85"/>
</g>
</g>
<g opacity="0.3">
<g opacity="0.3">
<path opacity="0.3" d="M139.308 105.317H126.908V99.417H139.308V105.317ZM128.108 103.917H138.008V100.717H128.108V103.917Z" fill="#00BB85"/>
</g>
</g>
<g opacity="0.3">
<g opacity="0.3">
<path opacity="0.3" d="M160.38 105.317H147.98V99.417H160.48L160.38 105.317ZM149.18 103.917H159.08V100.717H149.18V103.917Z" fill="#00BB85"/>
</g>
</g>
</g>
<g opacity="0.3">
<g opacity="0.3">
<g opacity="0.3">
<path opacity="0.3" d="M117.935 115.783H105.835V109.883H117.935V115.783ZM107.035 114.383H116.735V111.183H107.035V114.383Z" fill="#00BB85"/>
</g>
</g>
<g opacity="0.3">
<g opacity="0.3">
<path opacity="0.3" d="M139.308 115.783H126.908V109.883H139.308V115.783ZM128.108 114.383H138.008V111.183H128.108V114.383Z" fill="#FF8345"/>
</g>
</g>
<g opacity="0.3">
<g opacity="0.3">
<path opacity="0.3" d="M160.38 115.783H147.98V109.883H160.48L160.38 115.783ZM149.18 114.383H159.08V111.183H149.18V114.383Z" fill="#00BB85"/>
</g>
</g>
</g>
<g opacity="0.3">
<g opacity="0.3">
<g opacity="0.3">
<path opacity="0.3" d="M117.935 126.748H105.835V120.848H117.935V126.748ZM107.035 125.448H116.735V122.248H107.035V125.448Z" fill="#00BB85"/>
</g>
</g>
<g opacity="0.3">
<g opacity="0.3">
<path opacity="0.3" d="M139.308 126.748H126.908V120.848H139.308V126.748ZM128.108 125.448H138.008V122.248H128.108V125.448Z" fill="#00BB85"/>
</g>
</g>
<g opacity="0.3">
<g opacity="0.3">
<path opacity="0.3" d="M160.38 126.748H147.98V120.848H160.48L160.38 126.748ZM149.18 125.448H159.08V122.248H149.18V125.448Z" fill="#00BB85"/>
</g>
</g>
</g>
</g>
<path d="M172.555 155.604H151.255C150.755 155.604 150.355 155.204 150.355 154.704C150.355 154.204 150.755 153.804 151.255 153.804H172.555C173.055 153.804 173.455 154.204 173.455 154.704C173.455 155.204 173.055 155.604 172.555 155.604Z" fill="#683021"/>
<path d="M16.424 127.525C22.4439 127.525 27.324 119.69 27.324 110.025C27.324 100.36 22.4439 92.525 16.424 92.525C10.4041 92.525 5.52402 100.36 5.52402 110.025C5.52402 119.69 10.4041 127.525 16.424 127.525Z" fill="#0BB76D"/>
<path d="M16.424 92.525C10.324 92.525 5.52401 100.325 5.52401 110.025C5.42401 114.425 6.62401 118.825 8.82401 122.625C9.82401 123.125 10.824 123.325 11.824 123.325C17.824 123.325 22.724 115.525 22.724 105.825C22.824 101.325 21.724 97.025 19.424 93.225C18.524 92.725 17.424 92.525 16.424 92.525Z" fill="white"/>
<path d="M5.89002 110.74C5.79002 115.14 8.89002 122.84 11.89 126.74C20.89 129.74 26.89 119.64 26.89 109.74C26.89 101.74 22.89 96.54 19.89 92.74C11.29 92.74 5.89002 94.64 5.89002 110.74Z" fill="#00BB85"/>
<path d="M16.412 128.613C9.81202 128.613 4.41202 120.313 4.41202 110.013C4.41202 99.713 9.71202 91.413 16.412 91.413C23.012 91.413 28.412 99.713 28.412 110.013C28.412 120.313 23.012 128.613 16.412 128.613ZM16.412 93.613C11.012 93.613 6.61202 100.913 6.61202 110.013C6.61202 119.113 11.012 126.413 16.412 126.413C21.812 126.413 26.212 119.113 26.212 110.013C26.212 100.913 21.812 93.613 16.412 93.613Z" fill="#683021"/>
<path d="M16.396 156.105C15.796 156.105 15.296 155.605 15.296 155.005V113.205C15.296 112.605 15.796 112.105 16.396 112.105C16.996 112.105 17.496 112.605 17.496 113.205V155.005C17.496 155.605 16.996 156.105 16.396 156.105Z" fill="#683021"/>
<path d="M16.423 120.24C16.123 120.24 15.823 120.14 15.623 119.94L11.323 115.64C10.923 115.24 10.923 114.54 11.323 114.04C11.723 113.64 12.423 113.64 12.923 114.04L17.223 118.34C17.623 118.74 17.623 119.44 17.223 119.94C16.923 120.14 16.723 120.24 16.423 120.24Z" fill="#683021"/>
<path d="M26.643 132.624C20.643 132.624 15.543 137.224 15.043 143.324C15.043 143.624 15.043 144.024 15.043 144.324C15.043 147.124 16.143 152.624 17.943 154.724H32.943C38.843 152.224 36.443 140.624 33.943 134.724C33.243 133.124 27.843 133.724 26.643 132.624Z" fill="#00BB85"/>
<path d="M31.331 156.111H21.931L21.731 156.011C21.131 155.811 20.631 155.511 20.031 155.111C16.231 152.911 13.931 148.711 13.931 144.311C13.931 143.911 13.931 143.611 14.031 143.211C14.631 136.211 20.831 131.011 27.831 131.611C34.731 132.211 39.931 138.411 39.331 145.411C38.931 150.111 35.931 154.211 31.531 156.011L31.331 156.111ZM22.431 153.911H30.931C36.231 151.611 38.631 145.311 36.331 140.011C33.931 134.711 27.731 132.311 22.431 134.611C18.931 136.211 16.531 139.511 16.131 143.311C16.131 143.611 16.131 143.911 16.131 144.211C16.131 147.911 18.031 151.311 21.231 153.211C21.631 153.511 22.031 153.711 22.431 153.911Z" fill="#683021"/>
<path d="M22.732 149.556C22.732 151.356 21.932 153.056 20.632 154.256C20.332 154.556 19.932 154.856 19.632 155.056H13.132C10.132 153.256 9.132 149.356 10.932 146.356C11.832 144.856 13.332 143.756 15.132 143.356C15.532 143.256 16.032 143.256 16.432 143.256C19.932 143.156 22.732 146.056 22.732 149.556Z" fill="#0BB76D"/>
<path d="M16.632 143.524C11.432 144.724 8.732 148.324 10.532 151.624C11.332 153.024 12.732 154.124 14.632 154.924H17.932C18.532 154.724 19.032 154.424 19.532 154.124C23.632 151.724 23.932 147.724 20.232 145.124C19.332 144.424 18.032 143.924 16.632 143.524Z" fill="#00BB85"/>
<path d="M19.92 156.143H12.82L12.52 155.943C9.02 153.843 7.82 149.243 9.92 145.743C11.02 143.943 12.82 142.643 14.82 142.243C15.32 142.143 15.82 142.043 16.32 142.043C20.42 142.043 23.82 145.443 23.82 149.543C23.82 151.643 22.92 153.643 21.42 155.043C21.02 155.343 20.62 155.743 20.22 155.943L19.92 156.143ZM13.42 153.943H19.32C19.52 153.743 19.72 153.643 19.92 153.443C22.12 151.443 22.22 148.143 20.32 146.043C19.32 144.943 17.92 144.343 16.42 144.343C16.02 144.343 15.72 144.343 15.32 144.443C12.92 144.843 11.12 147.043 11.12 149.543C11.12 151.243 12.02 152.943 13.42 153.943Z" fill="#683021"/>
<path d="M120.9 11.7H33.9V154.7H120.9V11.7Z" fill="white"/>
<path d="M36.95 11.666H34.05V156.066H36.95V11.666Z" fill="white"/>
<path d="M121.35 156.166H32.95V10.666H121.35V156.166ZM35.15 154.266H119.05V12.566H35.15V154.266V154.266Z" fill="#683021"/>
<path d="M33.392 125.393H120.792C122.292 125.393 123.392 126.593 123.392 127.993C123.392 129.493 122.192 130.593 120.792 130.593H33.392C31.892 130.593 30.792 129.393 30.792 127.993C30.792 126.593 31.992 125.393 33.392 125.393Z" fill="white"/>
<path d="M120.792 131.793H33.392C31.392 131.793 29.692 130.093 29.692 128.093C29.692 125.993 31.392 124.293 33.492 124.293H120.892C122.992 124.293 124.692 125.993 124.692 128.093C124.592 130.093 122.892 131.793 120.792 131.793ZM33.392 126.493C32.592 126.493 31.892 127.193 31.892 127.993C31.892 128.793 32.592 129.493 33.392 129.493H120.792C121.592 129.493 122.292 128.793 122.292 127.993C122.292 127.193 121.592 126.493 120.792 126.493H33.392Z" fill="#683021"/>
<path d="M28.016 6.398H126.216C127.716 6.398 128.816 7.598 128.816 8.998C128.816 10.498 127.616 11.598 126.216 11.598H28.016C26.516 11.598 25.416 10.398 25.416 8.998C25.416 7.598 26.616 6.398 28.016 6.398Z" fill="white"/>
<path d="M126.216 12.798H28.016C25.916 12.798 24.216 11.198 24.216 9.098C24.216 6.998 25.816 5.298 27.916 5.298H28.016H126.116C128.216 5.298 129.916 6.898 129.916 8.998C129.916 11.098 128.316 12.798 126.216 12.798C126.316 12.798 126.216 12.798 126.216 12.798ZM28.016 7.498C27.216 7.498 26.516 8.198 26.516 8.998C26.516 9.798 27.216 10.498 28.016 10.498H126.116C126.916 10.498 127.616 9.798 127.616 8.998C127.616 8.198 126.916 7.498 126.116 7.498H28.016Z" fill="#683021"/>
<path d="M64.746 1.29999H89.446C92.146 1.29999 94.346 3.49999 94.346 6.19999H59.746C59.846 3.49999 62.046 1.29999 64.746 1.29999Z" fill="white"/>
<path d="M95.546 7.3H58.746V6.2C58.746 2.9 61.446 0.199997 64.746 0.199997H89.446C92.746 0.199997 95.446 2.9 95.446 6.2L95.546 7.3ZM61.146 5.1H93.146C92.646 3.5 91.146 2.4 89.546 2.4H64.746C63.046 2.4 61.646 3.5 61.146 5.1Z" fill="#683021"/>
<path opacity="0.3" d="M63.904 138.785H90.304C91.904 138.785 93.204 140.085 93.204 141.685V154.985H60.904V141.685C61.004 140.085 62.304 138.785 63.904 138.785Z" fill="#FF8345"/>
<path d="M94.304 156.085H59.904V140.385C59.904 138.885 61.104 137.685 62.604 137.685H91.604C93.104 137.685 94.304 138.885 94.304 140.385V156.085ZM62.104 153.885H92.104V140.385C92.104 140.085 91.904 139.885 91.604 139.885H62.604C62.304 139.885 62.104 140.085 62.104 140.385V153.885Z" fill="#683021"/>
<path opacity="0.3" d="M57.9 18.7H42.9V25.7H57.9V18.7Z" fill="#00BB85"/>
<path opacity="0.3" d="M84.9 18.7H69.9V25.7H84.9V18.7Z" fill="#FF8345"/>
<path opacity="0.3" d="M110.9 18.7H95.9V25.7H110.9V18.7Z" fill="#00BB85"/>
<path opacity="0.3" d="M57.9 31.7H42.9V38.7H57.9V31.7Z" fill="#00BB85"/>
<path opacity="0.3" d="M84.9 31.7H69.9V38.7H84.9V31.7Z" fill="#00BB85"/>
<path opacity="0.3" d="M110.9 31.7H95.9V38.7H110.9V31.7Z" fill="#00BB85"/>
<path opacity="0.3" d="M57.9 45.7H42.9V52.7H57.9V45.7Z" fill="#FF8345"/>
<path opacity="0.3" d="M84.9 45.7H69.9V52.7H84.9V45.7Z" fill="#00BB85"/>
<path opacity="0.3" d="M110.9 45.7H95.9V52.7H110.9V45.7Z" fill="#FF8345"/>
<path opacity="0.3" d="M57.9 58.7H42.9V65.7H57.9V58.7Z" fill="#00BB85"/>
<path opacity="0.3" d="M84.9 58.7H69.9V65.7H84.9V58.7Z" fill="#00BB85"/>
<path opacity="0.3" d="M110.9 58.7H95.9V65.7H110.9V58.7Z" fill="#00BB85"/>
<path opacity="0.3" d="M57.9 71.7H42.9V78.7H57.9V71.7Z" fill="#FF8345"/>
<path opacity="0.3" d="M84.9 71.7H69.9V78.7H84.9V71.7Z" fill="#00BB85"/>
<path opacity="0.3" d="M110.9 71.7H95.9V78.7H110.9V71.7Z" fill="#00BB85"/>
<path opacity="0.3" d="M57.9 84.7H42.9V91.7H57.9V84.7Z" fill="#00BB85"/>
<path opacity="0.3" d="M84.9 84.7H69.9V91.7H84.9V84.7Z" fill="#FF8345"/>
<path opacity="0.3" d="M110.9 84.7H95.9V91.7H110.9V84.7Z" fill="#00BB85"/>
<path opacity="0.3" d="M57.9 98.7H42.9V105.7H57.9V98.7Z" fill="#00BB85"/>
<path opacity="0.3" d="M84.9 98.7H69.9V105.7H84.9V98.7Z" fill="#00BB85"/>
<path opacity="0.3" d="M110.9 98.7H95.9V105.7H110.9V98.7Z" fill="#FF8345"/>
<path opacity="0.3" d="M57.9 112.7H42.9V119.7H57.9V112.7Z" fill="#FF8345"/>
<path opacity="0.3" d="M84.9 112.7H69.9V119.7H84.9V112.7Z" fill="#00BB85"/>
<path opacity="0.3" d="M110.9 112.7H95.9V119.7H110.9V112.7Z" fill="#00BB85"/>
<path d="M57.935 25.991H42.535V18.491H57.935V25.991V25.991ZM44.035 24.191H56.335V20.191H44.035V24.191Z" fill="#00BB85"/>
<path d="M84.908 25.991H69.208V18.491H84.908V25.991V25.991ZM70.808 24.191H83.308V20.191H70.808V24.191Z" fill="#FF8345"/>
<path d="M111.68 25.991H95.88V18.491H111.68V25.991ZM97.48 24.191H110.08V20.191H97.48V24.191Z" fill="#00BB85"/>
<path d="M57.935 39.256H42.535V31.756H57.935V39.256V39.256ZM44.035 37.456H56.335V33.456H44.035V37.456Z" fill="#00BB85"/>
<path d="M84.908 39.256H69.208V31.756H84.908V39.256V39.256ZM70.808 37.456H83.308V33.456H70.808V37.456Z" fill="#00BB85"/>
<path d="M111.68 39.256H95.88V31.756H111.68V39.256ZM97.48 33.456V37.456H110.08V33.456" fill="#00BB85"/>
<path d="M57.935 52.521H42.535V45.021H57.935V52.521V52.521ZM44.035 50.721H56.335V46.721H44.035V50.721Z" fill="#FF8345"/>
<path d="M84.908 52.521H69.208V45.021H84.908V52.521V52.521ZM70.808 50.721H83.308V46.721H70.808V50.721Z" fill="#00BB85"/>
<path d="M111.68 52.521H95.88V45.021H111.68V52.521ZM97.48 50.721H110.08V46.721H97.48V50.721Z" fill="#FF8345"/>
<path d="M57.935 65.787H42.535V58.287H57.935V65.787V65.787ZM44.035 63.987H56.335V59.987H44.035V63.987Z" fill="#00BB85"/>
<path d="M84.908 65.787H69.208V58.287H84.908V65.787V65.787ZM70.808 63.987H83.308V59.987H70.808V63.987Z" fill="#00BB85"/>
<path d="M111.68 65.787H95.88V58.287H111.68V65.787ZM97.48 63.987H110.08V59.987H97.48V63.987Z" fill="#00BB85"/>
<path d="M57.935 79.052H42.535V71.552H57.935V79.052V79.052ZM44.035 77.252H56.335V73.252H44.035V77.252Z" fill="#FF8345"/>
<path d="M84.908 79.052H69.208V71.552H84.908V79.052V79.052ZM70.808 77.252H83.308V73.252H70.808V77.252Z" fill="#00BB85"/>
<path d="M111.68 79.052H95.88V71.552H111.68V79.052ZM97.48 77.252H110.08V73.252H97.48V77.252Z" fill="#00BB85"/>
<path d="M57.935 92.317H42.535V84.817H57.935V92.317V92.317ZM44.035 90.517H56.335V86.517H44.035V90.517Z" fill="#00BB85"/>
<path d="M84.908 92.317H69.208V84.817H84.908V92.317V92.317ZM70.808 90.517H83.308V86.517H70.808V90.517Z" fill="#FF8345"/>
<path d="M111.68 92.317H95.88V84.817H111.68V92.317ZM97.48 90.517H110.08V86.517H97.48V90.517Z" fill="#00BB85"/>
<path d="M57.935 105.583H42.535V98.083H57.935V105.583V105.583ZM44.035 103.783H56.335V99.783H44.035V103.783Z" fill="#00BB85"/>
<path d="M84.908 105.583H69.208V98.083H84.908V105.583V105.583ZM70.808 103.783H83.308V99.783H70.808V103.783Z" fill="#00BB85"/>
<path d="M111.68 105.583H95.88V98.083H111.68V105.583ZM97.48 103.783H110.08V99.783H97.48V103.783Z" fill="#FF8345"/>
<path d="M57.935 119.548H42.535V112.048H57.935V119.548V119.548ZM44.035 117.748H56.335V113.748H44.035V117.748Z" fill="#FF8345"/>
<path d="M84.908 119.548H69.208V112.048H84.908V119.548V119.548ZM70.808 117.748H83.308V113.748H70.808V117.748Z" fill="#00BB85"/>
<path d="M111.68 119.548H95.88V112.048H111.68V119.548ZM97.48 117.748H110.08V113.748H97.48V117.748Z" fill="#00BB85"/>
<path d="M34.123 156.104H1.12301C0.523011 156.104 0.0230103 155.604 0.0230103 155.004C0.0230103 154.404 0.523011 153.904 1.12301 153.904H34.123C34.723 153.904 35.223 154.404 35.223 155.004C35.223 155.604 34.723 156.104 34.123 156.104Z" fill="#683021"/>
<path d="M127.155 156.104H100.155C99.555 156.104 99.055 155.604 99.055 155.004C99.055 154.404 99.555 153.904 100.155 153.904H127.155C127.755 153.904 128.255 154.404 128.255 155.004C128.255 155.604 127.755 156.104 127.155 156.104Z" fill="#683021"/>
</svg>
