<svg width="135" height="162" viewBox="0 0 135 162" fill="none" xmlns="http://www.w3.org/2000/svg">
<path d="M17.024 132.125C23.2648 132.125 28.324 124.021 28.324 114.025C28.324 104.029 23.2648 95.925 17.024 95.925C10.7832 95.925 5.72401 104.029 5.72401 114.025C5.72401 124.021 10.7832 132.125 17.024 132.125Z" fill="#0BB76D"/>
<path d="M17.024 95.825C10.824 95.825 5.72401 103.925 5.72401 113.925C5.62401 118.525 6.82401 123.025 9.22401 126.925C10.224 127.425 11.324 127.625 12.424 127.625C18.624 127.625 23.724 119.525 23.724 109.525C23.824 104.925 22.624 100.425 20.224 96.525C19.224 96.125 18.124 95.925 17.024 95.825Z" fill="white"/>
<path d="M6.19001 114.74C6.09001 119.34 9.29001 127.34 12.39 131.34C21.69 134.44 27.99 123.94 27.99 113.74C27.99 105.44 23.89 100.04 20.69 96.04C11.79 96.14 6.19001 98.14 6.19001 114.74Z" fill="#00BB85"/>
<path d="M17.012 133.313C10.112 133.313 4.51201 124.613 4.51201 114.013C4.51201 103.413 10.112 94.713 17.012 94.713C23.912 94.713 29.512 103.413 29.512 114.013C29.512 124.613 23.912 133.313 17.012 133.313ZM17.012 97.013C11.412 97.013 6.91201 104.613 6.91201 114.013C6.91201 123.413 11.512 131.013 17.012 131.013C22.512 131.013 27.112 123.413 27.112 114.013C27.112 104.613 22.612 97.013 17.012 97.013Z" fill="#683021"/>
<path d="M16.996 161.905C16.396 161.905 15.796 161.405 15.796 160.705V117.305C15.796 116.705 16.296 116.105 16.996 116.105C17.596 116.105 18.196 116.605 18.196 117.305V160.705C18.196 161.405 17.696 161.905 16.996 161.905Z" fill="#683021"/>
<path d="M17.023 124.64C16.723 124.64 16.423 124.54 16.223 124.34L11.823 119.94C11.423 119.44 11.423 118.74 11.823 118.34C12.223 117.94 13.023 117.94 13.423 118.34L17.823 122.74C18.323 123.14 18.323 123.94 17.823 124.34C17.623 124.54 17.323 124.64 17.023 124.64Z" fill="#683021"/>
<path d="M27.643 137.524C21.343 137.524 16.143 142.324 15.643 148.624C15.643 148.924 15.643 149.324 15.643 149.624C15.643 152.524 16.743 158.224 18.643 160.424H34.143C40.343 157.824 37.743 145.824 35.143 139.624C34.543 138.024 28.943 138.724 27.643 137.524Z" fill="#00BB85"/>
<path d="M32.531 161.911H22.731L22.531 161.811C21.931 161.511 21.331 161.311 20.831 160.911C16.831 158.511 14.431 154.211 14.431 149.611C14.431 149.211 14.431 148.811 14.531 148.511C15.131 141.211 21.631 135.811 28.831 136.511C36.131 137.111 41.531 143.611 40.831 150.811C40.431 155.711 37.331 159.911 32.731 161.811L32.531 161.911ZM23.231 159.611H32.031C37.531 157.211 40.031 150.711 37.631 145.211C35.231 139.711 28.731 137.211 23.231 139.611C19.531 141.211 17.031 144.711 16.731 148.711C16.731 149.011 16.731 149.311 16.731 149.611C16.731 153.411 18.731 157.011 22.031 159.011C22.431 159.211 22.831 159.411 23.231 159.611Z" fill="#683021"/>
<path d="M23.632 155.056C23.632 156.956 22.832 158.656 21.432 159.956C21.132 160.256 20.732 160.556 20.332 160.756H13.632C10.532 158.856 9.432 154.856 11.332 151.656C12.332 150.056 13.832 148.956 15.732 148.556C16.132 148.456 16.632 148.456 17.032 148.456C20.632 148.456 23.632 151.456 23.632 155.056Z" fill="#0BB76D"/>
<path d="M17.332 148.824C11.932 150.024 9.132 153.824 11.032 157.224C11.832 158.624 13.332 159.824 15.332 160.624H18.832C19.432 160.424 20.032 160.124 20.532 159.824C24.732 157.324 25.032 153.224 21.232 150.524C20.032 149.824 18.732 149.224 17.332 148.824Z" fill="#00BB85"/>
<path d="M20.72 161.943H13.32L13.02 161.743C9.32 159.543 8.12 154.743 10.32 151.043C11.42 149.143 13.32 147.843 15.42 147.443C15.92 147.343 16.42 147.243 17.02 147.243C21.32 147.243 24.82 150.743 24.82 155.043C24.82 157.243 23.92 159.343 22.32 160.743C21.92 161.143 21.52 161.443 21.02 161.643L20.72 161.943ZM14.02 159.643H20.12C20.32 159.543 20.52 159.343 20.72 159.143C22.92 157.143 23.12 153.643 21.12 151.443C20.12 150.343 18.62 149.643 17.12 149.643C16.72 149.643 16.42 149.643 16.02 149.743C13.52 150.243 11.62 152.543 11.62 155.143C11.52 156.843 12.42 158.643 14.02 159.643Z" fill="#683021"/>
<path d="M125.5 11.9H35.2V160.4H125.5V11.9Z" fill="white"/>
<path d="M38.35 11.966H35.35V161.966H38.35V11.966Z" fill="white"/>
<path d="M125.95 161.966H34.15V10.866H125.95V161.966ZM36.55 159.966H123.75V12.866H36.55V159.966V159.966Z" fill="#683021"/>
<path d="M34.692 129.993H125.492C126.992 129.993 128.192 131.193 128.192 132.693C128.192 134.193 126.992 135.393 125.492 135.393H34.692C33.192 135.393 31.992 134.193 31.992 132.693C31.992 131.193 33.192 129.993 34.692 129.993Z" fill="white"/>
<path d="M125.492 136.693H34.692C32.492 136.693 30.792 134.993 30.792 132.793C30.792 130.593 32.492 128.893 34.692 128.893H125.492C127.692 128.893 129.392 130.593 129.392 132.793C129.392 134.893 127.592 136.693 125.492 136.693ZM34.692 131.193C33.792 131.193 33.092 131.893 33.092 132.793C33.092 133.693 33.792 134.393 34.692 134.393H125.492C126.392 134.393 127.092 133.693 127.092 132.793C127.092 131.893 126.392 131.193 125.492 131.193H34.692Z" fill="#683021"/>
<path d="M29.116 6.49799H131.016C132.516 6.49799 133.716 7.69799 133.716 9.19799C133.716 10.698 132.516 11.898 131.016 11.898H29.116C27.616 11.898 26.416 10.698 26.416 9.19799C26.416 7.69799 27.616 6.49799 29.116 6.49799Z" fill="white"/>
<path d="M131.016 13.098H29.116C26.916 13.098 25.216 11.398 25.116 9.298C25.116 7.098 26.816 5.398 28.916 5.298H29.016H131.016C133.216 5.298 134.916 6.998 135.016 9.098C135.016 11.298 133.316 12.998 131.216 13.098C131.116 13.098 131.116 13.098 131.016 13.098ZM29.116 7.598C28.216 7.598 27.516 8.298 27.516 9.198C27.516 10.098 28.216 10.798 29.116 10.798H131.016C131.916 10.798 132.616 10.098 132.616 9.198C132.616 8.298 131.916 7.598 131.016 7.598H29.116V7.598Z" fill="#683021"/>
<path d="M67.246 1.2H92.946C95.746 1.2 98.046 3.5 98.046 6.3H62.146C62.146 3.4 64.446 1.2 67.246 1.2Z" fill="white"/>
<path d="M99.146 7.4H60.946V6.3C60.946 2.8 63.746 0 67.246 0H92.946C96.446 0 99.246 2.8 99.246 6.3L99.146 7.4ZM63.446 5.1H96.746C96.246 3.4 94.746 2.3 92.946 2.3H67.246C65.546 2.3 63.946 3.4 63.446 5.1Z" fill="#683021"/>
<path d="M66.404 143.885H93.804C95.504 143.885 96.804 145.285 96.804 146.885V160.685H63.304V146.885C63.304 145.285 64.704 143.885 66.404 143.885Z" fill="white"/>
<path d="M98.004 161.885H62.204V145.585C62.204 143.985 63.504 142.785 65.004 142.785H95.104C96.704 142.785 97.904 144.085 97.904 145.585L98.004 161.885ZM64.504 159.585H95.704V145.585C95.704 145.285 95.504 145.085 95.204 145.085H65.104C64.804 145.085 64.604 145.285 64.604 145.585L64.504 159.585Z" fill="#683021"/>
<path opacity="0.3" d="M60.2 19.2H44.6V26.5H60.2V19.2Z" fill="#00BB85"/>
<path opacity="0.3" d="M88.2 19.2H72.6V26.5H88.2V19.2Z" fill="#00BB85"/>
<path opacity="0.3" d="M115.2 19.2H99.6V26.5H115.2V19.2Z" fill="#FF8345"/>
<path opacity="0.3" d="M60.2 32.7H44.6V40H60.2V32.7Z" fill="#00BB85"/>
<path opacity="0.3" d="M88.2 32.7H72.6V40H88.2V32.7Z" fill="#FF8345"/>
<path opacity="0.3" d="M115.2 32.7H99.6V40H115.2V32.7Z" fill="#00BB85"/>
<path opacity="0.3" d="M96.5 144.8H64.3V160.4H96.5V144.8Z" fill="#00BB85"/>
<path opacity="0.3" d="M60.2 47.2H44.6V54.5H60.2V47.2Z" fill="#FF8345"/>
<path opacity="0.3" d="M88.2 47.2H72.6V54.5H88.2V47.2Z" fill="#00BB85"/>
<path opacity="0.3" d="M115.2 47.2H99.6V54.5H115.2V47.2Z" fill="#00BB85"/>
<path opacity="0.3" d="M60.2 60.7H44.6V68H60.2V60.7Z" fill="#00BB85"/>
<path opacity="0.3" d="M88.2 60.7H72.6V68H88.2V60.7Z" fill="#FF8345"/>
<path opacity="0.3" d="M115.2 60.7H99.6V68H115.2V60.7Z" fill="#00BB85"/>
<path opacity="0.3" d="M60.2 74.2H44.6V81.5H60.2V74.2Z" fill="#FF8345"/>
<path opacity="0.3" d="M88.2 74.2H72.6V81.5H88.2V74.2Z" fill="#FF8345"/>
<path opacity="0.3" d="M115.2 74.2H99.6V81.5H115.2V74.2Z" fill="#00BB85"/>
<path opacity="0.3" d="M60.2 87.7H44.6V95H60.2V87.7Z" fill="#00BB85"/>
<path opacity="0.3" d="M88.2 87.7H72.6V95H88.2V87.7Z" fill="#00BB85"/>
<path opacity="0.3" d="M115.2 87.7H99.6V95H115.2V87.7Z" fill="#FF8345"/>
<path opacity="0.3" d="M60.2 102.3H44.6V109.6H60.2V102.3Z" fill="#FF8345"/>
<path opacity="0.3" d="M88.2 102.3H72.6V109.6H88.2V102.3Z" fill="#00BB85"/>
<path opacity="0.3" d="M115.2 102.3H99.6V109.6H115.2V102.3Z" fill="#FF8345"/>
<path opacity="0.3" d="M60.2 116.8H44.6V124.1H60.2V116.8Z" fill="#00BB85"/>
<path opacity="0.3" d="M88.2 116.8H72.6V124.1H88.2V116.8Z" fill="#00BB85"/>
<path opacity="0.3" d="M115.2 116.8H99.6V124.1H115.2V116.8Z" fill="#00BB85"/>
<path d="M60.135 26.791H44.135V18.991H60.135V26.791V26.791ZM45.735 24.991H58.535V20.791H45.835V24.991H45.735Z" fill="#00BB85"/>
<path d="M88.208 26.791H71.908V18.991H88.208V26.791ZM73.508 24.991H86.508V20.791H73.508V24.991Z" fill="#00BB85"/>
<path d="M115.98 26.791H99.58V18.991H115.98V26.791ZM101.28 24.991H114.38V20.791H101.28V24.991Z" fill="#FF8345"/>
<path d="M60.135 40.556H44.135V32.756H60.135V40.556V40.556ZM45.735 38.756H58.535V34.556H45.835V38.756H45.735Z" fill="#00BB85"/>
<path d="M88.208 40.556H71.908V32.756H88.208V40.556ZM73.508 38.756H86.508V34.556H73.508V38.756Z" fill="#FF8345"/>
<path d="M115.98 40.556H99.58V32.756H115.98V40.556ZM101.28 34.556V38.756H114.38V34.556" fill="#00BB85"/>
<path d="M60.135 54.321H44.135V46.521H60.135V54.321V54.321ZM45.735 52.521H58.535V48.321H45.835V52.521H45.735Z" fill="#FF8345"/>
<path d="M88.208 54.321H71.908V46.521H88.208V54.321ZM73.508 52.521H86.508V48.321H73.508V52.521Z" fill="#00BB85"/>
<path d="M115.98 54.321H99.58V46.521H115.98V54.321ZM101.28 52.521H114.38V48.321H101.28V52.521Z" fill="#00BB85"/>
<path d="M60.135 68.087H44.135V60.287H60.135V68.087V68.087ZM45.735 66.287H58.535V62.087H45.835V66.287H45.735Z" fill="#00BB85"/>
<path d="M88.208 68.087H71.908V60.287H88.208V68.087ZM73.508 66.287H86.508V62.087H73.508V66.287Z" fill="#FF8345"/>
<path d="M115.98 68.087H99.58V60.287H115.98V68.087ZM101.28 66.287H114.38V62.087H101.28V66.287Z" fill="#00BB85"/>
<path d="M60.135 81.852H44.135V74.052H60.135V81.852V81.852ZM45.735 80.052H58.535V75.852H45.835V80.052H45.735Z" fill="#FF8345"/>
<path d="M88.208 81.852H71.908V74.052H88.208V81.852ZM73.508 80.052H86.508V75.852H73.508V80.052Z" fill="#FF8345"/>
<path d="M115.98 81.852H99.58V74.052H115.98V81.852ZM101.28 80.052H114.38V75.852H101.28V80.052Z" fill="#00BB85"/>
<path d="M60.135 95.617H44.135V87.817H60.135V95.617V95.617ZM45.735 93.817H58.535V89.617H45.835V93.817H45.735Z" fill="#00BB85"/>
<path d="M88.208 95.617H71.908V87.817H88.208V95.617ZM73.508 93.817H86.508V89.617H73.508V93.817Z" fill="#00BB85"/>
<path d="M115.98 95.617H99.58V87.817H115.98V95.617ZM101.28 93.817H114.38V89.617H101.28V93.817Z" fill="#FF8345"/>
<path d="M60.135 109.383H44.135V101.583H60.135V109.383V109.383ZM45.735 107.583H58.535V103.383H45.835V107.583H45.735Z" fill="#FF8345"/>
<path d="M88.208 109.383H71.908V101.583H88.208V109.383ZM73.508 107.583H86.508V103.383H73.508V107.583Z" fill="#00BB85"/>
<path d="M115.98 109.383H99.58V101.583H115.98V109.383ZM101.28 107.583H114.38V103.383H101.28V107.583Z" fill="#FF8345"/>
<path d="M60.135 123.948H44.135V116.148H60.135V123.948V123.948ZM45.735 122.148H58.535V117.948H45.835V122.148H45.735Z" fill="#00BB85"/>
<path d="M88.208 123.948H71.908V116.148H88.208V123.948ZM73.508 122.148H86.508V117.948H73.508V122.148Z" fill="#00BB85"/>
<path d="M115.98 123.948H99.58V116.148H115.98V123.948ZM101.28 122.148H114.38V117.948H101.28V122.148Z" fill="#00BB85"/>
<path d="M35.423 161.904H1.123C0.523005 161.904 -0.0769958 161.404 -0.0769958 160.704C-0.0769958 160.104 0.423005 159.504 1.123 159.504H35.423C36.023 159.504 36.623 160.004 36.623 160.704C36.623 161.404 36.023 161.904 35.423 161.904Z" fill="#683021"/>
<path d="M132.055 161.904H104.055C103.455 161.904 102.855 161.404 102.855 160.704C102.855 160.104 103.355 159.504 104.055 159.504H132.055C132.655 159.504 133.255 160.004 133.255 160.704C133.155 161.404 132.655 161.904 132.055 161.904Z" fill="#683021"/>
</svg>
