<svg 
 xmlns="http://www.w3.org/2000/svg"
 xmlns:xlink="http://www.w3.org/1999/xlink"
 width="150px" height="159px">
<path fill-rule="evenodd"  opacity="0.502" fill="rgb(56, 92, 107)"
 d="M148.047,148.625 C146.968,148.625 146.094,147.750 146.094,146.672 C146.094,145.593 146.968,144.719 148.047,144.719 C149.126,144.719 150.000,145.593 150.000,146.672 C150.000,147.750 149.126,148.625 148.047,148.625 ZM148.047,138.219 C146.968,138.219 146.094,137.351 146.094,136.281 C146.094,135.211 146.968,134.343 148.047,134.343 C149.126,134.343 150.000,135.211 150.000,136.281 C150.000,137.351 149.126,138.219 148.047,138.219 ZM148.047,127.843 C146.968,127.843 146.094,126.976 146.094,125.906 C146.094,124.836 146.968,123.969 148.047,123.969 C149.126,123.969 150.000,124.836 150.000,125.906 C150.000,126.976 149.126,127.843 148.047,127.843 ZM148.047,117.469 C146.968,117.469 146.094,116.594 146.094,115.515 C146.094,114.437 146.968,113.562 148.047,113.562 C149.126,113.562 150.000,114.437 150.000,115.515 C150.000,116.594 149.126,117.469 148.047,117.469 ZM148.047,107.094 C146.968,107.094 146.094,106.219 146.094,105.140 C146.094,104.062 146.968,103.187 148.047,103.187 C149.126,103.187 150.000,104.062 150.000,105.140 C150.000,106.219 149.126,107.094 148.047,107.094 ZM148.047,96.687 C146.968,96.687 146.094,95.820 146.094,94.750 C146.094,93.680 146.968,92.812 148.047,92.812 C149.126,92.812 150.000,93.680 150.000,94.750 C150.000,95.820 149.126,96.687 148.047,96.687 ZM148.047,86.312 C146.968,86.312 146.094,85.438 146.094,84.359 C146.094,83.280 146.968,82.406 148.047,82.406 C149.126,82.406 150.000,83.280 150.000,84.359 C150.000,85.438 149.126,86.312 148.047,86.312 ZM148.047,75.937 C146.968,75.937 146.094,75.063 146.094,73.984 C146.094,72.905 146.968,72.031 148.047,72.031 C149.126,72.031 150.000,72.905 150.000,73.984 C150.000,75.063 149.126,75.937 148.047,75.937 ZM148.047,65.531 C146.968,65.531 146.094,64.664 146.094,63.593 C146.094,62.524 146.968,61.656 148.047,61.656 C149.126,61.656 150.000,62.524 150.000,63.593 C150.000,64.664 149.126,65.531 148.047,65.531 ZM148.047,55.812 C146.968,55.812 146.094,54.938 146.094,53.859 C146.094,52.781 146.968,51.906 148.047,51.906 C149.126,51.906 150.000,52.781 150.000,53.859 C150.000,54.938 149.126,55.812 148.047,55.812 ZM148.047,45.437 C146.968,45.437 146.094,44.563 146.094,43.484 C146.094,42.406 146.968,41.531 148.047,41.531 C149.126,41.531 150.000,42.406 150.000,43.484 C150.000,44.563 149.126,45.437 148.047,45.437 ZM148.047,35.031 C146.968,35.031 146.094,34.164 146.094,33.094 C146.094,32.023 146.968,31.156 148.047,31.156 C149.126,31.156 150.000,32.023 150.000,33.094 C150.000,34.164 149.126,35.031 148.047,35.031 ZM148.047,24.656 C146.968,24.656 146.094,23.789 146.094,22.718 C146.094,21.649 146.968,20.781 148.047,20.781 C149.126,20.781 150.000,21.649 150.000,22.718 C150.000,23.789 149.126,24.656 148.047,24.656 ZM148.047,14.281 C146.968,14.281 146.094,13.407 146.094,12.328 C146.094,11.249 146.968,10.375 148.047,10.375 C149.126,10.375 150.000,11.249 150.000,12.328 C150.000,13.407 149.126,14.281 148.047,14.281 ZM148.047,3.906 C146.968,3.906 146.094,3.032 146.094,1.953 C146.094,0.874 146.968,-0.000 148.047,-0.000 C149.126,-0.000 150.000,0.874 150.000,1.953 C150.000,3.032 149.126,3.906 148.047,3.906 ZM137.609,159.000 C136.531,159.000 135.656,158.125 135.656,157.047 C135.656,155.968 136.531,155.094 137.609,155.094 C138.688,155.094 139.562,155.968 139.562,157.047 C139.562,158.125 138.688,159.000 137.609,159.000 ZM137.609,148.625 C136.531,148.625 135.656,147.750 135.656,146.672 C135.656,145.593 136.531,144.719 137.609,144.719 C138.688,144.719 139.562,145.593 139.562,146.672 C139.562,147.750 138.688,148.625 137.609,148.625 ZM137.609,138.219 C136.531,138.219 135.656,137.351 135.656,136.281 C135.656,135.211 136.531,134.343 137.609,134.343 C138.688,134.343 139.562,135.211 139.562,136.281 C139.562,137.351 138.688,138.219 137.609,138.219 ZM137.609,127.843 C136.531,127.843 135.656,126.976 135.656,125.906 C135.656,124.836 136.531,123.969 137.609,123.969 C138.688,123.969 139.562,124.836 139.562,125.906 C139.562,126.976 138.688,127.843 137.609,127.843 ZM137.609,117.469 C136.531,117.469 135.656,116.594 135.656,115.515 C135.656,114.437 136.531,113.562 137.609,113.562 C138.688,113.562 139.562,114.437 139.562,115.515 C139.562,116.594 138.688,117.469 137.609,117.469 ZM137.609,107.094 C136.531,107.094 135.656,106.219 135.656,105.140 C135.656,104.062 136.531,103.187 137.609,103.187 C138.688,103.187 139.562,104.062 139.562,105.140 C139.562,106.219 138.688,107.094 137.609,107.094 ZM137.609,96.687 C136.531,96.687 135.656,95.820 135.656,94.750 C135.656,93.680 136.531,92.812 137.609,92.812 C138.688,92.812 139.562,93.680 139.562,94.750 C139.562,95.820 138.688,96.687 137.609,96.687 ZM137.609,86.312 C136.531,86.312 135.656,85.438 135.656,84.359 C135.656,83.280 136.531,82.406 137.609,82.406 C138.688,82.406 139.562,83.280 139.562,84.359 C139.562,85.438 138.688,86.312 137.609,86.312 ZM137.609,75.937 C136.531,75.937 135.656,75.063 135.656,73.984 C135.656,72.905 136.531,72.031 137.609,72.031 C138.688,72.031 139.562,72.905 139.562,73.984 C139.562,75.063 138.688,75.937 137.609,75.937 ZM137.609,65.531 C136.531,65.531 135.656,64.664 135.656,63.593 C135.656,62.524 136.531,61.656 137.609,61.656 C138.688,61.656 139.562,62.524 139.562,63.593 C139.562,64.664 138.688,65.531 137.609,65.531 ZM137.609,55.812 C136.531,55.812 135.656,54.938 135.656,53.859 C135.656,52.781 136.531,51.906 137.609,51.906 C138.688,51.906 139.562,52.781 139.562,53.859 C139.562,54.938 138.688,55.812 137.609,55.812 ZM137.609,45.437 C136.531,45.437 135.656,44.563 135.656,43.484 C135.656,42.406 136.531,41.531 137.609,41.531 C138.688,41.531 139.562,42.406 139.562,43.484 C139.562,44.563 138.688,45.437 137.609,45.437 ZM137.609,35.031 C136.531,35.031 135.656,34.164 135.656,33.094 C135.656,32.023 136.531,31.156 137.609,31.156 C138.688,31.156 139.562,32.023 139.562,33.094 C139.562,34.164 138.688,35.031 137.609,35.031 ZM137.609,24.656 C136.531,24.656 135.656,23.789 135.656,22.718 C135.656,21.649 136.531,20.781 137.609,20.781 C138.688,20.781 139.562,21.649 139.562,22.718 C139.562,23.789 138.688,24.656 137.609,24.656 ZM137.609,14.281 C136.531,14.281 135.656,13.407 135.656,12.328 C135.656,11.249 136.531,10.375 137.609,10.375 C138.688,10.375 139.562,11.249 139.562,12.328 C139.562,13.407 138.688,14.281 137.609,14.281 ZM137.609,3.906 C136.531,3.906 135.656,3.032 135.656,1.953 C135.656,0.874 136.531,-0.000 137.609,-0.000 C138.688,-0.000 139.562,0.874 139.562,1.953 C139.562,3.032 138.688,3.906 137.609,3.906 ZM127.172,159.000 C126.093,159.000 125.219,158.125 125.219,157.047 C125.219,155.968 126.093,155.094 127.172,155.094 C128.250,155.094 129.125,155.968 129.125,157.047 C129.125,158.125 128.250,159.000 127.172,159.000 ZM127.172,148.625 C126.093,148.625 125.219,147.750 125.219,146.672 C125.219,145.593 126.093,144.719 127.172,144.719 C128.250,144.719 129.125,145.593 129.125,146.672 C129.125,147.750 128.250,148.625 127.172,148.625 ZM127.172,138.219 C126.093,138.219 125.219,137.351 125.219,136.281 C125.219,135.211 126.093,134.343 127.172,134.343 C128.250,134.343 129.125,135.211 129.125,136.281 C129.125,137.351 128.250,138.219 127.172,138.219 ZM127.172,127.843 C126.093,127.843 125.219,126.976 125.219,125.906 C125.219,124.836 126.093,123.969 127.172,123.969 C128.250,123.969 129.125,124.836 129.125,125.906 C129.125,126.976 128.250,127.843 127.172,127.843 ZM127.172,117.469 C126.093,117.469 125.219,116.594 125.219,115.515 C125.219,114.437 126.093,113.562 127.172,113.562 C128.250,113.562 129.125,114.437 129.125,115.515 C129.125,116.594 128.250,117.469 127.172,117.469 ZM127.172,107.094 C126.093,107.094 125.219,106.219 125.219,105.140 C125.219,104.062 126.093,103.187 127.172,103.187 C128.250,103.187 129.125,104.062 129.125,105.140 C129.125,106.219 128.250,107.094 127.172,107.094 ZM127.172,96.687 C126.093,96.687 125.219,95.820 125.219,94.750 C125.219,93.680 126.093,92.812 127.172,92.812 C128.250,92.812 129.125,93.680 129.125,94.750 C129.125,95.820 128.250,96.687 127.172,96.687 ZM127.172,86.312 C126.093,86.312 125.219,85.438 125.219,84.359 C125.219,83.280 126.093,82.406 127.172,82.406 C128.250,82.406 129.125,83.280 129.125,84.359 C129.125,85.438 128.250,86.312 127.172,86.312 ZM127.172,75.937 C126.093,75.937 125.219,75.063 125.219,73.984 C125.219,72.905 126.093,72.031 127.172,72.031 C128.250,72.031 129.125,72.905 129.125,73.984 C129.125,75.063 128.250,75.937 127.172,75.937 ZM127.172,65.531 C126.093,65.531 125.219,64.664 125.219,63.593 C125.219,62.524 126.093,61.656 127.172,61.656 C128.250,61.656 129.125,62.524 129.125,63.593 C129.125,64.664 128.250,65.531 127.172,65.531 ZM127.172,55.812 C126.093,55.812 125.219,54.938 125.219,53.859 C125.219,52.781 126.093,51.906 127.172,51.906 C128.250,51.906 129.125,52.781 129.125,53.859 C129.125,54.938 128.250,55.812 127.172,55.812 ZM127.172,45.437 C126.093,45.437 125.219,44.563 125.219,43.484 C125.219,42.406 126.093,41.531 127.172,41.531 C128.250,41.531 129.125,42.406 129.125,43.484 C129.125,44.563 128.250,45.437 127.172,45.437 ZM127.172,35.031 C126.093,35.031 125.219,34.164 125.219,33.094 C125.219,32.023 126.093,31.156 127.172,31.156 C128.250,31.156 129.125,32.023 129.125,33.094 C129.125,34.164 128.250,35.031 127.172,35.031 ZM127.172,24.656 C126.093,24.656 125.219,23.789 125.219,22.718 C125.219,21.649 126.093,20.781 127.172,20.781 C128.250,20.781 129.125,21.649 129.125,22.718 C129.125,23.789 128.250,24.656 127.172,24.656 ZM127.172,14.281 C126.093,14.281 125.219,13.407 125.219,12.328 C125.219,11.249 126.093,10.375 127.172,10.375 C128.250,10.375 129.125,11.249 129.125,12.328 C129.125,13.407 128.250,14.281 127.172,14.281 ZM127.172,3.906 C126.093,3.906 125.219,3.032 125.219,1.953 C125.219,0.874 126.093,-0.000 127.172,-0.000 C128.250,-0.000 129.125,0.874 129.125,1.953 C129.125,3.032 128.250,3.906 127.172,3.906 ZM116.734,159.000 C115.656,159.000 114.781,158.125 114.781,157.047 C114.781,155.968 115.656,155.094 116.734,155.094 C117.813,155.094 118.687,155.968 118.687,157.047 C118.687,158.125 117.813,159.000 116.734,159.000 ZM116.734,148.625 C115.656,148.625 114.781,147.750 114.781,146.672 C114.781,145.593 115.656,144.719 116.734,144.719 C117.813,144.719 118.687,145.593 118.687,146.672 C118.687,147.750 117.813,148.625 116.734,148.625 ZM116.734,138.219 C115.656,138.219 114.781,137.351 114.781,136.281 C114.781,135.211 115.656,134.343 116.734,134.343 C117.813,134.343 118.687,135.211 118.687,136.281 C118.687,137.351 117.813,138.219 116.734,138.219 ZM116.734,127.843 C115.656,127.843 114.781,126.976 114.781,125.906 C114.781,124.836 115.656,123.969 116.734,123.969 C117.813,123.969 118.687,124.836 118.687,125.906 C118.687,126.976 117.813,127.843 116.734,127.843 ZM116.734,117.469 C115.656,117.469 114.781,116.594 114.781,115.515 C114.781,114.437 115.656,113.562 116.734,113.562 C117.813,113.562 118.687,114.437 118.687,115.515 C118.687,116.594 117.813,117.469 116.734,117.469 ZM116.734,107.094 C115.656,107.094 114.781,106.219 114.781,105.140 C114.781,104.062 115.656,103.187 116.734,103.187 C117.813,103.187 118.687,104.062 118.687,105.140 C118.687,106.219 117.813,107.094 116.734,107.094 ZM116.734,96.687 C115.656,96.687 114.781,95.820 114.781,94.750 C114.781,93.680 115.656,92.812 116.734,92.812 C117.813,92.812 118.687,93.680 118.687,94.750 C118.687,95.820 117.813,96.687 116.734,96.687 ZM116.734,86.312 C115.656,86.312 114.781,85.438 114.781,84.359 C114.781,83.280 115.656,82.406 116.734,82.406 C117.813,82.406 118.687,83.280 118.687,84.359 C118.687,85.438 117.813,86.312 116.734,86.312 ZM116.734,75.937 C115.656,75.937 114.781,75.063 114.781,73.984 C114.781,72.905 115.656,72.031 116.734,72.031 C117.813,72.031 118.687,72.905 118.687,73.984 C118.687,75.063 117.813,75.937 116.734,75.937 ZM116.734,65.531 C115.656,65.531 114.781,64.664 114.781,63.593 C114.781,62.524 115.656,61.656 116.734,61.656 C117.813,61.656 118.687,62.524 118.687,63.593 C118.687,64.664 117.813,65.531 116.734,65.531 ZM116.734,55.812 C115.656,55.812 114.781,54.938 114.781,53.859 C114.781,52.781 115.656,51.906 116.734,51.906 C117.813,51.906 118.687,52.781 118.687,53.859 C118.687,54.938 117.813,55.812 116.734,55.812 ZM116.734,45.437 C115.656,45.437 114.781,44.563 114.781,43.484 C114.781,42.406 115.656,41.531 116.734,41.531 C117.813,41.531 118.687,42.406 118.687,43.484 C118.687,44.563 117.813,45.437 116.734,45.437 ZM116.734,35.031 C115.656,35.031 114.781,34.164 114.781,33.094 C114.781,32.023 115.656,31.156 116.734,31.156 C117.813,31.156 118.687,32.023 118.687,33.094 C118.687,34.164 117.813,35.031 116.734,35.031 ZM116.734,24.656 C115.656,24.656 114.781,23.789 114.781,22.718 C114.781,21.649 115.656,20.781 116.734,20.781 C117.813,20.781 118.687,21.649 118.687,22.718 C118.687,23.789 117.813,24.656 116.734,24.656 ZM116.734,14.281 C115.656,14.281 114.781,13.407 114.781,12.328 C114.781,11.249 115.656,10.375 116.734,10.375 C117.813,10.375 118.687,11.249 118.687,12.328 C118.687,13.407 117.813,14.281 116.734,14.281 ZM116.734,3.906 C115.656,3.906 114.781,3.032 114.781,1.953 C114.781,0.874 115.656,-0.000 116.734,-0.000 C117.813,-0.000 118.687,0.874 118.687,1.953 C118.687,3.032 117.813,3.906 116.734,3.906 ZM106.297,159.000 C105.218,159.000 104.344,158.125 104.344,157.047 C104.344,155.968 105.218,155.094 106.297,155.094 C107.376,155.094 108.250,155.968 108.250,157.047 C108.250,158.125 107.376,159.000 106.297,159.000 ZM106.297,148.625 C105.218,148.625 104.344,147.750 104.344,146.672 C104.344,145.593 105.218,144.719 106.297,144.719 C107.376,144.719 108.250,145.593 108.250,146.672 C108.250,147.750 107.376,148.625 106.297,148.625 ZM106.297,138.219 C105.218,138.219 104.344,137.351 104.344,136.281 C104.344,135.211 105.218,134.343 106.297,134.343 C107.376,134.343 108.250,135.211 108.250,136.281 C108.250,137.351 107.376,138.219 106.297,138.219 ZM106.297,127.843 C105.218,127.843 104.344,126.976 104.344,125.906 C104.344,124.836 105.218,123.969 106.297,123.969 C107.376,123.969 108.250,124.836 108.250,125.906 C108.250,126.976 107.376,127.843 106.297,127.843 ZM106.297,117.469 C105.218,117.469 104.344,116.594 104.344,115.515 C104.344,114.437 105.218,113.562 106.297,113.562 C107.376,113.562 108.250,114.437 108.250,115.515 C108.250,116.594 107.376,117.469 106.297,117.469 ZM106.297,107.094 C105.218,107.094 104.344,106.219 104.344,105.140 C104.344,104.062 105.218,103.187 106.297,103.187 C107.376,103.187 108.250,104.062 108.250,105.140 C108.250,106.219 107.376,107.094 106.297,107.094 ZM106.297,96.687 C105.218,96.687 104.344,95.820 104.344,94.750 C104.344,93.680 105.218,92.812 106.297,92.812 C107.376,92.812 108.250,93.680 108.250,94.750 C108.250,95.820 107.376,96.687 106.297,96.687 ZM106.297,86.312 C105.218,86.312 104.344,85.438 104.344,84.359 C104.344,83.280 105.218,82.406 106.297,82.406 C107.376,82.406 108.250,83.280 108.250,84.359 C108.250,85.438 107.376,86.312 106.297,86.312 ZM106.297,75.937 C105.218,75.937 104.344,75.063 104.344,73.984 C104.344,72.905 105.218,72.031 106.297,72.031 C107.376,72.031 108.250,72.905 108.250,73.984 C108.250,75.063 107.376,75.937 106.297,75.937 ZM106.297,65.531 C105.218,65.531 104.344,64.664 104.344,63.593 C104.344,62.524 105.218,61.656 106.297,61.656 C107.376,61.656 108.250,62.524 108.250,63.593 C108.250,64.664 107.376,65.531 106.297,65.531 ZM106.297,55.812 C105.218,55.812 104.344,54.938 104.344,53.859 C104.344,52.781 105.218,51.906 106.297,51.906 C107.376,51.906 108.250,52.781 108.250,53.859 C108.250,54.938 107.376,55.812 106.297,55.812 ZM106.297,45.437 C105.218,45.437 104.344,44.563 104.344,43.484 C104.344,42.406 105.218,41.531 106.297,41.531 C107.376,41.531 108.250,42.406 108.250,43.484 C108.250,44.563 107.376,45.437 106.297,45.437 ZM106.297,35.031 C105.218,35.031 104.344,34.164 104.344,33.094 C104.344,32.023 105.218,31.156 106.297,31.156 C107.376,31.156 108.250,32.023 108.250,33.094 C108.250,34.164 107.376,35.031 106.297,35.031 ZM106.297,24.656 C105.218,24.656 104.344,23.789 104.344,22.718 C104.344,21.649 105.218,20.781 106.297,20.781 C107.376,20.781 108.250,21.649 108.250,22.718 C108.250,23.789 107.376,24.656 106.297,24.656 ZM106.297,14.281 C105.218,14.281 104.344,13.407 104.344,12.328 C104.344,11.249 105.218,10.375 106.297,10.375 C107.376,10.375 108.250,11.249 108.250,12.328 C108.250,13.407 107.376,14.281 106.297,14.281 ZM106.297,3.906 C105.218,3.906 104.344,3.032 104.344,1.953 C104.344,0.874 105.218,-0.000 106.297,-0.000 C107.376,-0.000 108.250,0.874 108.250,1.953 C108.250,3.032 107.376,3.906 106.297,3.906 ZM95.859,159.000 C94.781,159.000 93.906,158.125 93.906,157.047 C93.906,155.968 94.781,155.094 95.859,155.094 C96.938,155.094 97.812,155.968 97.812,157.047 C97.812,158.125 96.938,159.000 95.859,159.000 ZM95.859,148.625 C94.781,148.625 93.906,147.750 93.906,146.672 C93.906,145.593 94.781,144.719 95.859,144.719 C96.938,144.719 97.812,145.593 97.812,146.672 C97.812,147.750 96.938,148.625 95.859,148.625 ZM95.859,138.219 C94.781,138.219 93.906,137.351 93.906,136.281 C93.906,135.211 94.781,134.343 95.859,134.343 C96.938,134.343 97.812,135.211 97.812,136.281 C97.812,137.351 96.938,138.219 95.859,138.219 ZM95.859,127.843 C94.781,127.843 93.906,126.976 93.906,125.906 C93.906,124.836 94.781,123.969 95.859,123.969 C96.938,123.969 97.812,124.836 97.812,125.906 C97.812,126.976 96.938,127.843 95.859,127.843 ZM95.859,117.469 C94.781,117.469 93.906,116.594 93.906,115.515 C93.906,114.437 94.781,113.562 95.859,113.562 C96.938,113.562 97.812,114.437 97.812,115.515 C97.812,116.594 96.938,117.469 95.859,117.469 ZM95.859,107.094 C94.781,107.094 93.906,106.219 93.906,105.140 C93.906,104.062 94.781,103.187 95.859,103.187 C96.938,103.187 97.812,104.062 97.812,105.140 C97.812,106.219 96.938,107.094 95.859,107.094 ZM95.859,96.687 C94.781,96.687 93.906,95.820 93.906,94.750 C93.906,93.680 94.781,92.812 95.859,92.812 C96.938,92.812 97.812,93.680 97.812,94.750 C97.812,95.820 96.938,96.687 95.859,96.687 ZM95.859,86.312 C94.781,86.312 93.906,85.438 93.906,84.359 C93.906,83.280 94.781,82.406 95.859,82.406 C96.938,82.406 97.812,83.280 97.812,84.359 C97.812,85.438 96.938,86.312 95.859,86.312 ZM95.859,75.937 C94.781,75.937 93.906,75.063 93.906,73.984 C93.906,72.905 94.781,72.031 95.859,72.031 C96.938,72.031 97.812,72.905 97.812,73.984 C97.812,75.063 96.938,75.937 95.859,75.937 ZM95.859,65.531 C94.781,65.531 93.906,64.664 93.906,63.593 C93.906,62.524 94.781,61.656 95.859,61.656 C96.938,61.656 97.812,62.524 97.812,63.593 C97.812,64.664 96.938,65.531 95.859,65.531 ZM95.859,55.812 C94.781,55.812 93.906,54.938 93.906,53.859 C93.906,52.781 94.781,51.906 95.859,51.906 C96.938,51.906 97.812,52.781 97.812,53.859 C97.812,54.938 96.938,55.812 95.859,55.812 ZM95.859,45.437 C94.781,45.437 93.906,44.563 93.906,43.484 C93.906,42.406 94.781,41.531 95.859,41.531 C96.938,41.531 97.812,42.406 97.812,43.484 C97.812,44.563 96.938,45.437 95.859,45.437 ZM95.859,35.031 C94.781,35.031 93.906,34.164 93.906,33.094 C93.906,32.023 94.781,31.156 95.859,31.156 C96.938,31.156 97.812,32.023 97.812,33.094 C97.812,34.164 96.938,35.031 95.859,35.031 ZM95.859,24.656 C94.781,24.656 93.906,23.789 93.906,22.718 C93.906,21.649 94.781,20.781 95.859,20.781 C96.938,20.781 97.812,21.649 97.812,22.718 C97.812,23.789 96.938,24.656 95.859,24.656 ZM95.859,14.281 C94.781,14.281 93.906,13.407 93.906,12.328 C93.906,11.249 94.781,10.375 95.859,10.375 C96.938,10.375 97.812,11.249 97.812,12.328 C97.812,13.407 96.938,14.281 95.859,14.281 ZM95.859,3.906 C94.781,3.906 93.906,3.032 93.906,1.953 C93.906,0.874 94.781,-0.000 95.859,-0.000 C96.938,-0.000 97.812,0.874 97.812,1.953 C97.812,3.032 96.938,3.906 95.859,3.906 ZM85.437,159.000 C84.350,159.000 83.469,158.125 83.469,157.047 C83.469,155.968 84.350,155.094 85.437,155.094 C86.525,155.094 87.406,155.968 87.406,157.047 C87.406,158.125 86.525,159.000 85.437,159.000 ZM85.437,148.625 C84.350,148.625 83.469,147.750 83.469,146.672 C83.469,145.593 84.350,144.719 85.437,144.719 C86.525,144.719 87.406,145.593 87.406,146.672 C87.406,147.750 86.525,148.625 85.437,148.625 ZM85.437,138.219 C84.350,138.219 83.469,137.351 83.469,136.281 C83.469,135.211 84.350,134.343 85.437,134.343 C86.525,134.343 87.406,135.211 87.406,136.281 C87.406,137.351 86.525,138.219 85.437,138.219 ZM85.437,127.843 C84.350,127.843 83.469,126.976 83.469,125.906 C83.469,124.836 84.350,123.969 85.437,123.969 C86.525,123.969 87.406,124.836 87.406,125.906 C87.406,126.976 86.525,127.843 85.437,127.843 ZM85.437,117.469 C84.350,117.469 83.469,116.594 83.469,115.515 C83.469,114.437 84.350,113.562 85.437,113.562 C86.525,113.562 87.406,114.437 87.406,115.515 C87.406,116.594 86.525,117.469 85.437,117.469 ZM85.437,107.094 C84.350,107.094 83.469,106.219 83.469,105.140 C83.469,104.062 84.350,103.187 85.437,103.187 C86.525,103.187 87.406,104.062 87.406,105.140 C87.406,106.219 86.525,107.094 85.437,107.094 ZM85.437,96.687 C84.350,96.687 83.469,95.820 83.469,94.750 C83.469,93.680 84.350,92.812 85.437,92.812 C86.525,92.812 87.406,93.680 87.406,94.750 C87.406,95.820 86.525,96.687 85.437,96.687 ZM85.437,86.312 C84.350,86.312 83.469,85.438 83.469,84.359 C83.469,83.280 84.350,82.406 85.437,82.406 C86.525,82.406 87.406,83.280 87.406,84.359 C87.406,85.438 86.525,86.312 85.437,86.312 ZM85.437,75.937 C84.350,75.937 83.469,75.063 83.469,73.984 C83.469,72.905 84.350,72.031 85.437,72.031 C86.525,72.031 87.406,72.905 87.406,73.984 C87.406,75.063 86.525,75.937 85.437,75.937 ZM85.437,65.531 C84.350,65.531 83.469,64.664 83.469,63.593 C83.469,62.524 84.350,61.656 85.437,61.656 C86.525,61.656 87.406,62.524 87.406,63.593 C87.406,64.664 86.525,65.531 85.437,65.531 ZM85.437,55.812 C84.350,55.812 83.469,54.938 83.469,53.859 C83.469,52.781 84.350,51.906 85.437,51.906 C86.525,51.906 87.406,52.781 87.406,53.859 C87.406,54.938 86.525,55.812 85.437,55.812 ZM85.437,45.437 C84.350,45.437 83.469,44.563 83.469,43.484 C83.469,42.406 84.350,41.531 85.437,41.531 C86.525,41.531 87.406,42.406 87.406,43.484 C87.406,44.563 86.525,45.437 85.437,45.437 ZM85.437,35.031 C84.350,35.031 83.469,34.164 83.469,33.094 C83.469,32.023 84.350,31.156 85.437,31.156 C86.525,31.156 87.406,32.023 87.406,33.094 C87.406,34.164 86.525,35.031 85.437,35.031 ZM85.437,24.656 C84.350,24.656 83.469,23.789 83.469,22.718 C83.469,21.649 84.350,20.781 85.437,20.781 C86.525,20.781 87.406,21.649 87.406,22.718 C87.406,23.789 86.525,24.656 85.437,24.656 ZM85.437,14.281 C84.350,14.281 83.469,13.407 83.469,12.328 C83.469,11.249 84.350,10.375 85.437,10.375 C86.525,10.375 87.406,11.249 87.406,12.328 C87.406,13.407 86.525,14.281 85.437,14.281 ZM85.437,3.906 C84.350,3.906 83.469,3.032 83.469,1.953 C83.469,0.874 84.350,-0.000 85.437,-0.000 C86.525,-0.000 87.406,0.874 87.406,1.953 C87.406,3.032 86.525,3.906 85.437,3.906 ZM75.000,159.000 C73.913,159.000 73.031,158.125 73.031,157.047 C73.031,155.968 73.913,155.094 75.000,155.094 C76.087,155.094 76.969,155.968 76.969,157.047 C76.969,158.125 76.087,159.000 75.000,159.000 ZM75.000,148.625 C73.913,148.625 73.031,147.750 73.031,146.672 C73.031,145.593 73.913,144.719 75.000,144.719 C76.087,144.719 76.969,145.593 76.969,146.672 C76.969,147.750 76.087,148.625 75.000,148.625 ZM75.000,138.219 C73.913,138.219 73.031,137.351 73.031,136.281 C73.031,135.211 73.913,134.343 75.000,134.343 C76.087,134.343 76.969,135.211 76.969,136.281 C76.969,137.351 76.087,138.219 75.000,138.219 ZM75.000,127.843 C73.913,127.843 73.031,126.976 73.031,125.906 C73.031,124.836 73.913,123.969 75.000,123.969 C76.087,123.969 76.969,124.836 76.969,125.906 C76.969,126.976 76.087,127.843 75.000,127.843 ZM75.000,117.469 C73.913,117.469 73.031,116.594 73.031,115.515 C73.031,114.437 73.913,113.562 75.000,113.562 C76.087,113.562 76.969,114.437 76.969,115.515 C76.969,116.594 76.087,117.469 75.000,117.469 ZM75.000,107.094 C73.913,107.094 73.031,106.219 73.031,105.140 C73.031,104.062 73.913,103.187 75.000,103.187 C76.087,103.187 76.969,104.062 76.969,105.140 C76.969,106.219 76.087,107.094 75.000,107.094 ZM75.000,96.687 C73.913,96.687 73.031,95.820 73.031,94.750 C73.031,93.680 73.913,92.812 75.000,92.812 C76.087,92.812 76.969,93.680 76.969,94.750 C76.969,95.820 76.087,96.687 75.000,96.687 ZM75.000,86.312 C73.913,86.312 73.031,85.438 73.031,84.359 C73.031,83.280 73.913,82.406 75.000,82.406 C76.087,82.406 76.969,83.280 76.969,84.359 C76.969,85.438 76.087,86.312 75.000,86.312 ZM75.000,75.937 C73.913,75.937 73.031,75.063 73.031,73.984 C73.031,72.905 73.913,72.031 75.000,72.031 C76.087,72.031 76.969,72.905 76.969,73.984 C76.969,75.063 76.087,75.937 75.000,75.937 ZM75.000,65.531 C73.913,65.531 73.031,64.664 73.031,63.593 C73.031,62.524 73.913,61.656 75.000,61.656 C76.087,61.656 76.969,62.524 76.969,63.593 C76.969,64.664 76.087,65.531 75.000,65.531 ZM75.000,55.812 C73.913,55.812 73.031,54.938 73.031,53.859 C73.031,52.781 73.913,51.906 75.000,51.906 C76.087,51.906 76.969,52.781 76.969,53.859 C76.969,54.938 76.087,55.812 75.000,55.812 ZM75.000,45.437 C73.913,45.437 73.031,44.563 73.031,43.484 C73.031,42.406 73.913,41.531 75.000,41.531 C76.087,41.531 76.969,42.406 76.969,43.484 C76.969,44.563 76.087,45.437 75.000,45.437 ZM75.000,35.031 C73.913,35.031 73.031,34.164 73.031,33.094 C73.031,32.023 73.913,31.156 75.000,31.156 C76.087,31.156 76.969,32.023 76.969,33.094 C76.969,34.164 76.087,35.031 75.000,35.031 ZM75.000,24.656 C73.913,24.656 73.031,23.789 73.031,22.718 C73.031,21.649 73.913,20.781 75.000,20.781 C76.087,20.781 76.969,21.649 76.969,22.718 C76.969,23.789 76.087,24.656 75.000,24.656 ZM75.000,14.281 C73.913,14.281 73.031,13.407 73.031,12.328 C73.031,11.249 73.913,10.375 75.000,10.375 C76.087,10.375 76.969,11.249 76.969,12.328 C76.969,13.407 76.087,14.281 75.000,14.281 ZM75.000,3.906 C73.913,3.906 73.031,3.032 73.031,1.953 C73.031,0.874 73.913,-0.000 75.000,-0.000 C76.087,-0.000 76.969,0.874 76.969,1.953 C76.969,3.032 76.087,3.906 75.000,3.906 ZM64.562,159.000 C63.475,159.000 62.594,158.125 62.594,157.047 C62.594,155.968 63.475,155.094 64.562,155.094 C65.650,155.094 66.531,155.968 66.531,157.047 C66.531,158.125 65.650,159.000 64.562,159.000 ZM64.562,148.625 C63.475,148.625 62.594,147.750 62.594,146.672 C62.594,145.593 63.475,144.719 64.562,144.719 C65.650,144.719 66.531,145.593 66.531,146.672 C66.531,147.750 65.650,148.625 64.562,148.625 ZM64.562,138.219 C63.475,138.219 62.594,137.351 62.594,136.281 C62.594,135.211 63.475,134.343 64.562,134.343 C65.650,134.343 66.531,135.211 66.531,136.281 C66.531,137.351 65.650,138.219 64.562,138.219 ZM64.562,127.843 C63.475,127.843 62.594,126.976 62.594,125.906 C62.594,124.836 63.475,123.969 64.562,123.969 C65.650,123.969 66.531,124.836 66.531,125.906 C66.531,126.976 65.650,127.843 64.562,127.843 ZM64.562,117.469 C63.475,117.469 62.594,116.594 62.594,115.515 C62.594,114.437 63.475,113.562 64.562,113.562 C65.650,113.562 66.531,114.437 66.531,115.515 C66.531,116.594 65.650,117.469 64.562,117.469 ZM64.562,107.094 C63.475,107.094 62.594,106.219 62.594,105.140 C62.594,104.062 63.475,103.187 64.562,103.187 C65.650,103.187 66.531,104.062 66.531,105.140 C66.531,106.219 65.650,107.094 64.562,107.094 ZM64.562,96.687 C63.475,96.687 62.594,95.820 62.594,94.750 C62.594,93.680 63.475,92.812 64.562,92.812 C65.650,92.812 66.531,93.680 66.531,94.750 C66.531,95.820 65.650,96.687 64.562,96.687 ZM64.562,86.312 C63.475,86.312 62.594,85.438 62.594,84.359 C62.594,83.280 63.475,82.406 64.562,82.406 C65.650,82.406 66.531,83.280 66.531,84.359 C66.531,85.438 65.650,86.312 64.562,86.312 ZM64.562,75.937 C63.475,75.937 62.594,75.063 62.594,73.984 C62.594,72.905 63.475,72.031 64.562,72.031 C65.650,72.031 66.531,72.905 66.531,73.984 C66.531,75.063 65.650,75.937 64.562,75.937 ZM64.562,65.531 C63.475,65.531 62.594,64.664 62.594,63.593 C62.594,62.524 63.475,61.656 64.562,61.656 C65.650,61.656 66.531,62.524 66.531,63.593 C66.531,64.664 65.650,65.531 64.562,65.531 ZM64.562,55.812 C63.475,55.812 62.594,54.938 62.594,53.859 C62.594,52.781 63.475,51.906 64.562,51.906 C65.650,51.906 66.531,52.781 66.531,53.859 C66.531,54.938 65.650,55.812 64.562,55.812 ZM64.562,45.437 C63.475,45.437 62.594,44.563 62.594,43.484 C62.594,42.406 63.475,41.531 64.562,41.531 C65.650,41.531 66.531,42.406 66.531,43.484 C66.531,44.563 65.650,45.437 64.562,45.437 ZM64.562,35.031 C63.475,35.031 62.594,34.164 62.594,33.094 C62.594,32.023 63.475,31.156 64.562,31.156 C65.650,31.156 66.531,32.023 66.531,33.094 C66.531,34.164 65.650,35.031 64.562,35.031 ZM64.562,24.656 C63.475,24.656 62.594,23.789 62.594,22.718 C62.594,21.649 63.475,20.781 64.562,20.781 C65.650,20.781 66.531,21.649 66.531,22.718 C66.531,23.789 65.650,24.656 64.562,24.656 ZM64.562,14.281 C63.475,14.281 62.594,13.407 62.594,12.328 C62.594,11.249 63.475,10.375 64.562,10.375 C65.650,10.375 66.531,11.249 66.531,12.328 C66.531,13.407 65.650,14.281 64.562,14.281 ZM64.562,3.906 C63.475,3.906 62.594,3.032 62.594,1.953 C62.594,0.874 63.475,-0.000 64.562,-0.000 C65.650,-0.000 66.531,0.874 66.531,1.953 C66.531,3.032 65.650,3.906 64.562,3.906 ZM54.141,159.000 C53.062,159.000 52.187,158.125 52.187,157.047 C52.187,155.968 53.062,155.094 54.141,155.094 C55.219,155.094 56.094,155.968 56.094,157.047 C56.094,158.125 55.219,159.000 54.141,159.000 ZM54.141,148.625 C53.062,148.625 52.187,147.750 52.187,146.672 C52.187,145.593 53.062,144.719 54.141,144.719 C55.219,144.719 56.094,145.593 56.094,146.672 C56.094,147.750 55.219,148.625 54.141,148.625 ZM54.141,138.219 C53.062,138.219 52.187,137.351 52.187,136.281 C52.187,135.211 53.062,134.343 54.141,134.343 C55.219,134.343 56.094,135.211 56.094,136.281 C56.094,137.351 55.219,138.219 54.141,138.219 ZM54.141,127.843 C53.062,127.843 52.187,126.976 52.187,125.906 C52.187,124.836 53.062,123.969 54.141,123.969 C55.219,123.969 56.094,124.836 56.094,125.906 C56.094,126.976 55.219,127.843 54.141,127.843 ZM54.141,117.469 C53.062,117.469 52.187,116.594 52.187,115.515 C52.187,114.437 53.062,113.562 54.141,113.562 C55.219,113.562 56.094,114.437 56.094,115.515 C56.094,116.594 55.219,117.469 54.141,117.469 ZM54.141,107.094 C53.062,107.094 52.187,106.219 52.187,105.140 C52.187,104.062 53.062,103.187 54.141,103.187 C55.219,103.187 56.094,104.062 56.094,105.140 C56.094,106.219 55.219,107.094 54.141,107.094 ZM54.141,96.687 C53.062,96.687 52.187,95.820 52.187,94.750 C52.187,93.680 53.062,92.812 54.141,92.812 C55.219,92.812 56.094,93.680 56.094,94.750 C56.094,95.820 55.219,96.687 54.141,96.687 ZM54.141,86.312 C53.062,86.312 52.187,85.438 52.187,84.359 C52.187,83.280 53.062,82.406 54.141,82.406 C55.219,82.406 56.094,83.280 56.094,84.359 C56.094,85.438 55.219,86.312 54.141,86.312 ZM54.141,75.937 C53.062,75.937 52.187,75.063 52.187,73.984 C52.187,72.905 53.062,72.031 54.141,72.031 C55.219,72.031 56.094,72.905 56.094,73.984 C56.094,75.063 55.219,75.937 54.141,75.937 ZM54.141,65.531 C53.062,65.531 52.187,64.664 52.187,63.593 C52.187,62.524 53.062,61.656 54.141,61.656 C55.219,61.656 56.094,62.524 56.094,63.593 C56.094,64.664 55.219,65.531 54.141,65.531 ZM54.141,55.812 C53.062,55.812 52.187,54.938 52.187,53.859 C52.187,52.781 53.062,51.906 54.141,51.906 C55.219,51.906 56.094,52.781 56.094,53.859 C56.094,54.938 55.219,55.812 54.141,55.812 ZM54.141,45.437 C53.062,45.437 52.187,44.563 52.187,43.484 C52.187,42.406 53.062,41.531 54.141,41.531 C55.219,41.531 56.094,42.406 56.094,43.484 C56.094,44.563 55.219,45.437 54.141,45.437 ZM54.141,35.031 C53.062,35.031 52.187,34.164 52.187,33.094 C52.187,32.023 53.062,31.156 54.141,31.156 C55.219,31.156 56.094,32.023 56.094,33.094 C56.094,34.164 55.219,35.031 54.141,35.031 ZM54.141,24.656 C53.062,24.656 52.187,23.789 52.187,22.718 C52.187,21.649 53.062,20.781 54.141,20.781 C55.219,20.781 56.094,21.649 56.094,22.718 C56.094,23.789 55.219,24.656 54.141,24.656 ZM54.141,14.281 C53.062,14.281 52.187,13.407 52.187,12.328 C52.187,11.249 53.062,10.375 54.141,10.375 C55.219,10.375 56.094,11.249 56.094,12.328 C56.094,13.407 55.219,14.281 54.141,14.281 ZM54.141,3.906 C53.062,3.906 52.187,3.032 52.187,1.953 C52.187,0.874 53.062,-0.000 54.141,-0.000 C55.219,-0.000 56.094,0.874 56.094,1.953 C56.094,3.032 55.219,3.906 54.141,3.906 ZM43.703,159.000 C42.624,159.000 41.750,158.125 41.750,157.047 C41.750,155.968 42.624,155.094 43.703,155.094 C44.782,155.094 45.656,155.968 45.656,157.047 C45.656,158.125 44.782,159.000 43.703,159.000 ZM43.703,148.625 C42.624,148.625 41.750,147.750 41.750,146.672 C41.750,145.593 42.624,144.719 43.703,144.719 C44.782,144.719 45.656,145.593 45.656,146.672 C45.656,147.750 44.782,148.625 43.703,148.625 ZM43.703,138.219 C42.624,138.219 41.750,137.351 41.750,136.281 C41.750,135.211 42.624,134.343 43.703,134.343 C44.782,134.343 45.656,135.211 45.656,136.281 C45.656,137.351 44.782,138.219 43.703,138.219 ZM43.703,127.843 C42.624,127.843 41.750,126.976 41.750,125.906 C41.750,124.836 42.624,123.969 43.703,123.969 C44.782,123.969 45.656,124.836 45.656,125.906 C45.656,126.976 44.782,127.843 43.703,127.843 ZM43.703,117.469 C42.624,117.469 41.750,116.594 41.750,115.515 C41.750,114.437 42.624,113.562 43.703,113.562 C44.782,113.562 45.656,114.437 45.656,115.515 C45.656,116.594 44.782,117.469 43.703,117.469 ZM43.703,107.094 C42.624,107.094 41.750,106.219 41.750,105.140 C41.750,104.062 42.624,103.187 43.703,103.187 C44.782,103.187 45.656,104.062 45.656,105.140 C45.656,106.219 44.782,107.094 43.703,107.094 ZM43.703,96.687 C42.624,96.687 41.750,95.820 41.750,94.750 C41.750,93.680 42.624,92.812 43.703,92.812 C44.782,92.812 45.656,93.680 45.656,94.750 C45.656,95.820 44.782,96.687 43.703,96.687 ZM43.703,86.312 C42.624,86.312 41.750,85.438 41.750,84.359 C41.750,83.280 42.624,82.406 43.703,82.406 C44.782,82.406 45.656,83.280 45.656,84.359 C45.656,85.438 44.782,86.312 43.703,86.312 ZM43.703,75.937 C42.624,75.937 41.750,75.063 41.750,73.984 C41.750,72.905 42.624,72.031 43.703,72.031 C44.782,72.031 45.656,72.905 45.656,73.984 C45.656,75.063 44.782,75.937 43.703,75.937 ZM43.703,65.531 C42.624,65.531 41.750,64.664 41.750,63.593 C41.750,62.524 42.624,61.656 43.703,61.656 C44.782,61.656 45.656,62.524 45.656,63.593 C45.656,64.664 44.782,65.531 43.703,65.531 ZM43.703,55.812 C42.624,55.812 41.750,54.938 41.750,53.859 C41.750,52.781 42.624,51.906 43.703,51.906 C44.782,51.906 45.656,52.781 45.656,53.859 C45.656,54.938 44.782,55.812 43.703,55.812 ZM43.703,45.437 C42.624,45.437 41.750,44.563 41.750,43.484 C41.750,42.406 42.624,41.531 43.703,41.531 C44.782,41.531 45.656,42.406 45.656,43.484 C45.656,44.563 44.782,45.437 43.703,45.437 ZM43.703,35.031 C42.624,35.031 41.750,34.164 41.750,33.094 C41.750,32.023 42.624,31.156 43.703,31.156 C44.782,31.156 45.656,32.023 45.656,33.094 C45.656,34.164 44.782,35.031 43.703,35.031 ZM43.703,24.656 C42.624,24.656 41.750,23.789 41.750,22.718 C41.750,21.649 42.624,20.781 43.703,20.781 C44.782,20.781 45.656,21.649 45.656,22.718 C45.656,23.789 44.782,24.656 43.703,24.656 ZM43.703,14.281 C42.624,14.281 41.750,13.407 41.750,12.328 C41.750,11.249 42.624,10.375 43.703,10.375 C44.782,10.375 45.656,11.249 45.656,12.328 C45.656,13.407 44.782,14.281 43.703,14.281 ZM43.703,3.906 C42.624,3.906 41.750,3.032 41.750,1.953 C41.750,0.874 42.624,-0.000 43.703,-0.000 C44.782,-0.000 45.656,0.874 45.656,1.953 C45.656,3.032 44.782,3.906 43.703,3.906 ZM33.266,159.000 C32.187,159.000 31.312,158.125 31.312,157.047 C31.312,155.968 32.187,155.094 33.266,155.094 C34.344,155.094 35.219,155.968 35.219,157.047 C35.219,158.125 34.344,159.000 33.266,159.000 ZM33.266,148.625 C32.187,148.625 31.312,147.750 31.312,146.672 C31.312,145.593 32.187,144.719 33.266,144.719 C34.344,144.719 35.219,145.593 35.219,146.672 C35.219,147.750 34.344,148.625 33.266,148.625 ZM33.266,138.219 C32.187,138.219 31.312,137.351 31.312,136.281 C31.312,135.211 32.187,134.343 33.266,134.343 C34.344,134.343 35.219,135.211 35.219,136.281 C35.219,137.351 34.344,138.219 33.266,138.219 ZM33.266,127.843 C32.187,127.843 31.312,126.976 31.312,125.906 C31.312,124.836 32.187,123.969 33.266,123.969 C34.344,123.969 35.219,124.836 35.219,125.906 C35.219,126.976 34.344,127.843 33.266,127.843 ZM33.266,117.469 C32.187,117.469 31.312,116.594 31.312,115.515 C31.312,114.437 32.187,113.562 33.266,113.562 C34.344,113.562 35.219,114.437 35.219,115.515 C35.219,116.594 34.344,117.469 33.266,117.469 ZM33.266,107.094 C32.187,107.094 31.312,106.219 31.312,105.140 C31.312,104.062 32.187,103.187 33.266,103.187 C34.344,103.187 35.219,104.062 35.219,105.140 C35.219,106.219 34.344,107.094 33.266,107.094 ZM33.266,96.687 C32.187,96.687 31.312,95.820 31.312,94.750 C31.312,93.680 32.187,92.812 33.266,92.812 C34.344,92.812 35.219,93.680 35.219,94.750 C35.219,95.820 34.344,96.687 33.266,96.687 ZM33.266,86.312 C32.187,86.312 31.312,85.438 31.312,84.359 C31.312,83.280 32.187,82.406 33.266,82.406 C34.344,82.406 35.219,83.280 35.219,84.359 C35.219,85.438 34.344,86.312 33.266,86.312 ZM33.266,75.937 C32.187,75.937 31.312,75.063 31.312,73.984 C31.312,72.905 32.187,72.031 33.266,72.031 C34.344,72.031 35.219,72.905 35.219,73.984 C35.219,75.063 34.344,75.937 33.266,75.937 ZM33.266,65.531 C32.187,65.531 31.312,64.664 31.312,63.593 C31.312,62.524 32.187,61.656 33.266,61.656 C34.344,61.656 35.219,62.524 35.219,63.593 C35.219,64.664 34.344,65.531 33.266,65.531 ZM33.266,55.812 C32.187,55.812 31.312,54.938 31.312,53.859 C31.312,52.781 32.187,51.906 33.266,51.906 C34.344,51.906 35.219,52.781 35.219,53.859 C35.219,54.938 34.344,55.812 33.266,55.812 ZM33.266,45.437 C32.187,45.437 31.312,44.563 31.312,43.484 C31.312,42.406 32.187,41.531 33.266,41.531 C34.344,41.531 35.219,42.406 35.219,43.484 C35.219,44.563 34.344,45.437 33.266,45.437 ZM33.266,35.031 C32.187,35.031 31.312,34.164 31.312,33.094 C31.312,32.023 32.187,31.156 33.266,31.156 C34.344,31.156 35.219,32.023 35.219,33.094 C35.219,34.164 34.344,35.031 33.266,35.031 ZM33.266,24.656 C32.187,24.656 31.312,23.789 31.312,22.718 C31.312,21.649 32.187,20.781 33.266,20.781 C34.344,20.781 35.219,21.649 35.219,22.718 C35.219,23.789 34.344,24.656 33.266,24.656 ZM33.266,14.281 C32.187,14.281 31.312,13.407 31.312,12.328 C31.312,11.249 32.187,10.375 33.266,10.375 C34.344,10.375 35.219,11.249 35.219,12.328 C35.219,13.407 34.344,14.281 33.266,14.281 ZM33.266,3.906 C32.187,3.906 31.312,3.032 31.312,1.953 C31.312,0.874 32.187,-0.000 33.266,-0.000 C34.344,-0.000 35.219,0.874 35.219,1.953 C35.219,3.032 34.344,3.906 33.266,3.906 ZM22.828,159.000 C21.749,159.000 20.875,158.125 20.875,157.047 C20.875,155.968 21.749,155.094 22.828,155.094 C23.907,155.094 24.781,155.968 24.781,157.047 C24.781,158.125 23.907,159.000 22.828,159.000 ZM22.828,148.625 C21.749,148.625 20.875,147.750 20.875,146.672 C20.875,145.593 21.749,144.719 22.828,144.719 C23.907,144.719 24.781,145.593 24.781,146.672 C24.781,147.750 23.907,148.625 22.828,148.625 ZM22.828,138.219 C21.749,138.219 20.875,137.351 20.875,136.281 C20.875,135.211 21.749,134.343 22.828,134.343 C23.907,134.343 24.781,135.211 24.781,136.281 C24.781,137.351 23.907,138.219 22.828,138.219 ZM22.828,127.843 C21.749,127.843 20.875,126.976 20.875,125.906 C20.875,124.836 21.749,123.969 22.828,123.969 C23.907,123.969 24.781,124.836 24.781,125.906 C24.781,126.976 23.907,127.843 22.828,127.843 ZM22.828,117.469 C21.749,117.469 20.875,116.594 20.875,115.515 C20.875,114.437 21.749,113.562 22.828,113.562 C23.907,113.562 24.781,114.437 24.781,115.515 C24.781,116.594 23.907,117.469 22.828,117.469 ZM22.828,107.094 C21.749,107.094 20.875,106.219 20.875,105.140 C20.875,104.062 21.749,103.187 22.828,103.187 C23.907,103.187 24.781,104.062 24.781,105.140 C24.781,106.219 23.907,107.094 22.828,107.094 ZM22.828,96.687 C21.749,96.687 20.875,95.820 20.875,94.750 C20.875,93.680 21.749,92.812 22.828,92.812 C23.907,92.812 24.781,93.680 24.781,94.750 C24.781,95.820 23.907,96.687 22.828,96.687 ZM22.828,86.312 C21.749,86.312 20.875,85.438 20.875,84.359 C20.875,83.280 21.749,82.406 22.828,82.406 C23.907,82.406 24.781,83.280 24.781,84.359 C24.781,85.438 23.907,86.312 22.828,86.312 ZM22.828,75.937 C21.749,75.937 20.875,75.063 20.875,73.984 C20.875,72.905 21.749,72.031 22.828,72.031 C23.907,72.031 24.781,72.905 24.781,73.984 C24.781,75.063 23.907,75.937 22.828,75.937 ZM22.828,65.531 C21.749,65.531 20.875,64.664 20.875,63.593 C20.875,62.524 21.749,61.656 22.828,61.656 C23.907,61.656 24.781,62.524 24.781,63.593 C24.781,64.664 23.907,65.531 22.828,65.531 ZM22.828,55.812 C21.749,55.812 20.875,54.938 20.875,53.859 C20.875,52.781 21.749,51.906 22.828,51.906 C23.907,51.906 24.781,52.781 24.781,53.859 C24.781,54.938 23.907,55.812 22.828,55.812 ZM22.828,45.437 C21.749,45.437 20.875,44.563 20.875,43.484 C20.875,42.406 21.749,41.531 22.828,41.531 C23.907,41.531 24.781,42.406 24.781,43.484 C24.781,44.563 23.907,45.437 22.828,45.437 ZM22.828,35.031 C21.749,35.031 20.875,34.164 20.875,33.094 C20.875,32.023 21.749,31.156 22.828,31.156 C23.907,31.156 24.781,32.023 24.781,33.094 C24.781,34.164 23.907,35.031 22.828,35.031 ZM22.828,24.656 C21.749,24.656 20.875,23.789 20.875,22.718 C20.875,21.649 21.749,20.781 22.828,20.781 C23.907,20.781 24.781,21.649 24.781,22.718 C24.781,23.789 23.907,24.656 22.828,24.656 ZM22.828,14.281 C21.749,14.281 20.875,13.407 20.875,12.328 C20.875,11.249 21.749,10.375 22.828,10.375 C23.907,10.375 24.781,11.249 24.781,12.328 C24.781,13.407 23.907,14.281 22.828,14.281 ZM22.828,3.906 C21.749,3.906 20.875,3.032 20.875,1.953 C20.875,0.874 21.749,-0.000 22.828,-0.000 C23.907,-0.000 24.781,0.874 24.781,1.953 C24.781,3.032 23.907,3.906 22.828,3.906 ZM12.391,159.000 C11.312,159.000 10.437,158.125 10.437,157.047 C10.437,155.968 11.312,155.094 12.391,155.094 C13.469,155.094 14.344,155.968 14.344,157.047 C14.344,158.125 13.469,159.000 12.391,159.000 ZM12.391,148.625 C11.312,148.625 10.437,147.750 10.437,146.672 C10.437,145.593 11.312,144.719 12.391,144.719 C13.469,144.719 14.344,145.593 14.344,146.672 C14.344,147.750 13.469,148.625 12.391,148.625 ZM12.391,138.219 C11.312,138.219 10.437,137.351 10.437,136.281 C10.437,135.211 11.312,134.343 12.391,134.343 C13.469,134.343 14.344,135.211 14.344,136.281 C14.344,137.351 13.469,138.219 12.391,138.219 ZM12.391,127.843 C11.312,127.843 10.437,126.976 10.437,125.906 C10.437,124.836 11.312,123.969 12.391,123.969 C13.469,123.969 14.344,124.836 14.344,125.906 C14.344,126.976 13.469,127.843 12.391,127.843 ZM12.391,117.469 C11.312,117.469 10.437,116.594 10.437,115.515 C10.437,114.437 11.312,113.562 12.391,113.562 C13.469,113.562 14.344,114.437 14.344,115.515 C14.344,116.594 13.469,117.469 12.391,117.469 ZM12.391,107.094 C11.312,107.094 10.437,106.219 10.437,105.140 C10.437,104.062 11.312,103.187 12.391,103.187 C13.469,103.187 14.344,104.062 14.344,105.140 C14.344,106.219 13.469,107.094 12.391,107.094 ZM12.391,96.687 C11.312,96.687 10.437,95.820 10.437,94.750 C10.437,93.680 11.312,92.812 12.391,92.812 C13.469,92.812 14.344,93.680 14.344,94.750 C14.344,95.820 13.469,96.687 12.391,96.687 ZM12.391,86.312 C11.312,86.312 10.437,85.438 10.437,84.359 C10.437,83.280 11.312,82.406 12.391,82.406 C13.469,82.406 14.344,83.280 14.344,84.359 C14.344,85.438 13.469,86.312 12.391,86.312 ZM12.391,75.937 C11.312,75.937 10.437,75.063 10.437,73.984 C10.437,72.905 11.312,72.031 12.391,72.031 C13.469,72.031 14.344,72.905 14.344,73.984 C14.344,75.063 13.469,75.937 12.391,75.937 ZM12.391,65.531 C11.312,65.531 10.437,64.664 10.437,63.593 C10.437,62.524 11.312,61.656 12.391,61.656 C13.469,61.656 14.344,62.524 14.344,63.593 C14.344,64.664 13.469,65.531 12.391,65.531 ZM12.391,55.812 C11.312,55.812 10.437,54.938 10.437,53.859 C10.437,52.781 11.312,51.906 12.391,51.906 C13.469,51.906 14.344,52.781 14.344,53.859 C14.344,54.938 13.469,55.812 12.391,55.812 ZM12.391,45.437 C11.312,45.437 10.437,44.563 10.437,43.484 C10.437,42.406 11.312,41.531 12.391,41.531 C13.469,41.531 14.344,42.406 14.344,43.484 C14.344,44.563 13.469,45.437 12.391,45.437 ZM12.391,35.031 C11.312,35.031 10.437,34.164 10.437,33.094 C10.437,32.023 11.312,31.156 12.391,31.156 C13.469,31.156 14.344,32.023 14.344,33.094 C14.344,34.164 13.469,35.031 12.391,35.031 ZM12.391,24.656 C11.312,24.656 10.437,23.789 10.437,22.718 C10.437,21.649 11.312,20.781 12.391,20.781 C13.469,20.781 14.344,21.649 14.344,22.718 C14.344,23.789 13.469,24.656 12.391,24.656 ZM12.391,14.281 C11.312,14.281 10.437,13.407 10.437,12.328 C10.437,11.249 11.312,10.375 12.391,10.375 C13.469,10.375 14.344,11.249 14.344,12.328 C14.344,13.407 13.469,14.281 12.391,14.281 ZM12.391,3.906 C11.312,3.906 10.437,3.032 10.437,1.953 C10.437,0.874 11.312,-0.000 12.391,-0.000 C13.469,-0.000 14.344,0.874 14.344,1.953 C14.344,3.032 13.469,3.906 12.391,3.906 ZM1.953,159.000 C0.874,159.000 -0.000,158.125 -0.000,157.047 C-0.000,155.968 0.874,155.094 1.953,155.094 C3.032,155.094 3.906,155.968 3.906,157.047 C3.906,158.125 3.032,159.000 1.953,159.000 ZM1.953,148.625 C0.874,148.625 -0.000,147.750 -0.000,146.672 C-0.000,145.593 0.874,144.719 1.953,144.719 C3.032,144.719 3.906,145.593 3.906,146.672 C3.906,147.750 3.032,148.625 1.953,148.625 ZM1.953,138.219 C0.874,138.219 -0.000,137.351 -0.000,136.281 C-0.000,135.211 0.874,134.343 1.953,134.343 C3.032,134.343 3.906,135.211 3.906,136.281 C3.906,137.351 3.032,138.219 1.953,138.219 ZM1.953,127.843 C0.874,127.843 -0.000,126.976 -0.000,125.906 C-0.000,124.836 0.874,123.969 1.953,123.969 C3.032,123.969 3.906,124.836 3.906,125.906 C3.906,126.976 3.032,127.843 1.953,127.843 ZM1.953,117.469 C0.874,117.469 -0.000,116.594 -0.000,115.515 C-0.000,114.437 0.874,113.562 1.953,113.562 C3.032,113.562 3.906,114.437 3.906,115.515 C3.906,116.594 3.032,117.469 1.953,117.469 ZM1.953,107.094 C0.874,107.094 -0.000,106.219 -0.000,105.140 C-0.000,104.062 0.874,103.187 1.953,103.187 C3.032,103.187 3.906,104.062 3.906,105.140 C3.906,106.219 3.032,107.094 1.953,107.094 ZM1.953,96.687 C0.874,96.687 -0.000,95.820 -0.000,94.750 C-0.000,93.680 0.874,92.812 1.953,92.812 C3.032,92.812 3.906,93.680 3.906,94.750 C3.906,95.820 3.032,96.687 1.953,96.687 ZM1.953,86.312 C0.874,86.312 -0.000,85.438 -0.000,84.359 C-0.000,83.280 0.874,82.406 1.953,82.406 C3.032,82.406 3.906,83.280 3.906,84.359 C3.906,85.438 3.032,86.312 1.953,86.312 ZM1.953,75.937 C0.874,75.937 -0.000,75.063 -0.000,73.984 C-0.000,72.905 0.874,72.031 1.953,72.031 C3.032,72.031 3.906,72.905 3.906,73.984 C3.906,75.063 3.032,75.937 1.953,75.937 ZM1.953,65.531 C0.874,65.531 -0.000,64.664 -0.000,63.593 C-0.000,62.524 0.874,61.656 1.953,61.656 C3.032,61.656 3.906,62.524 3.906,63.593 C3.906,64.664 3.032,65.531 1.953,65.531 ZM1.953,55.812 C0.874,55.812 -0.000,54.938 -0.000,53.859 C-0.000,52.781 0.874,51.906 1.953,51.906 C3.032,51.906 3.906,52.781 3.906,53.859 C3.906,54.938 3.032,55.812 1.953,55.812 ZM1.953,45.437 C0.874,45.437 -0.000,44.563 -0.000,43.484 C-0.000,42.406 0.874,41.531 1.953,41.531 C3.032,41.531 3.906,42.406 3.906,43.484 C3.906,44.563 3.032,45.437 1.953,45.437 ZM1.953,35.031 C0.874,35.031 -0.000,34.164 -0.000,33.094 C-0.000,32.023 0.874,31.156 1.953,31.156 C3.032,31.156 3.906,32.023 3.906,33.094 C3.906,34.164 3.032,35.031 1.953,35.031 ZM1.953,24.656 C0.874,24.656 -0.000,23.789 -0.000,22.718 C-0.000,21.649 0.874,20.781 1.953,20.781 C3.032,20.781 3.906,21.649 3.906,22.718 C3.906,23.789 3.032,24.656 1.953,24.656 ZM1.953,14.281 C0.874,14.281 -0.000,13.407 -0.000,12.328 C-0.000,11.249 0.874,10.375 1.953,10.375 C3.032,10.375 3.906,11.249 3.906,12.328 C3.906,13.407 3.032,14.281 1.953,14.281 ZM1.953,3.906 C0.874,3.906 -0.000,3.032 -0.000,1.953 C-0.000,0.874 0.874,-0.000 1.953,-0.000 C3.032,-0.000 3.906,0.874 3.906,1.953 C3.906,3.032 3.032,3.906 1.953,3.906 ZM148.047,155.094 C149.126,155.094 150.000,155.968 150.000,157.047 C150.000,158.125 149.126,159.000 148.047,159.000 C146.968,159.000 146.094,158.125 146.094,157.047 C146.094,155.968 146.968,155.094 148.047,155.094 Z"/>
</svg>