<svg 
 xmlns="http://www.w3.org/2000/svg"
 xmlns:xlink="http://www.w3.org/1999/xlink"
 width="67px" height="83px">
<path fill-rule="evenodd"  opacity="0.2" fill="rgb(4, 194, 127)"
 d="M65.632,68.983 C62.727,68.983 60.505,71.721 60.505,74.943 C60.505,78.165 62.898,80.904 65.632,80.904 C66.316,80.904 66.999,81.549 66.999,81.710 C66.999,82.516 66.316,82.999 65.632,82.999 L7.691,82.999 C3.418,82.999 0.000,79.294 0.000,74.621 C0.000,70.594 2.735,67.210 6.153,66.404 C4.786,64.955 3.931,62.699 3.931,60.282 C3.931,55.610 7.008,51.905 10.768,51.905 L22.219,51.905 C21.536,51.744 20.681,51.422 19.997,50.938 C11.622,46.105 5.469,30.800 10.255,20.006 C12.306,15.334 15.383,12.595 19.143,11.789 C23.758,10.822 28.372,13.239 30.936,15.011 C31.278,11.144 30.765,3.250 24.954,2.444 C24.270,2.284 23.758,1.639 23.928,0.995 C24.099,0.350 24.783,-0.133 25.467,0.028 C33.158,1.156 33.842,10.017 33.671,14.688 C36.235,13.078 40.507,10.984 44.951,11.789 C48.711,12.434 51.788,15.334 53.839,20.006 C58.625,30.961 52.472,46.105 44.097,50.938 C43.413,51.422 42.558,51.583 41.875,51.905 L61.701,51.905 C62.556,51.905 63.069,52.549 63.069,53.193 C63.069,53.999 62.385,54.483 61.701,54.483 C59.479,54.483 57.428,57.222 57.428,60.444 C57.428,63.666 59.308,66.404 61.701,66.404 L65.632,66.404 C66.487,66.404 66.999,67.049 66.999,67.694 C66.999,68.499 66.316,68.983 65.632,68.983 ZM42.729,49.166 C50.249,44.977 55.719,30.961 51.446,21.294 C49.737,17.428 47.344,15.172 44.438,14.528 C38.969,13.561 32.987,18.717 32.987,18.717 C32.645,18.878 32.474,19.039 32.132,19.039 L31.961,19.039 L31.790,19.039 C31.620,18.878 31.449,18.878 31.449,18.878 C31.278,18.878 31.278,18.878 31.107,18.717 C31.107,18.556 25.125,13.400 19.655,14.528 C16.750,15.011 14.357,17.267 12.648,21.294 C8.375,30.961 14.015,44.977 21.365,49.166 C23.928,50.616 27.518,51.422 30.936,47.394 L31.107,47.233 C31.107,47.233 31.278,47.071 31.449,47.071 L31.620,47.071 C31.790,47.071 31.790,47.071 31.961,47.071 C32.132,47.071 32.132,47.071 32.303,47.071 C32.474,47.071 32.474,47.071 32.474,47.071 C32.645,47.071 32.645,47.071 32.816,47.233 L32.987,47.394 C36.576,51.422 40.336,50.616 42.729,49.166 ZM28.372,52.227 L35.722,52.227 C34.525,51.744 33.158,50.938 31.962,49.971 C30.936,50.938 29.740,51.744 28.372,52.227 ZM56.916,54.644 L10.939,54.644 C8.546,54.644 6.495,57.382 6.666,60.604 C6.666,63.827 8.546,66.566 10.939,66.566 L56.916,66.566 C55.719,65.116 54.864,62.860 54.864,60.604 C54.864,58.349 55.719,56.094 56.916,54.644 ZM60.163,68.983 L10.768,68.983 L7.691,68.983 C4.786,68.983 2.564,71.721 2.564,74.943 C2.564,78.165 4.956,80.904 7.691,80.904 L60.334,80.904 C58.795,79.454 57.941,77.198 57.941,74.943 C57.941,72.688 58.795,70.432 60.163,68.983 ZM50.591,78.327 L33.500,78.327 C32.645,78.327 32.132,77.682 32.132,77.038 C32.132,76.232 32.816,75.749 33.500,75.749 L50.762,75.749 C51.446,75.749 51.959,76.232 51.959,77.038 C51.959,77.843 51.275,78.327 50.591,78.327 ZM31.961,74.460 L14.870,74.460 C14.015,74.460 13.502,73.815 13.502,73.171 C13.502,72.365 14.186,71.883 14.870,71.883 L31.961,71.883 C32.816,71.883 33.329,72.527 33.329,73.171 C33.329,73.815 32.816,74.298 31.961,74.460 ZM31.961,60.444 L14.870,60.444 C14.186,60.444 13.673,59.960 13.502,59.155 C13.502,58.349 14.186,57.866 14.870,57.866 L31.961,57.866 C32.816,57.866 33.329,58.511 33.329,59.155 C33.329,59.960 32.645,60.444 31.961,60.444 ZM35.038,37.083 C34.354,37.083 33.841,36.438 33.670,35.793 L33.670,28.867 C33.670,28.061 34.354,27.578 35.038,27.578 C35.892,27.578 36.405,28.222 36.405,28.867 L36.405,35.793 C36.405,36.599 35.722,37.083 35.038,37.083 ZM29.056,37.083 C28.372,37.083 27.859,36.438 27.688,35.793 L27.688,28.867 C27.688,28.061 28.372,27.578 29.056,27.578 C29.910,27.578 30.423,28.222 30.423,28.867 L30.423,35.793 C30.423,36.599 29.739,37.083 29.056,37.083 Z"/>
</svg>