<svg 
 xmlns="http://www.w3.org/2000/svg"
 xmlns:xlink="http://www.w3.org/1999/xlink"
 width="73px" height="69px">
<path fill-rule="evenodd"  opacity="0.149" fill="rgb(4, 194, 127)"
 d="M72.248,17.888 L55.967,24.615 L55.967,26.810 L70.567,20.811 L70.567,20.410 C70.567,19.739 71.110,19.196 71.783,19.196 C72.456,19.196 73.000,19.739 73.000,20.410 L73.000,21.625 C73.000,22.117 72.703,22.561 72.247,22.748 L55.966,29.438 L55.966,44.506 C57.458,42.938 58.189,41.351 58.400,40.836 L58.400,32.558 C58.400,31.887 58.944,31.343 59.616,31.343 C60.289,31.343 60.833,31.887 60.833,32.558 L60.833,41.061 C60.833,41.196 60.810,41.331 60.766,41.458 C60.711,41.613 59.459,45.119 55.966,47.751 L55.966,54.646 C57.379,55.150 58.400,56.485 58.400,58.067 C58.400,60.076 56.762,61.711 54.750,61.711 C52.737,61.711 51.100,60.076 51.100,58.067 C51.100,56.485 52.121,55.150 53.533,54.646 L53.533,28.613 L53.533,28.612 L53.533,24.720 L39.649,19.544 C38.804,20.078 37.718,20.410 36.500,20.410 C33.771,20.410 31.633,18.809 31.633,16.766 C31.633,14.722 33.771,13.122 36.500,13.122 C39.229,13.122 41.366,14.722 41.366,16.766 C41.366,17.037 41.324,17.297 41.253,17.549 L54.633,22.537 L68.601,16.766 L36.500,3.504 L4.398,16.766 L36.500,30.028 L48.793,24.951 C49.414,24.695 50.125,24.988 50.382,25.608 C50.639,26.229 50.345,26.939 49.723,27.194 L36.965,32.465 C36.816,32.527 36.658,32.558 36.500,32.558 C36.342,32.558 36.184,32.527 36.035,32.465 L0.752,17.889 C0.297,17.701 -0.000,17.258 -0.000,16.766 C-0.000,16.274 0.297,15.832 0.752,15.644 L36.035,1.067 C36.333,0.944 36.667,0.944 36.965,1.067 L72.249,15.644 C72.703,15.832 73.000,16.274 73.000,16.766 C73.000,17.258 72.703,17.701 72.248,17.888 ZM36.500,15.551 C35.014,15.551 34.066,16.270 34.066,16.766 C34.066,17.261 35.014,17.981 36.500,17.981 C37.985,17.981 38.933,17.261 38.933,16.766 C38.933,16.270 37.985,15.551 36.500,15.551 ZM54.750,56.852 C54.078,56.852 53.533,57.397 53.533,58.067 C53.533,58.736 54.078,59.282 54.750,59.282 C55.421,59.282 55.966,58.736 55.966,58.067 C55.966,57.397 55.421,56.852 54.750,56.852 ZM1.217,19.196 C1.888,19.196 2.433,19.739 2.433,20.410 L2.433,20.814 L36.500,34.887 L49.416,29.549 C50.035,29.295 50.749,29.587 51.006,30.208 C51.263,30.828 50.968,31.538 50.348,31.794 L36.965,37.325 C36.816,37.386 36.658,37.416 36.500,37.416 C36.342,37.416 36.183,37.385 36.035,37.324 L0.752,22.747 C0.297,22.561 -0.000,22.117 -0.000,21.625 L-0.000,20.410 C-0.000,19.739 0.545,19.196 1.217,19.196 ZM13.383,31.343 C14.055,31.343 14.600,31.887 14.600,32.558 L14.600,40.808 C15.301,42.329 20.176,51.466 35.283,51.947 L35.283,41.061 C35.283,40.390 35.828,39.846 36.500,39.846 C37.171,39.846 37.717,40.390 37.717,41.061 L37.717,51.958 C43.175,51.776 47.034,50.450 49.344,49.309 C49.949,49.012 50.676,49.260 50.973,49.862 C51.273,50.463 51.026,51.190 50.422,51.488 C47.709,52.826 43.091,54.422 36.500,54.422 C17.643,54.422 12.465,42.038 12.253,41.512 C12.196,41.368 12.167,41.215 12.167,41.061 L12.167,32.558 C12.167,31.887 12.712,31.343 13.383,31.343 ZM49.920,62.630 C50.082,61.980 50.742,61.581 51.394,61.747 C52.046,61.910 52.443,62.569 52.280,63.221 L51.063,68.080 C50.925,68.631 50.430,68.999 49.884,68.999 C49.787,68.999 49.687,68.988 49.589,68.963 C48.937,68.800 48.539,68.141 48.703,67.489 L49.920,62.630 ZM54.750,62.925 C55.423,62.925 55.966,63.470 55.966,64.141 L55.966,67.784 C55.966,68.455 55.423,68.999 54.750,68.999 C54.077,68.999 53.533,68.455 53.533,67.784 L53.533,64.141 C53.533,63.470 54.077,62.925 54.750,62.925 ZM58.105,61.747 C58.755,61.583 59.417,61.980 59.580,62.630 L60.797,67.489 C60.960,68.141 60.563,68.800 59.911,68.963 C59.812,68.988 59.713,68.999 59.615,68.999 C59.070,68.999 58.575,68.631 58.436,68.080 L57.220,63.221 C57.057,62.569 57.453,61.910 58.105,61.747 Z"/>
</svg>