<svg width="183" height="43" viewBox="0 0 183 43" fill="none" xmlns="http://www.w3.org/2000/svg">
<path d="M27.5 2.7L46.1 35C47.6 37.6 45.7 40.9 42.7 40.9H5.40001C2.40001 40.9 0.500014 37.6 2.00001 35L20.7 2.7C22.2 0.1 26 0.1 27.5 2.7Z" fill="#6E42D3"/>
<path d="M48.3 2.7L67 35C68.5 37.6 66.6 40.9 63.6 40.9H26.3C23.3 40.9 21.4 37.6 22.9 35L41.5 2.7C43 0.1 46.8 0.1 48.3 2.7Z" fill="#FC5B4D"/>
<path d="M45.6 34.2L34.5 15L23.4 34.2C21.6 37.3 23.8 41.1 27.4 41.1H41.6C45.1 41 47.3 37.2 45.6 34.2Z" fill="url(#paint0_linear_13_12)"/>
<path d="M106.6 16.2H102L96.6 27.7C96.4 28 96.3 28.5 96.1 29.1C95.9 28.5 95.7 28 95.6 27.7L90.4 16.2H85.4V38.8H90.3V26.9C90.4 27.2 90.5 27.5 90.6 27.6L96 39.2L101.5 27.6C101.6 27.4 101.7 27.2 101.8 27C101.8 27.3 101.8 27.5 101.8 27.7V38.9H106.7L106.6 16.2ZM124.8 38.8V22.3H120.1V30.9C120.2 31.9 119.9 32.9 119.4 33.7C118.9 34.3 118.1 34.7 117.2 34.6C116.4 34.7 115.6 34.3 115.1 33.7C114.6 32.8 114.4 31.8 114.5 30.8V22.2H109.8V33C109.8 34 110 35 110.3 35.9C110.6 36.7 111.1 37.3 111.7 37.8C112.2 38.2 112.8 38.6 113.5 38.8C114.1 39 114.8 39.1 115.4 39.1C117.1 39.2 118.8 38.5 119.9 37.2V38.7L124.8 38.8ZM133.1 38.8V15.5L128.4 17.7V38.8H133.1ZM145.4 38.4L145.9 34.5C145 34.9 144 35.1 143.1 35.1C142.9 35.1 142.6 35 142.4 34.9C142.2 34.7 142.1 34.5 142.1 34.2V26.4H145.7V22.3H142.1V15.5L137.5 17.7V22.3H135.2V26.4H137.5V34.7C137.5 37.7 138.9 39.2 141.6 39.2C143 39.2 144.3 39 145.4 38.4ZM152.6 19.9C153.1 19.4 153.4 18.7 153.4 18C153.4 17.3 153.1 16.6 152.6 16.1C151.5 15.1 149.8 15.1 148.8 16.1C148.3 16.6 148 17.3 148 18C148 18.7 148.3 19.4 148.8 19.9C149.3 20.4 150 20.7 150.7 20.7C151.4 20.7 152.1 20.5 152.6 19.9ZM153 38.8V22.3H148.3V38.8H153ZM180.5 38.8V28.6C180.5 26.1 180 24.4 178.9 23.4C177.6 22.3 175.9 21.8 174.3 21.9C172.3 21.8 170.4 22.6 169.2 24.2C168.4 22.7 166.8 21.7 165.1 21.9C163.6 21.9 162.2 22.6 161.3 23.8V22.3H156.6V38.8H161.3V30.2C161.2 29.2 161.4 28.2 161.9 27.3C162.4 26.7 163.2 26.4 164 26.5C164.7 26.4 165.4 26.7 165.8 27.3C166.2 28.2 166.4 29.3 166.3 30.3V38.8H171V30.2C170.9 29.2 171.1 28.2 171.6 27.3C172.1 26.7 172.9 26.4 173.7 26.5C174.4 26.4 175.1 26.7 175.5 27.3C175.9 28.2 176.1 29.3 176 30.3V38.8H180.5Z" fill="url(#paint1_linear_13_12)"/>
<defs>
<linearGradient id="paint0_linear_13_12" x1="22.8198" y1="28.024" x2="46.1803" y2="28.024" gradientUnits="userSpaceOnUse">
<stop stop-color="#FC5B4D"/>
<stop offset="1" stop-color="#6E42D3"/>
</linearGradient>
<linearGradient id="paint1_linear_13_12" x1="85.2936" y1="27.29" x2="180.523" y2="27.29" gradientUnits="userSpaceOnUse">
<stop stop-color="white"/>
<stop offset="1" stop-color="white"/>
</linearGradient>
</defs>
</svg>
