<svg width="670" height="670" viewBox="0 0 670 670" fill="none" xmlns="http://www.w3.org/2000/svg">
<circle cx="335" cy="335" r="335" fill="#FFA61A" fill-opacity="0.1"/>
<path d="M375.5 586.6C375.5 586.6 80.5001 354.6 37.5001 280.6C1.10006 218 134.4 286.4 176.3 308.9C185.3 313.7 193.9 319.2 202.1 325.2C235 349.5 320 417.9 375.5 514.6" stroke="#FFE9C8" stroke-width="4" stroke-miterlimit="10"/>
<path d="M373.2 552C379.1 563.1 287.2 396.3 33.3 260.3" stroke="#FFE9C8" stroke-width="4" stroke-miterlimit="10"/>
<path d="M306.5 620.9C306.5 620.9 366.9 302.1 490.8 109.9" stroke="#FFE9C8" stroke-width="4" stroke-miterlimit="10"/>
<path d="M504.8 106.8C513.084 106.8 519.8 100.084 519.8 91.8C519.8 83.5157 513.084 76.8 504.8 76.8C496.516 76.8 489.8 83.5157 489.8 91.8C489.8 100.084 496.516 106.8 504.8 106.8Z" stroke="#FFE9C8" stroke-width="4" stroke-miterlimit="10"/>
</svg>
