<svg width="214" height="157" viewBox="0 0 214 157" fill="none" xmlns="http://www.w3.org/2000/svg">
<path d="M207.2 41.6H138.6V154.4H207.2V41.6Z" fill="white"/>
<path d="M140.95 41.666H138.65V155.566H140.95V41.666Z" fill="white"/>
<path d="M207.45 155.566H137.75V40.866H207.45V155.566ZM139.55 154.066H205.75V42.366H139.55V154.066Z" fill="#683021"/>
<path d="M138.192 131.293H207.092C208.292 131.293 209.192 132.193 209.192 133.393C209.192 134.593 208.292 135.493 207.092 135.493H138.192C136.992 135.493 136.092 134.593 136.092 133.393C136.092 132.293 136.992 131.293 138.192 131.293Z" fill="white"/>
<path d="M207.092 136.393H138.192C136.592 136.393 135.192 135.093 135.192 133.393C135.192 131.793 136.492 130.393 138.192 130.393H207.092C208.692 130.393 210.092 131.693 210.092 133.393C210.092 134.993 208.692 136.393 207.092 136.393ZM138.192 132.193C137.492 132.193 136.992 132.693 136.992 133.393C136.992 134.093 137.492 134.593 138.192 134.593H207.092C207.792 134.593 208.292 134.093 208.292 133.393C208.292 132.693 207.792 132.193 207.092 132.193H138.192Z" fill="#683021"/>
<path d="M133.916 37.498H211.316C212.516 37.498 213.416 38.398 213.416 39.598C213.416 40.798 212.516 41.698 211.316 41.698H133.916C132.716 41.698 131.816 40.798 131.816 39.598C131.816 38.398 132.816 37.498 133.916 37.498Z" fill="white"/>
<path d="M211.316 42.498H133.916C132.316 42.498 130.916 41.198 130.916 39.598C130.916 37.998 132.216 36.598 133.816 36.598H133.916H211.316C212.916 36.598 214.316 37.898 214.316 39.498C214.316 41.198 213.016 42.498 211.316 42.498C211.316 42.498 211.416 42.498 211.316 42.498ZM133.916 38.398C133.216 38.398 132.716 38.898 132.716 39.598C132.716 40.298 133.216 40.798 133.916 40.798H211.316C212.016 40.798 212.516 40.298 212.516 39.598C212.516 38.898 212.016 38.398 211.316 38.398H133.916Z" fill="#683021"/>
<path d="M172.204 141.885H193.004C194.304 141.885 195.304 142.885 195.304 144.185V154.685H169.904V144.185C169.904 142.885 170.904 141.885 172.204 141.885Z" fill="white"/>
<path d="M196.204 155.585H169.004V143.185C169.004 141.985 170.004 140.985 171.204 140.985H194.104C195.304 140.985 196.304 141.985 196.304 143.185L196.204 155.585ZM170.804 153.785H194.504V143.185C194.504 142.985 194.304 142.785 194.104 142.785H171.204C171.004 142.785 170.804 142.985 170.804 143.185V153.785Z" fill="#683021"/>
<path opacity="0.3" d="M157.5 47.2H145.7V52.7H157.5V47.2Z" fill="#00BB85"/>
<path opacity="0.3" d="M178.7 47.2H166.9V52.7H178.7V47.2Z" fill="#00BB85"/>
<path opacity="0.3" d="M199.2 47.2H187.4V52.7H199.2V47.2Z" fill="#00BB85"/>
<path opacity="0.3" d="M157.5 57.4H145.7V62.9H157.5V57.4Z" fill="#00BB85"/>
<path opacity="0.3" d="M178.7 57.4H166.9V62.9H178.7V57.4Z" fill="#FF8345"/>
<path opacity="0.3" d="M199.2 57.4H187.4V62.9H199.2V57.4Z" fill="#00BB85"/>
<path opacity="0.3" d="M195 142.6H170.6V154.4H195V142.6Z" fill="#00BB85"/>
<path opacity="0.3" d="M157.5 68.5H145.7V74H157.5V68.5Z" fill="#00BB85"/>
<path opacity="0.3" d="M178.7 68.5H166.9V74H178.7V68.5Z" fill="#00BB85"/>
<path opacity="0.3" d="M199.2 68.5H187.4V74H199.2V68.5Z" fill="#00BB85"/>
<path opacity="0.3" d="M157.5 78.7H145.7V84.2H157.5V78.7Z" fill="#00BB85"/>
<path opacity="0.3" d="M178.7 78.7H166.9V84.2H178.7V78.7Z" fill="#FF8345"/>
<path opacity="0.3" d="M199.2 78.7H187.4V84.2H199.2V78.7Z" fill="#FF8345"/>
<path opacity="0.3" d="M157.5 89H145.7V94.5H157.5V89Z" fill="#00BB85"/>
<path opacity="0.3" d="M178.7 89H166.9V94.5H178.7V89Z" fill="#00BB85"/>
<path opacity="0.3" d="M199.2 89H187.4V94.5H199.2V89Z" fill="#00BB85"/>
<path opacity="0.3" d="M157.5 99.2H145.7V104.7H157.5V99.2Z" fill="#00BB85"/>
<path opacity="0.3" d="M178.7 99.2H166.9V104.7H178.7V99.2Z" fill="#FF8345"/>
<path opacity="0.3" d="M199.2 99.2H187.4V104.7H199.2V99.2Z" fill="#00BB85"/>
<path opacity="0.3" d="M157.5 110.2H145.7V115.7H157.5V110.2Z" fill="#00BB85"/>
<path opacity="0.3" d="M178.7 110.2H166.9V115.7H178.7V110.2Z" fill="#00BB85"/>
<path opacity="0.3" d="M199.2 110.2H187.4V115.7H199.2V110.2Z" fill="#00BB85"/>
<path opacity="0.3" d="M157.5 121.3H145.7V126.8H157.5V121.3Z" fill="#00BB85"/>
<path opacity="0.3" d="M178.7 121.3H166.9V126.8H178.7V121.3Z" fill="#00BB85"/>
<path opacity="0.3" d="M199.2 121.3H187.4V126.8H199.2V121.3Z" fill="#FF8345"/>
<g opacity="0.3">
<g opacity="0.3">
<g opacity="0.3">
<g opacity="0.3">
<path opacity="0.3" d="M157.435 52.891H145.335V46.991H157.435V52.891V52.891ZM146.535 51.491H156.235V48.291H146.535V51.491Z" fill="#00BB85"/>
</g>
</g>
<g opacity="0.3">
<g opacity="0.3">
<path opacity="0.3" d="M178.808 52.891H166.408V46.991H178.808V52.891V52.891ZM167.608 51.491H177.508V48.291H167.608V51.491Z" fill="#00BB85"/>
</g>
</g>
<g opacity="0.3">
<g opacity="0.3">
<path opacity="0.3" d="M199.88 52.891H187.48V46.991H199.88V52.891ZM188.68 51.491H198.58V48.291H188.68V51.491Z" fill="#00BB85"/>
</g>
</g>
</g>
<g opacity="0.3">
<g opacity="0.3">
<g opacity="0.3">
<path opacity="0.3" d="M157.435 63.356H145.335V57.456H157.435V63.356V63.356ZM146.535 61.956H156.235V58.756H146.535V61.956Z" fill="#00BB85"/>
</g>
</g>
<g opacity="0.3">
<g opacity="0.3">
<path opacity="0.3" d="M178.808 63.356H166.408V57.456H178.808V63.356V63.356ZM167.608 61.956H177.508V58.756H167.608V61.956Z" fill="#FF8345"/>
</g>
</g>
<g opacity="0.3">
<g opacity="0.3">
<path opacity="0.3" d="M199.88 63.356H187.48V57.456H199.88V63.356ZM188.68 58.756V61.956H198.58V58.756" fill="#00BB85"/>
</g>
</g>
</g>
<g opacity="0.3">
<g opacity="0.3">
<g opacity="0.3">
<path opacity="0.3" d="M157.435 73.821H145.335V67.921H157.435V73.821V73.821ZM146.535 72.421H156.235V69.221H146.535V72.421Z" fill="#00BB85"/>
</g>
</g>
<g opacity="0.3">
<g opacity="0.3">
<path opacity="0.3" d="M178.808 73.821H166.408V67.921H178.808V73.821V73.821ZM167.608 72.421H177.508V69.221H167.608V72.421Z" fill="#00BB85"/>
</g>
</g>
<g opacity="0.3">
<g opacity="0.3">
<path opacity="0.3" d="M199.88 73.821H187.48V67.921H199.88V73.821ZM188.68 72.421H198.58V69.221H188.68V72.421Z" fill="#00BB85"/>
</g>
</g>
</g>
<g opacity="0.3">
<g opacity="0.3">
<g opacity="0.3">
<path opacity="0.3" d="M157.435 84.287H145.335V78.387H157.435V84.287V84.287ZM146.535 82.887H156.235V79.687H146.535V82.887Z" fill="#00BB85"/>
</g>
</g>
<g opacity="0.3">
<g opacity="0.3">
<path opacity="0.3" d="M178.808 84.287H166.408V78.387H178.808V84.287V84.287ZM167.608 82.887H177.508V79.687H167.608V82.887Z" fill="#FF8345"/>
</g>
</g>
<g opacity="0.3">
<g opacity="0.3">
<path opacity="0.3" d="M199.88 84.287H187.48V78.387H199.88V84.287ZM188.68 82.887H198.58V79.687H188.68V82.887Z" fill="#FF8345"/>
</g>
</g>
</g>
<g opacity="0.3">
<g opacity="0.3">
<g opacity="0.3">
<path opacity="0.3" d="M157.435 94.752H145.335V88.852H157.435V94.752V94.752ZM146.535 93.352H156.235V90.152H146.535V93.352Z" fill="#00BB85"/>
</g>
</g>
<g opacity="0.3">
<g opacity="0.3">
<path opacity="0.3" d="M178.808 94.752H166.408V88.852H178.808V94.752V94.752ZM167.608 93.352H177.508V90.152H167.608V93.352Z" fill="#00BB85"/>
</g>
</g>
<g opacity="0.3">
<g opacity="0.3">
<path opacity="0.3" d="M199.88 94.752H187.48V88.852H199.88V94.752ZM188.68 93.352H198.58V90.152H188.68V93.352Z" fill="#00BB85"/>
</g>
</g>
</g>
<g opacity="0.3">
<g opacity="0.3">
<g opacity="0.3">
<path opacity="0.3" d="M157.435 105.217H145.335V99.317H157.435V105.217V105.217ZM146.535 103.817H156.235V100.617H146.535V103.817Z" fill="#00BB85"/>
</g>
</g>
<g opacity="0.3">
<g opacity="0.3">
<path opacity="0.3" d="M178.808 105.217H166.408V99.317H178.808V105.217V105.217ZM167.608 103.817H177.508V100.617H167.608V103.817Z" fill="#FF8345"/>
</g>
</g>
<g opacity="0.3">
<g opacity="0.3">
<path opacity="0.3" d="M199.88 105.217H187.48V99.317H199.88V105.217ZM188.68 103.817H198.58V100.617H188.68V103.817Z" fill="#00BB85"/>
</g>
</g>
</g>
<g opacity="0.3">
<g opacity="0.3">
<g opacity="0.3">
<path opacity="0.3" d="M157.435 115.683H145.335V109.783H157.435V115.683V115.683ZM146.535 114.283H156.235V111.083H146.535V114.283Z" fill="#00BB85"/>
</g>
</g>
<g opacity="0.3">
<g opacity="0.3">
<path opacity="0.3" d="M178.808 115.683H166.408V109.783H178.808V115.683V115.683ZM167.608 114.283H177.508V111.083H167.608V114.283Z" fill="#00BB85"/>
</g>
</g>
<g opacity="0.3">
<g opacity="0.3">
<path opacity="0.3" d="M199.88 115.683H187.48V109.783H199.88V115.683ZM188.68 114.283H198.58V111.083H188.68V114.283Z" fill="#00BB85"/>
</g>
</g>
</g>
<g opacity="0.3">
<g opacity="0.3">
<g opacity="0.3">
<path opacity="0.3" d="M157.435 126.648H145.335V120.748H157.435V126.648V126.648ZM146.535 125.348H156.235V122.148H146.535V125.348Z" fill="#00BB85"/>
</g>
</g>
<g opacity="0.3">
<g opacity="0.3">
<path opacity="0.3" d="M178.808 126.648H166.408V120.748H178.808V126.648V126.648ZM167.608 125.348H177.508V122.148H167.608V125.348Z" fill="#00BB85"/>
</g>
</g>
<g opacity="0.3">
<g opacity="0.3">
<path opacity="0.3" d="M199.88 126.648H187.48V120.748H199.88V126.648ZM188.68 125.348H198.58V122.148H188.68V125.348Z" fill="#FF8345"/>
</g>
</g>
</g>
</g>
<path d="M212.055 155.504H190.755C190.255 155.504 189.855 155.104 189.855 154.604C189.855 154.104 190.255 153.704 190.755 153.704H212.055C212.555 153.704 212.955 154.104 212.955 154.604C212.955 155.104 212.555 155.504 212.055 155.504Z" fill="#683021"/>
<path d="M12.924 127.425C18.9439 127.425 23.824 119.59 23.824 109.925C23.824 100.26 18.9439 92.425 12.924 92.425C6.9041 92.425 2.024 100.26 2.024 109.925C2.024 119.59 6.9041 127.425 12.924 127.425Z" fill="#0BB76D"/>
<path d="M12.924 92.425C6.924 92.425 2.024 100.225 2.024 109.925C1.924 114.325 3.124 118.725 5.324 122.525C6.324 123.025 7.324 123.225 8.324 123.225C14.324 123.225 19.224 115.425 19.224 105.725C19.324 101.325 18.124 96.925 15.924 93.125C15.024 92.625 13.924 92.425 12.924 92.425Z" fill="white"/>
<path d="M2.39001 110.64C2.29001 115.04 5.39001 122.74 8.39001 126.64C17.39 129.64 23.39 119.54 23.39 109.64C23.39 101.64 19.39 96.44 16.39 92.64C7.79001 92.64 2.39001 94.54 2.39001 110.64Z" fill="#00BB85"/>
<path d="M12.912 128.513C6.312 128.513 0.912003 120.213 0.912003 109.913C0.912003 99.613 6.312 91.313 12.912 91.313C19.512 91.313 24.912 99.613 24.912 109.913C24.912 120.213 19.512 128.513 12.912 128.513ZM12.912 93.513C7.512 93.513 3.112 100.813 3.112 109.913C3.112 119.013 7.512 126.213 12.912 126.213C18.312 126.213 22.712 118.913 22.712 109.813C22.712 100.713 18.312 93.513 12.912 93.513Z" fill="#683021"/>
<path d="M12.896 156.005C12.296 156.005 11.796 155.505 11.796 154.905V113.105C11.796 112.505 12.296 112.005 12.896 112.005C13.496 112.005 13.996 112.505 13.996 113.105V154.905C13.996 155.505 13.496 156.005 12.896 156.005Z" fill="#683021"/>
<path d="M12.923 120.14C12.623 120.14 12.323 120.04 12.123 119.84L7.823 115.54C7.423 115.14 7.423 114.44 7.823 113.94C8.223 113.54 8.923 113.54 9.423 113.94L13.723 118.24C14.123 118.64 14.123 119.34 13.723 119.84C13.423 120.04 13.223 120.14 12.923 120.14Z" fill="#683021"/>
<path d="M23.143 132.524C17.143 132.524 12.043 137.124 11.543 143.224C11.543 143.524 11.543 143.924 11.543 144.224C11.543 147.024 12.643 152.524 14.443 154.624H29.443C35.343 152.124 32.943 140.524 30.443 134.624C29.743 133.024 24.343 133.624 23.143 132.524Z" fill="#00BB85"/>
<path d="M27.831 156.011H18.431L18.231 155.911C17.631 155.711 17.131 155.411 16.531 155.011C12.731 152.711 10.331 148.611 10.331 144.111C10.331 143.711 10.331 143.411 10.431 143.011C11.031 136.011 17.231 130.811 24.231 131.411C31.331 132.111 36.431 138.311 35.831 145.311C35.431 150.011 32.431 154.111 28.031 155.911L27.831 156.011ZM18.931 153.811H27.431C32.731 151.511 35.131 145.211 32.831 139.911C30.531 134.611 24.231 132.211 18.931 134.511C15.431 136.111 13.031 139.411 12.631 143.211C12.631 143.511 12.631 143.811 12.631 144.111C12.631 147.811 14.531 151.211 17.731 153.111C18.131 153.411 18.531 153.611 18.931 153.811Z" fill="#683021"/>
<path d="M19.232 149.456C19.232 151.256 18.432 152.956 17.132 154.156C16.832 154.456 16.432 154.756 16.132 154.956H9.632C6.632 153.156 5.632 149.256 7.432 146.256C8.332 144.756 9.832 143.656 11.632 143.256C12.032 143.156 12.532 143.156 12.932 143.156C16.432 143.056 19.232 145.956 19.232 149.456Z" fill="#0BB76D"/>
<path d="M13.132 143.424C7.932 144.624 5.232 148.224 7.032 151.524C7.832 152.924 9.232 154.024 11.132 154.824H14.432C15.032 154.624 15.532 154.324 16.032 154.024C20.132 151.624 20.432 147.624 16.732 145.024C15.832 144.324 14.532 143.824 13.132 143.424Z" fill="#00BB85"/>
<path d="M16.42 156.043H9.32L9.12 155.843C5.52 153.743 4.42 149.143 6.52 145.543C7.62 143.743 9.42 142.443 11.42 142.043C11.92 141.943 12.42 141.843 12.92 141.843C17.02 141.843 20.42 145.243 20.42 149.343C20.42 151.443 19.52 153.443 18.02 154.843C17.62 155.143 17.22 155.543 16.82 155.743L16.42 156.043ZM9.92 153.843H15.82C16.02 153.743 16.22 153.543 16.42 153.343C18.62 151.343 18.72 148.043 16.82 145.943C15.82 144.843 14.42 144.243 12.92 144.243C12.52 144.243 12.22 144.243 11.82 144.343C9.42 144.843 7.62 147.043 7.62 149.543C7.62 151.143 8.52 152.843 9.92 153.843Z" fill="#683021"/>
<path d="M97.2 41.6H28.6V154.4H97.2V41.6Z" fill="white"/>
<path d="M30.95 41.666H28.65V155.566H30.95V41.666Z" fill="white"/>
<path d="M97.45 155.566H27.75V40.866H97.45V155.566ZM29.55 154.066H95.75V42.366H29.55V154.066Z" fill="#683021"/>
<path d="M28.192 131.293H97.092C98.292 131.293 99.192 132.193 99.192 133.393C99.192 134.593 98.292 135.493 97.092 135.493H28.192C26.992 135.493 26.092 134.593 26.092 133.393C26.092 132.293 26.992 131.293 28.192 131.293Z" fill="white"/>
<path d="M97.092 136.393H28.192C26.592 136.393 25.192 135.093 25.192 133.393C25.192 131.793 26.492 130.393 28.192 130.393H97.092C98.692 130.393 100.092 131.693 100.092 133.393C100.092 134.993 98.692 136.393 97.092 136.393ZM28.192 132.193C27.492 132.193 26.992 132.693 26.992 133.393C26.992 134.093 27.492 134.593 28.192 134.593H97.092C97.792 134.593 98.292 134.093 98.292 133.393C98.292 132.693 97.792 132.193 97.092 132.193H28.192Z" fill="#683021"/>
<path d="M23.916 37.498H101.316C102.516 37.498 103.416 38.398 103.416 39.598C103.416 40.798 102.516 41.698 101.316 41.698H23.916C22.716 41.698 21.816 40.798 21.816 39.598C21.816 38.398 22.816 37.498 23.916 37.498Z" fill="white"/>
<path d="M101.316 42.498H23.916C22.316 42.498 20.916 41.198 20.916 39.598C20.916 37.998 22.216 36.598 23.816 36.598H23.916H101.316C102.916 36.598 104.316 37.898 104.316 39.498C104.316 41.198 103.016 42.498 101.316 42.498C101.316 42.498 101.416 42.498 101.316 42.498ZM23.916 38.398C23.216 38.398 22.716 38.898 22.716 39.598C22.716 40.298 23.216 40.798 23.916 40.798H101.316C102.016 40.798 102.516 40.298 102.516 39.598C102.516 38.898 102.016 38.398 101.316 38.398H23.916Z" fill="#683021"/>
<path d="M42.204 141.885H63.004C64.304 141.885 65.304 142.885 65.304 144.185V154.685H39.904V144.185C39.904 142.885 40.904 141.885 42.204 141.885Z" fill="white"/>
<path d="M66.204 155.585H39.004V143.185C39.004 141.985 40.004 140.985 41.204 140.985H64.104C65.304 140.985 66.304 141.985 66.304 143.185L66.204 155.585ZM40.804 153.785H64.504V143.185C64.504 142.985 64.304 142.785 64.104 142.785H41.204C41.004 142.785 40.804 142.985 40.804 143.185V153.785Z" fill="#683021"/>
<path opacity="0.3" d="M47.5 47.2H35.7V52.7H47.5V47.2Z" fill="#00BB85"/>
<path opacity="0.3" d="M68.7 47.2H56.9V52.7H68.7V47.2Z" fill="#FF8345"/>
<path opacity="0.3" d="M89.2 47.2H77.4V52.7H89.2V47.2Z" fill="#00BB85"/>
<path opacity="0.3" d="M47.5 57.4H35.7V62.9H47.5V57.4Z" fill="#FF8345"/>
<path opacity="0.3" d="M68.7 57.4H56.9V62.9H68.7V57.4Z" fill="#00BB85"/>
<path opacity="0.3" d="M89.2 57.4H77.4V62.9H89.2V57.4Z" fill="#00BB85"/>
<path opacity="0.3" d="M65 142.6H40.6V154.4H65V142.6Z" fill="#00BB85"/>
<path opacity="0.3" d="M47.5 68.5H35.7V74H47.5V68.5Z" fill="#00BB85"/>
<path opacity="0.3" d="M68.7 68.5H56.9V74H68.7V68.5Z" fill="#00BB85"/>
<path opacity="0.3" d="M89.2 68.5H77.4V74H89.2V68.5Z" fill="#00BB85"/>
<path opacity="0.3" d="M47.5 78.7H35.7V84.2H47.5V78.7Z" fill="#FF8345"/>
<path opacity="0.3" d="M68.7 78.7H56.9V84.2H68.7V78.7Z" fill="#FF8345"/>
<path opacity="0.3" d="M89.2 78.7H77.4V84.2H89.2V78.7Z" fill="#00BB85"/>
<path opacity="0.3" d="M47.5 89H35.7V94.5H47.5V89Z" fill="#00BB85"/>
<path opacity="0.3" d="M68.7 89H56.9V94.5H68.7V89Z" fill="#00BB85"/>
<path opacity="0.3" d="M89.2 89H77.4V94.5H89.2V89Z" fill="#00BB85"/>
<path opacity="0.3" d="M47.5 99.2H35.7V104.7H47.5V99.2Z" fill="#FF8345"/>
<path opacity="0.3" d="M68.7 99.2H56.9V104.7H68.7V99.2Z" fill="#FF8345"/>
<path opacity="0.3" d="M89.2 99.2H77.4V104.7H89.2V99.2Z" fill="#00BB85"/>
<path opacity="0.3" d="M47.5 110.2H35.7V115.7H47.5V110.2Z" fill="#00BB85"/>
<path opacity="0.3" d="M68.7 110.2H56.9V115.7H68.7V110.2Z" fill="#FF8345"/>
<path opacity="0.3" d="M89.2 110.2H77.4V115.7H89.2V110.2Z" fill="#00BB85"/>
<path opacity="0.3" d="M47.5 121.3H35.7V126.8H47.5V121.3Z" fill="#00BB85"/>
<path opacity="0.3" d="M68.7 121.3H56.9V126.8H68.7V121.3Z" fill="#00BB85"/>
<path opacity="0.3" d="M89.2 121.3H77.4V126.8H89.2V121.3Z" fill="#00BB85"/>
<g opacity="0.3">
<g opacity="0.3">
<g opacity="0.3">
<g opacity="0.3">
<path opacity="0.3" d="M47.435 52.891H35.335V46.991H47.435V52.891ZM36.535 51.491H46.235V48.291H36.535V51.491Z" fill="#00BB85"/>
</g>
</g>
<g opacity="0.3">
<g opacity="0.3">
<path opacity="0.3" d="M68.808 52.891H56.408V46.991H68.808V52.891ZM57.608 51.491H67.508V48.291H57.608V51.491Z" fill="#FF8345"/>
</g>
</g>
<g opacity="0.3">
<g opacity="0.3">
<path opacity="0.3" d="M89.88 52.891H77.38V46.991H89.88V52.891ZM78.68 51.491H88.58V48.291H78.68V51.491Z" fill="#00BB85"/>
</g>
</g>
</g>
<g opacity="0.3">
<g opacity="0.3">
<g opacity="0.3">
<path opacity="0.3" d="M47.435 63.356H35.335V57.456H47.435V63.356ZM36.535 61.956H46.235V58.756H36.535V61.956Z" fill="#FF8345"/>
</g>
</g>
<g opacity="0.3">
<g opacity="0.3">
<path opacity="0.3" d="M68.808 63.356H56.408V57.456H68.808V63.356ZM57.608 61.956H67.508V58.756H57.608V61.956Z" fill="#00BB85"/>
</g>
</g>
<g opacity="0.3">
<g opacity="0.3">
<path opacity="0.3" d="M89.88 63.356H77.38V57.456H89.88V63.356ZM78.68 58.756V61.956H88.58V58.756" fill="#00BB85"/>
</g>
</g>
</g>
<g opacity="0.3">
<g opacity="0.3">
<g opacity="0.3">
<path opacity="0.3" d="M47.435 73.821H35.335V67.921H47.435V73.821ZM36.535 72.421H46.235V69.221H36.535V72.421Z" fill="#00BB85"/>
</g>
</g>
<g opacity="0.3">
<g opacity="0.3">
<path opacity="0.3" d="M68.808 73.821H56.408V67.921H68.808V73.821ZM57.608 72.421H67.508V69.221H57.608V72.421Z" fill="#00BB85"/>
</g>
</g>
<g opacity="0.3">
<g opacity="0.3">
<path opacity="0.3" d="M89.88 73.821H77.38V67.921H89.88V73.821ZM78.68 72.421H88.58V69.221H78.68V72.421Z" fill="#00BB85"/>
</g>
</g>
</g>
<g opacity="0.3">
<g opacity="0.3">
<g opacity="0.3">
<path opacity="0.3" d="M47.435 84.287H35.335V78.387H47.435V84.287ZM36.535 82.887H46.235V79.687H36.535V82.887Z" fill="#FF8345"/>
</g>
</g>
<g opacity="0.3">
<g opacity="0.3">
<path opacity="0.3" d="M68.808 84.287H56.408V78.387H68.808V84.287ZM57.608 82.887H67.508V79.687H57.608V82.887Z" fill="#FF8345"/>
</g>
</g>
<g opacity="0.3">
<g opacity="0.3">
<path opacity="0.3" d="M89.88 84.287H77.38V78.387H89.88V84.287ZM78.68 82.887H88.58V79.687H78.68V82.887Z" fill="#00BB85"/>
</g>
</g>
</g>
<g opacity="0.3">
<g opacity="0.3">
<g opacity="0.3">
<path opacity="0.3" d="M47.435 94.752H35.335V88.852H47.435V94.752ZM36.535 93.352H46.235V90.152H36.535V93.352Z" fill="#00BB85"/>
</g>
</g>
<g opacity="0.3">
<g opacity="0.3">
<path opacity="0.3" d="M68.808 94.752H56.408V88.852H68.808V94.752ZM57.608 93.352H67.508V90.152H57.608V93.352Z" fill="#00BB85"/>
</g>
</g>
<g opacity="0.3">
<g opacity="0.3">
<path opacity="0.3" d="M89.88 94.752H77.38V88.852H89.88V94.752ZM78.68 93.352H88.58V90.152H78.68V93.352Z" fill="#00BB85"/>
</g>
</g>
</g>
<g opacity="0.3">
<g opacity="0.3">
<g opacity="0.3">
<path opacity="0.3" d="M47.435 105.217H35.335V99.317H47.435V105.217ZM36.535 103.817H46.235V100.617H36.535V103.817Z" fill="#FF8345"/>
</g>
</g>
<g opacity="0.3">
<g opacity="0.3">
<path opacity="0.3" d="M68.808 105.217H56.408V99.317H68.808V105.217ZM57.608 103.817H67.508V100.617H57.608V103.817Z" fill="#FF8345"/>
</g>
</g>
<g opacity="0.3">
<g opacity="0.3">
<path opacity="0.3" d="M89.88 105.217H77.38V99.317H89.88V105.217ZM78.68 103.817H88.58V100.617H78.68V103.817Z" fill="#00BB85"/>
</g>
</g>
</g>
<g opacity="0.3">
<g opacity="0.3">
<g opacity="0.3">
<path opacity="0.3" d="M47.435 115.683H35.335V109.783H47.435V115.683ZM36.535 114.283H46.235V111.083H36.535V114.283Z" fill="#00BB85"/>
</g>
</g>
<g opacity="0.3">
<g opacity="0.3">
<path opacity="0.3" d="M68.808 115.683H56.408V109.783H68.808V115.683ZM57.608 114.283H67.508V111.083H57.608V114.283Z" fill="#FF8345"/>
</g>
</g>
<g opacity="0.3">
<g opacity="0.3">
<path opacity="0.3" d="M89.88 115.683H77.38V109.783H89.88V115.683ZM78.68 114.283H88.58V111.083H78.68V114.283Z" fill="#00BB85"/>
</g>
</g>
</g>
<g opacity="0.3">
<g opacity="0.3">
<g opacity="0.3">
<path opacity="0.3" d="M47.435 126.648H35.335V120.748H47.435V126.648ZM36.535 125.348H46.235V122.148H36.535V125.348Z" fill="#00BB85"/>
</g>
</g>
<g opacity="0.3">
<g opacity="0.3">
<path opacity="0.3" d="M68.808 126.648H56.408V120.748H68.808V126.648ZM57.608 125.348H67.508V122.148H57.608V125.348Z" fill="#00BB85"/>
</g>
</g>
<g opacity="0.3">
<g opacity="0.3">
<path opacity="0.3" d="M89.88 126.648H77.38V120.748H89.88V126.648ZM78.68 125.348H88.58V122.148H78.68V125.348Z" fill="#00BB85"/>
</g>
</g>
</g>
</g>
<path d="M102.055 155.504H80.755C80.255 155.504 79.855 155.104 79.855 154.604C79.855 154.104 80.255 153.704 80.755 153.704H102.055C102.555 153.704 102.955 154.104 102.955 154.604C102.955 155.104 102.555 155.504 102.055 155.504Z" fill="#683021"/>
<path d="M161.4 11.6H74.4V154.6H161.4V11.6Z" fill="white"/>
<path d="M77.45 11.566H74.55V155.966H77.45V11.566Z" fill="white"/>
<path d="M161.85 156.066H73.45V10.566H161.85V156.066ZM75.65 154.166H159.55V12.466H75.65V154.166Z" fill="#683021"/>
<path d="M73.892 125.293H161.292C162.792 125.293 163.892 126.493 163.892 127.893C163.892 129.393 162.692 130.493 161.292 130.493H73.892C72.392 130.493 71.292 129.293 71.292 127.893C71.292 126.493 72.492 125.293 73.892 125.293Z" fill="white"/>
<path d="M161.292 131.693H73.892C71.792 131.693 70.092 129.993 70.092 127.893C70.092 125.793 71.792 124.093 73.892 124.093H161.292C163.392 124.093 165.092 125.793 165.092 127.893C165.092 129.993 163.392 131.693 161.292 131.693ZM73.892 126.393C73.092 126.393 72.392 127.093 72.392 127.893C72.392 128.693 73.092 129.393 73.892 129.393H161.292C162.092 129.393 162.792 128.693 162.792 127.893C162.792 127.093 162.092 126.393 161.292 126.393H73.892Z" fill="#683021"/>
<path d="M68.516 6.298H166.716C168.216 6.298 169.316 7.498 169.316 8.898C169.316 10.398 168.116 11.498 166.716 11.498H68.516C67.016 11.498 65.916 10.298 65.916 8.898C65.916 7.498 67.116 6.298 68.516 6.298Z" fill="white"/>
<path d="M166.716 12.698H68.516C66.416 12.698 64.716 11.098 64.716 8.998C64.716 6.898 66.316 5.198 68.416 5.198H68.516H166.616C168.716 5.198 170.416 6.798 170.416 8.898C170.416 10.998 168.816 12.698 166.716 12.698C166.816 12.698 166.716 12.698 166.716 12.698ZM68.516 7.398C67.716 7.398 67.016 8.098 67.016 8.898C67.016 9.698 67.716 10.398 68.516 10.398H166.616C167.416 10.398 168.116 9.698 168.116 8.898C168.116 8.098 167.416 7.398 166.616 7.398H68.516V7.398Z" fill="#683021"/>
<path d="M105.246 1.2H129.946C132.646 1.2 134.846 3.4 134.846 6.1H100.346C100.346 3.4 102.546 1.2 105.246 1.2Z" fill="white"/>
<path d="M136.046 7.2H99.246V6.1C99.246 2.8 101.946 0.0999985 105.246 0.0999985H129.946C133.246 0.0999985 135.946 2.8 135.946 6.1L136.046 7.2ZM101.646 5H133.646C133.146 3.4 131.646 2.3 130.046 2.3H105.246C103.546 2.3 102.146 3.4 101.646 5Z" fill="#683021"/>
<path d="M104.404 138.685H130.804C132.404 138.685 133.704 139.985 133.704 141.585V154.885H101.504V141.585C101.504 139.985 102.804 138.685 104.404 138.685Z" fill="white"/>
<path d="M134.904 155.985H100.404V140.285C100.404 138.785 101.604 137.585 103.104 137.585H132.104C133.604 137.585 134.804 138.785 134.804 140.285L134.904 155.985ZM102.604 153.785H132.604V140.285C132.604 139.985 132.404 139.785 132.104 139.785H103.104C102.804 139.785 102.604 139.985 102.604 140.285V153.785Z" fill="#683021"/>
<path opacity="0.3" d="M98.4 18.6H83.4V25.6H98.4V18.6Z" fill="#00BB85"/>
<path opacity="0.3" d="M125.4 18.6H110.4V25.6H125.4V18.6Z" fill="#00BB85"/>
<path opacity="0.3" d="M151.4 18.6H136.4V25.6H151.4V18.6Z" fill="#FF8345"/>
<path opacity="0.3" d="M98.4 31.6H83.4V38.6H98.4V31.6Z" fill="#00BB85"/>
<path opacity="0.3" d="M125.4 31.6H110.4V38.6H125.4V31.6Z" fill="#00BB85"/>
<path opacity="0.3" d="M151.4 31.6H136.4V38.6H151.4V31.6Z" fill="#00BB85"/>
<path opacity="0.3" d="M133.4 139.6H102.4V154.6H133.4V139.6Z" fill="#FF8345"/>
<path opacity="0.3" d="M98.4 45.6H83.4V52.6H98.4V45.6Z" fill="#FF8345"/>
<path opacity="0.3" d="M125.4 45.6H110.4V52.6H125.4V45.6Z" fill="#00BB85"/>
<path opacity="0.3" d="M151.4 45.6H136.4V52.6H151.4V45.6Z" fill="#FF8345"/>
<path opacity="0.3" d="M98.4 58.6H83.4V65.6H98.4V58.6Z" fill="#00BB85"/>
<path opacity="0.3" d="M125.4 58.6H110.4V65.6H125.4V58.6Z" fill="#FF8345"/>
<path opacity="0.3" d="M151.4 58.6H136.4V65.6H151.4V58.6Z" fill="#00BB85"/>
<path opacity="0.3" d="M98.4 71.6H83.4V78.6H98.4V71.6Z" fill="#00BB85"/>
<path opacity="0.3" d="M125.4 71.6H110.4V78.6H125.4V71.6Z" fill="#00BB85"/>
<path opacity="0.3" d="M151.4 71.6H136.4V78.6H151.4V71.6Z" fill="#00BB85"/>
<path opacity="0.3" d="M98.4 84.6H83.4V91.6H98.4V84.6Z" fill="#FF8345"/>
<path opacity="0.3" d="M125.4 84.6H110.4V91.6H125.4V84.6Z" fill="#00BB85"/>
<path opacity="0.3" d="M151.4 84.6H136.4V91.6H151.4V84.6Z" fill="#FF8345"/>
<path opacity="0.3" d="M98.4 98.6H83.4V105.6H98.4V98.6Z" fill="#00BB85"/>
<path opacity="0.3" d="M125.4 98.6H110.4V105.6H125.4V98.6Z" fill="#00BB85"/>
<path opacity="0.3" d="M151.4 98.6H136.4V105.6H151.4V98.6Z" fill="#00BB85"/>
<path opacity="0.3" d="M98.4 112.6H83.4V119.6H98.4V112.6Z" fill="#00BB85"/>
<path opacity="0.3" d="M125.4 112.6H110.4V119.6H125.4V112.6Z" fill="#FF8345"/>
<path opacity="0.3" d="M151.4 112.6H136.4V119.6H151.4V112.6Z" fill="#00BB85"/>
<path d="M98.435 25.891H83.035V18.391H98.435V25.891ZM84.535 24.091H96.835V20.091H84.535V24.091Z" fill="#00BB85"/>
<path d="M125.408 25.891H109.708V18.391H125.408V25.891ZM111.308 24.091H123.808V20.091H111.308V24.091Z" fill="#00BB85"/>
<path d="M152.28 25.891H136.38V18.391H152.18L152.28 25.891ZM138.08 24.091H150.68V20.091H138.08V24.091Z" fill="#FF8345"/>
<path d="M98.435 39.156H83.035V31.656H98.435V39.156ZM84.535 37.356H96.835V33.356H84.535V37.356Z" fill="#00BB85"/>
<path d="M125.408 39.156H109.708V31.656H125.408V39.156ZM111.308 37.356H123.808V33.356H111.308V37.356Z" fill="#00BB85"/>
<path d="M152.28 39.156H136.38V31.656H152.18L152.28 39.156ZM138.08 33.356V37.356H150.68V33.356" fill="#00BB85"/>
<path d="M98.435 52.421H83.035V44.921H98.435V52.421ZM84.535 50.621H96.835V46.621H84.535V50.621Z" fill="#FF8345"/>
<path d="M125.408 52.421H109.708V44.921H125.408V52.421ZM111.308 50.621H123.808V46.621H111.308V50.621Z" fill="#00BB85"/>
<path d="M152.28 52.421H136.38V44.921H152.18L152.28 52.421ZM138.08 50.621H150.68V46.621H138.08V50.621Z" fill="#FF8345"/>
<path d="M98.435 65.687H83.035V58.187H98.435V65.687ZM84.535 63.887H96.835V59.887H84.535V63.887Z" fill="#00BB85"/>
<path d="M125.408 65.687H109.708V58.187H125.408V65.687ZM111.308 63.887H123.808V59.887H111.308V63.887Z" fill="#FF8345"/>
<path d="M152.28 65.687H136.38V58.187H152.18L152.28 65.687ZM138.08 63.887H150.68V59.887H138.08V63.887Z" fill="#00BB85"/>
<path d="M98.435 78.952H83.035V71.452H98.435V78.952ZM84.535 77.152H96.835V73.152H84.535V77.152Z" fill="#00BB85"/>
<path d="M125.408 78.952H109.708V71.452H125.408V78.952ZM111.308 77.152H123.808V73.152H111.308V77.152Z" fill="#00BB85"/>
<path d="M152.28 78.952H136.38V71.452H152.18L152.28 78.952ZM138.08 77.152H150.68V73.152H138.08V77.152Z" fill="#00BB85"/>
<path d="M98.435 92.217H83.035V84.717H98.435V92.217ZM84.535 90.417H96.835V86.417H84.535V90.417Z" fill="#FF8345"/>
<path d="M125.408 92.217H109.708V84.717H125.408V92.217ZM111.308 90.417H123.808V86.417H111.308V90.417Z" fill="#00BB85"/>
<path d="M152.28 92.217H136.38V84.717H152.18L152.28 92.217ZM138.08 90.417H150.68V86.417H138.08V90.417Z" fill="#FF8345"/>
<path d="M98.435 105.483H83.035V97.983H98.435V105.483ZM84.535 103.683H96.835V99.683H84.535V103.683Z" fill="#00BB85"/>
<path d="M125.408 105.483H109.708V97.983H125.408V105.483ZM111.308 103.683H123.808V99.683H111.308V103.683Z" fill="#00BB85"/>
<path d="M152.28 105.483H136.38V97.983H152.18L152.28 105.483ZM138.08 103.683H150.68V99.683H138.08V103.683Z" fill="#00BB85"/>
<path d="M98.435 119.448H83.035V111.948H98.435V119.448ZM84.535 117.648H96.835V113.648H84.535V117.648Z" fill="#00BB85"/>
<path d="M125.408 119.448H109.708V111.948H125.408V119.448ZM111.308 117.648H123.808V113.648H111.308V117.648Z" fill="#FF8345"/>
<path d="M152.28 119.448H136.38V111.948H152.18L152.28 119.448ZM138.08 117.648H150.68V113.648H138.08V117.648Z" fill="#00BB85"/>
<path d="M167.655 156.004H140.655C140.055 156.004 139.555 155.504 139.555 154.904C139.555 154.304 140.055 153.804 140.655 153.804H167.655C168.255 153.804 168.755 154.304 168.755 154.904C168.755 155.504 168.255 156.004 167.655 156.004Z" fill="#683021"/>
</svg>
