<svg 
 xmlns="http://www.w3.org/2000/svg"
 xmlns:xlink="http://www.w3.org/1999/xlink"
 width="56px" height="53px">
<path fill-rule="evenodd"  opacity="0.2" fill="rgb(0, 180, 255)"
 d="M55.241,51.036 L5.524,51.036 L17.432,46.006 C17.554,46.006 17.677,45.883 17.677,45.761 L52.418,10.918 C52.786,10.550 52.786,9.936 52.418,9.569 L43.088,0.245 C42.965,0.122 42.720,-0.001 42.474,-0.001 C42.229,-0.001 41.983,0.122 41.860,0.245 L7.120,35.209 C6.997,35.332 6.997,35.455 6.874,35.455 L0.123,51.649 C0.123,51.772 0.123,51.895 0.000,52.018 C0.000,52.140 0.000,52.140 0.000,52.263 C0.000,52.263 0.000,52.263 0.000,52.386 C0.000,52.508 0.123,52.631 0.123,52.631 C0.246,52.753 0.368,52.753 0.368,52.876 C0.491,52.876 0.614,52.999 0.737,52.999 L54.995,52.999 C55.487,52.999 55.978,52.631 55.978,52.018 C56.100,51.404 55.732,51.036 55.241,51.036 ZM17.063,43.920 L13.626,40.485 L41.860,12.268 L45.298,15.703 L17.063,43.920 ZM42.597,2.330 L50.699,10.427 L46.648,14.476 L38.546,6.378 L42.597,2.330 ZM37.196,7.605 L40.633,11.041 L12.399,39.258 L8.961,35.823 L37.196,7.605 ZM8.102,37.418 L15.590,44.902 L9.330,47.478 L5.401,43.675 L8.102,37.418 ZM4.665,45.515 L7.366,48.214 L2.701,50.177 L4.665,45.515 Z"/>
</svg>