<svg 
 xmlns="http://www.w3.org/2000/svg"
 xmlns:xlink="http://www.w3.org/1999/xlink"
 width="68px" height="65px">
<path fill-rule="evenodd"  opacity="0.102" fill="rgb(4, 194, 127)"
 d="M62.929,48.375 L46.137,48.375 L52.787,63.170 C53.037,63.835 52.787,64.584 52.122,64.915 C51.956,64.999 51.790,64.999 51.623,64.999 C51.125,64.999 50.709,64.749 50.460,64.251 L43.311,48.375 L24.689,48.375 L17.540,64.251 C17.374,64.749 16.875,64.999 16.376,64.999 C16.210,64.999 16.044,64.999 15.878,64.915 C15.213,64.584 14.880,63.835 15.213,63.170 L21.863,48.375 L5.071,48.375 C2.244,48.375 -0.000,46.380 -0.000,43.970 C-0.000,41.559 2.161,39.647 4.904,39.565 L4.904,1.329 C4.904,0.582 5.486,-0.001 6.235,-0.001 L61.765,-0.001 C62.513,-0.001 63.095,0.582 63.095,1.329 L63.095,39.565 C65.839,39.565 68.000,41.559 68.000,43.970 C68.000,46.380 65.672,48.375 62.929,48.375 ZM60.518,2.576 L7.481,2.576 L7.481,39.481 L10.391,39.481 L10.391,7.231 C10.391,6.482 10.973,5.900 11.721,5.900 L56.279,5.900 C57.027,5.900 57.609,6.482 57.609,7.231 L57.609,39.481 L60.518,39.481 L60.518,2.576 ZM13.051,8.560 L13.051,39.565 L54.949,39.565 L54.949,8.560 L13.051,8.560 ZM63.012,42.058 L5.071,42.058 C3.741,42.058 2.660,42.889 2.660,43.887 C2.660,44.883 3.741,45.715 5.071,45.715 L44.142,45.715 L62.929,45.715 C64.259,45.715 65.423,44.883 65.423,43.887 C65.423,42.889 64.342,42.058 63.012,42.058 ZM47.883,28.675 L20.117,28.675 C19.369,28.675 18.787,28.093 18.787,27.346 C18.787,26.597 19.369,26.016 20.117,26.016 L47.883,26.016 C48.631,26.016 49.213,26.597 49.213,27.346 C49.213,28.093 48.631,28.675 47.883,28.675 ZM47.883,22.276 L20.117,22.276 C19.369,22.276 18.787,21.694 18.787,20.945 C18.787,20.197 19.369,19.615 20.117,19.615 L47.883,19.615 C48.631,19.615 49.213,20.197 49.213,20.945 C49.213,21.694 48.631,22.276 47.883,22.276 ZM30.093,15.791 L20.117,15.791 C19.369,15.791 18.787,15.210 18.787,14.462 C18.787,13.713 19.369,13.132 20.117,13.132 L30.093,13.132 C30.841,13.132 31.423,13.713 31.423,14.462 C31.423,15.210 30.841,15.791 30.093,15.791 Z"/>
</svg>