<svg width="1018" height="661" viewBox="0 0 1018 661" fill="none" xmlns="http://www.w3.org/2000/svg">
<path fill-rule="evenodd" clip-rule="evenodd" d="M430.965 45.154C600.743 45.154 738.576 182.991 738.576 352.767C738.576 522.543 600.742 660.382 430.965 660.382C261.188 660.382 123.348 522.545 123.348 352.767C123.348 182.989 261.187 45.154 430.965 45.154ZM430.965 163.286C535.542 163.286 620.446 248.186 620.446 352.767C620.446 457.348 535.546 542.25 430.965 542.25C326.384 542.25 241.48 457.35 241.48 352.767C241.48 248.184 326.384 163.286 430.965 163.286V163.286Z" fill="#FFAB3A" fill-opacity="0.3"/>
<path d="M508.991 660.38C790.099 660.38 1017.98 651.289 1017.98 640.074C1017.98 628.859 790.099 619.768 508.991 619.768C227.883 619.768 0 628.859 0 640.074C0 651.289 227.883 660.38 508.991 660.38Z" fill="#EBC500"/>
<path fill-rule="evenodd" clip-rule="evenodd" d="M847.973 12.255C847.973 9.00579 846.682 5.8897 844.385 3.5918C842.088 1.2939 838.972 0.00230221 835.723 0.000976562H429.948C426.698 0.00177186 423.581 1.29316 421.283 3.59125C418.985 5.88933 417.694 9.00598 417.693 12.256V291.308C417.694 294.558 418.986 297.674 421.284 299.972C423.582 302.27 426.698 303.561 429.948 303.562H835.723C838.972 303.561 842.088 302.269 844.385 299.971C846.682 297.673 847.973 294.557 847.973 291.308V12.255Z" fill="white"/>
<path fill-rule="evenodd" clip-rule="evenodd" d="M793.31 176.704H759.04V187.361H795.034L793.31 176.704Z" fill="#1A996C"/>
<path fill-rule="evenodd" clip-rule="evenodd" d="M827.603 193.869C827.618 192.189 827.036 190.559 825.961 189.269C825.469 188.683 824.857 188.209 824.166 187.879C823.476 187.55 822.722 187.372 821.957 187.359H759.057V218.179C759.039 219.861 759.621 221.495 760.699 222.787C761.188 223.375 761.799 223.851 762.49 224.18C763.18 224.509 763.934 224.685 764.699 224.695H821.957C822.722 224.682 823.476 224.505 824.167 224.176C824.858 223.847 825.471 223.373 825.963 222.787C827.04 221.494 827.622 219.861 827.605 218.179L827.603 193.869Z" fill="#04C27F"/>
<path fill-rule="evenodd" clip-rule="evenodd" d="M827.596 241.646C827.593 240.435 827.11 239.275 826.254 238.42C825.398 237.564 824.238 237.082 823.027 237.08H763.592C762.993 237.079 762.4 237.197 761.846 237.427C761.293 237.656 760.79 237.993 760.367 238.417C759.944 238.841 759.609 239.345 759.381 239.899C759.154 240.453 759.038 241.047 759.04 241.646C759.037 242.245 759.152 242.838 759.38 243.392C759.608 243.946 759.943 244.449 760.367 244.872C761.222 245.727 762.381 246.209 763.591 246.211H823.026C824.236 246.208 825.395 245.726 826.252 244.871C827.108 244.016 827.591 242.857 827.595 241.647L827.596 241.646Z" fill="#FFC83A"/>
<path fill-rule="evenodd" clip-rule="evenodd" d="M836.791 256.53C836.792 256.172 836.721 255.817 836.583 255.487C836.444 255.157 836.24 254.859 835.984 254.609C835.732 254.355 835.433 254.154 835.103 254.017C834.772 253.879 834.418 253.809 834.061 253.809H752.637C752.28 253.809 751.926 253.879 751.596 254.016C751.267 254.154 750.967 254.355 750.716 254.609C750.212 255.121 749.93 255.811 749.93 256.53V256.53C749.93 257.249 750.212 257.94 750.716 258.453C750.968 258.706 751.267 258.908 751.597 259.045C751.926 259.182 752.28 259.253 752.637 259.253H834.061C834.418 259.253 834.772 259.182 835.102 259.045C835.432 258.908 835.732 258.707 835.984 258.453C836.241 258.203 836.444 257.904 836.583 257.573C836.721 257.243 836.792 256.888 836.791 256.53V256.53Z" fill="#DDE4F0"/>
<path fill-rule="evenodd" clip-rule="evenodd" d="M675.561 182.484H639.461V193.71H677.38L675.561 182.484Z" fill="#EEF4FE"/>
<path fill-rule="evenodd" clip-rule="evenodd" d="M711.689 199.656C711.692 198.874 711.539 198.099 711.241 197.376C710.943 196.653 710.505 195.997 709.952 195.444C709.399 194.891 708.742 194.453 708.019 194.155C707.296 193.857 706.521 193.705 705.739 193.708H639.469V221.868C639.466 222.65 639.618 223.426 639.916 224.149C640.214 224.873 640.652 225.53 641.205 226.084C641.758 226.637 642.415 227.076 643.138 227.374C643.861 227.673 644.637 227.825 645.419 227.823H705.74C706.523 227.826 707.298 227.674 708.021 227.375C708.745 227.077 709.402 226.638 709.955 226.085C710.508 225.531 710.946 224.873 711.244 224.15C711.542 223.426 711.693 222.651 711.69 221.868L711.689 199.656Z" fill="#EEF4FE"/>
<path fill-rule="evenodd" clip-rule="evenodd" d="M711.681 245.681C711.679 244.405 711.171 243.183 710.269 242.281C709.367 241.38 708.144 240.873 706.868 240.872H644.251C643.62 240.873 642.996 240.998 642.414 241.24C641.832 241.482 641.303 241.837 640.858 242.284C640.413 242.73 640.06 243.26 639.82 243.843C639.58 244.426 639.457 245.051 639.458 245.681V245.681C639.457 246.312 639.58 246.936 639.82 247.519C640.06 248.102 640.413 248.632 640.858 249.078C641.303 249.525 641.832 249.88 642.414 250.122C642.996 250.364 643.62 250.489 644.251 250.49H706.868C708.144 250.489 709.367 249.982 710.269 249.081C711.171 248.179 711.679 246.957 711.681 245.681V245.681Z" fill="#EEF4FE"/>
<path fill-rule="evenodd" clip-rule="evenodd" d="M721.369 261.365C721.37 260.987 721.295 260.613 721.148 260.265C721.002 259.917 720.787 259.601 720.516 259.338C720.25 259.072 719.935 258.861 719.588 258.717C719.24 258.573 718.868 258.499 718.492 258.5H632.706C632.33 258.499 631.958 258.573 631.61 258.717C631.263 258.861 630.947 259.072 630.682 259.338C630.151 259.879 629.854 260.607 629.855 261.365V261.365C629.854 262.123 630.151 262.851 630.682 263.392C630.947 263.658 631.263 263.869 631.61 264.013C631.958 264.157 632.33 264.231 632.706 264.23H718.488C718.864 264.231 719.236 264.157 719.584 264.013C719.931 263.869 720.247 263.658 720.512 263.392C720.783 263.129 720.998 262.813 721.144 262.465C721.291 262.117 721.366 261.743 721.365 261.365H721.369Z" fill="#EEF4FE"/>
<path fill-rule="evenodd" clip-rule="evenodd" d="M575.285 182.484H539.185V193.71H577.098L575.285 182.484Z" fill="#EEF4FE"/>
<path fill-rule="evenodd" clip-rule="evenodd" d="M611.413 199.656C611.415 198.874 611.263 198.099 610.965 197.376C610.667 196.653 610.229 195.997 609.676 195.444C609.123 194.891 608.466 194.453 607.743 194.155C607.02 193.857 606.245 193.705 605.463 193.708H539.193V221.868C539.19 222.65 539.341 223.426 539.639 224.15C539.936 224.873 540.374 225.531 540.927 226.084C541.48 226.638 542.138 227.077 542.861 227.375C543.584 227.673 544.36 227.826 545.142 227.823H605.463C606.246 227.826 607.021 227.674 607.744 227.375C608.468 227.077 609.125 226.638 609.678 226.085C610.231 225.531 610.669 224.873 610.967 224.15C611.265 223.426 611.416 222.651 611.413 221.868V199.656Z" fill="#EEF4FE"/>
<path fill-rule="evenodd" clip-rule="evenodd" d="M611.405 245.681C611.403 244.405 610.895 243.183 609.993 242.281C609.091 241.38 607.868 240.873 606.592 240.872H543.975C543.345 240.873 542.72 240.998 542.138 241.24C541.556 241.482 541.027 241.837 540.582 242.284C540.137 242.73 539.784 243.26 539.544 243.843C539.304 244.426 539.181 245.051 539.182 245.681V245.681C539.181 246.312 539.304 246.936 539.544 247.519C539.784 248.102 540.137 248.632 540.582 249.078C541.027 249.525 541.556 249.88 542.138 250.122C542.72 250.364 543.345 250.489 543.975 250.49H606.592C607.868 250.489 609.091 249.982 609.993 249.081C610.895 248.179 611.403 246.957 611.405 245.681V245.681Z" fill="#EEF4FE"/>
<path fill-rule="evenodd" clip-rule="evenodd" d="M621.091 261.365C621.092 260.987 621.018 260.613 620.871 260.265C620.725 259.917 620.51 259.602 620.24 259.338C619.975 259.072 619.659 258.861 619.312 258.717C618.964 258.573 618.592 258.499 618.216 258.5H532.434C532.058 258.499 531.686 258.573 531.338 258.717C530.991 258.861 530.676 259.072 530.41 259.338C529.88 259.879 529.583 260.607 529.583 261.365V261.365C529.583 262.123 529.879 262.851 530.41 263.392C530.676 263.658 530.991 263.869 531.338 264.013C531.686 264.157 532.058 264.231 532.434 264.23H618.217C618.593 264.231 618.965 264.157 619.313 264.013C619.66 263.869 619.976 263.658 620.241 263.392C620.511 263.128 620.726 262.813 620.872 262.465C621.019 262.117 621.093 261.743 621.092 261.365H621.091Z" fill="#EEF4FE"/>
<path fill-rule="evenodd" clip-rule="evenodd" d="M514.442 62.475C514.442 61.7912 514.307 61.1141 514.045 60.4825C513.783 59.8509 513.399 59.2771 512.915 58.7941C512.431 58.3111 511.856 57.9283 511.224 57.6676C510.592 57.407 509.915 57.2735 509.231 57.275H448.646C447.962 57.2735 447.285 57.407 446.653 57.6676C446.02 57.9283 445.446 58.3111 444.962 58.7941C444.478 59.2771 444.094 59.8509 443.832 60.4825C443.57 61.1141 443.435 61.7912 443.435 62.475V62.475C443.437 63.8555 443.986 65.1789 444.964 66.154C445.941 67.1292 447.265 67.6763 448.646 67.675H509.23C510.611 67.6763 511.935 67.1292 512.912 66.154C513.89 65.1789 514.439 63.8555 514.441 62.475H514.442Z" fill="#EEF4FE"/>
<path fill-rule="evenodd" clip-rule="evenodd" d="M514.442 97.0889C514.442 96.4051 514.307 95.728 514.045 95.0964C513.783 94.4648 513.399 93.8911 512.915 93.4081C512.431 92.9251 511.856 92.5423 511.224 92.2816C510.592 92.0209 509.915 91.8875 509.231 91.8889H448.646C447.962 91.8875 447.285 92.0209 446.653 92.2816C446.02 92.5423 445.446 92.9251 444.962 93.4081C444.478 93.8911 444.094 94.4648 443.832 95.0964C443.57 95.728 443.435 96.4051 443.435 97.0889V97.0889C443.437 98.4695 443.986 99.7929 444.964 100.768C445.941 101.743 447.265 102.29 448.646 102.289H509.23C510.611 102.29 511.935 101.743 512.912 100.768C513.89 99.7929 514.439 98.4695 514.441 97.0889H514.442Z" fill="#D3E3FF"/>
<path fill-rule="evenodd" clip-rule="evenodd" d="M514.442 131.707C514.442 131.023 514.307 130.346 514.045 129.714C513.783 129.083 513.399 128.509 512.915 128.026C512.431 127.543 511.856 127.16 511.224 126.9C510.592 126.639 509.915 126.506 509.231 126.507H448.646C447.962 126.506 447.285 126.639 446.653 126.9C446.02 127.16 445.446 127.543 444.962 128.026C444.478 128.509 444.094 129.083 443.832 129.714C443.57 130.346 443.435 131.023 443.435 131.707V131.707C443.437 133.088 443.986 134.411 444.964 135.386C445.941 136.361 447.265 136.908 448.646 136.907H509.23C510.611 136.908 511.935 136.361 512.912 135.386C513.89 134.411 514.439 133.088 514.441 131.707H514.442Z" fill="#EEF4FE"/>
<path fill-rule="evenodd" clip-rule="evenodd" d="M514.442 166.326C514.442 165.642 514.307 164.965 514.045 164.333C513.783 163.702 513.399 163.128 512.915 162.645C512.431 162.162 511.856 161.779 511.224 161.519C510.592 161.258 509.915 161.125 509.231 161.126H448.646C447.962 161.125 447.285 161.258 446.653 161.519C446.02 161.779 445.446 162.162 444.962 162.645C444.478 163.128 444.094 163.702 443.832 164.333C443.57 164.965 443.435 165.642 443.435 166.326V166.326C443.437 167.707 443.986 169.03 444.964 170.005C445.941 170.98 447.265 171.527 448.646 171.526H509.23C510.611 171.527 511.935 170.98 512.912 170.005C513.89 169.03 514.439 167.707 514.441 166.326H514.442Z" fill="#EEF4FE"/>
<path fill-rule="evenodd" clip-rule="evenodd" d="M514.442 200.945C514.442 200.261 514.307 199.584 514.045 198.953C513.783 198.321 513.399 197.747 512.915 197.264C512.431 196.781 511.856 196.398 511.224 196.138C510.592 195.877 509.915 195.744 509.231 195.745H448.646C447.962 195.744 447.285 195.877 446.653 196.138C446.02 196.398 445.446 196.781 444.962 197.264C444.478 197.747 444.094 198.321 443.832 198.953C443.57 199.584 443.435 200.261 443.435 200.945V200.945C443.436 201.629 443.571 202.305 443.833 202.937C444.095 203.568 444.479 204.142 444.963 204.624C445.447 205.107 446.022 205.49 446.653 205.751C447.285 206.012 447.962 206.146 448.646 206.145H509.23C509.914 206.146 510.591 206.012 511.223 205.751C511.854 205.49 512.429 205.107 512.913 204.624C513.396 204.142 513.781 203.568 514.043 202.937C514.305 202.305 514.44 201.629 514.441 200.945H514.442Z" fill="#EEF4FE"/>
<path d="M792.208 20.001H566.967C565.632 20.001 564.55 21.0831 564.55 22.418V154.289C564.55 155.624 565.632 156.706 566.967 156.706H792.208C793.543 156.706 794.625 155.624 794.625 154.289V22.418C794.625 21.0831 793.543 20.001 792.208 20.001Z" fill="#FFF3B4"/>
<g opacity="0.7">
<path opacity="0.7" d="M742.536 42.754C737.429 41.5901 732.099 41.879 727.148 43.588C721.821 45.452 715.979 49.337 718.615 57.26C723.138 70.842 706.271 73.545 706.271 95.597C706.271 117.649 751.201 118.216 764.61 102.711C778.019 87.206 756.66 76.817 756.036 64.011C755.518 53.416 753.472 45.254 742.536 42.754Z" fill="#1D263F"/>
<g opacity="0.7">
<path opacity="0.7" d="M689.756 102.909V115.994L714.812 105.669L711.797 90.5219L689.756 102.909Z" fill="#FABCAC"/>
<path opacity="0.7" d="M729.07 80.8149L711.797 90.5219L714.811 105.669L725.883 101.107L729.07 80.8149Z" fill="#7698FF"/>
</g>
<g opacity="0.7">
<path opacity="0.7" d="M583.009 361.678H578.442L589.061 225.24H593.628L583.009 361.678Z" fill="#2D3963"/>
<path opacity="0.7" d="M679.954 361.678H675.387L686.008 225.24H690.575L679.954 361.678Z" fill="#2D3963"/>
<path opacity="0.7" d="M730.686 361.678H726.119L715.501 225.24H720.068L730.686 361.678Z" fill="#2D3963"/>
<path opacity="0.7" d="M619.613 225.237H720.068L705.91 45.2629H605.455L619.613 225.237Z" fill="#B9CBFF"/>
<path opacity="0.7" d="M693.336 229.255H585.236L603.215 45.2629H703.669L693.336 229.255Z" fill="#E7EEFF"/>
</g>
<g opacity="0.7">
<g opacity="0.7">
<path opacity="0.7" d="M688.29 68.774H614.169L614.698 62.9839H688.819L688.29 68.774Z" fill="#9EB6FF"/>
<g opacity="0.7">
<path opacity="0.7" d="M687.195 80.766H621.595L622.032 75.981H687.632L687.195 80.766Z" fill="#BACDFF"/>
<path opacity="0.7" d="M617.624 80.766H613.074L613.511 75.981H618.061L617.624 80.766Z" fill="#BACDFF"/>
</g>
<g opacity="0.7">
<path opacity="0.7" d="M686.225 91.3809H620.625L621.062 86.5959H686.662L686.225 91.3809Z" fill="#BACDFF"/>
<path opacity="0.7" d="M616.653 91.3809H612.104L612.541 86.5959H617.091L616.653 91.3809Z" fill="#BACDFF"/>
</g>
</g>
<g opacity="0.7">
<path opacity="0.7" d="M684.935 103.902H610.814L611.343 98.1119H685.464L684.935 103.902Z" fill="#9EB6FF"/>
<g opacity="0.7">
<path opacity="0.7" d="M683.839 115.894H618.239L618.677 111.109H684.277L683.839 115.894Z" fill="#BACDFF"/>
<path opacity="0.7" d="M614.269 115.894H609.719L610.156 111.109H614.706L614.269 115.894Z" fill="#BACDFF"/>
</g>
<g opacity="0.7">
<path opacity="0.7" d="M682.87 126.509H617.27L617.707 121.724H683.307L682.87 126.509Z" fill="#BACDFF"/>
<path opacity="0.7" d="M613.299 126.509H608.749L609.186 121.724H613.736L613.299 126.509Z" fill="#BACDFF"/>
</g>
<g opacity="0.7">
<path opacity="0.7" d="M681.9 137.124H616.3L616.737 132.339H682.337L681.9 137.124Z" fill="#BACDFF"/>
<path opacity="0.7" d="M612.328 137.124H607.778L608.215 132.339H612.765L612.328 137.124Z" fill="#BACDFF"/>
</g>
</g>
</g>
<path opacity="0.7" d="M739.006 78.844C732.68 78.7846 726.577 81.1785 721.978 85.523C717.38 89.8675 714.643 95.8248 714.343 102.144C714.311 102.775 714.292 103.423 714.292 104.087C714.292 122.653 720.067 146.273 720.067 146.273L749.627 146.589L756.346 96.198C757.046 87.498 750.875 79.773 742.605 79.042C741.46 78.938 740.26 78.873 739.006 78.844Z" fill="#7698FF"/>
<path opacity="0.7" d="M730.641 78.8359C729.339 79.1492 728.186 79.9043 727.378 80.9724C726.57 82.0405 726.157 83.3557 726.21 84.6939C726.21 90.1109 733.132 86.5939 733.132 86.5939C733.132 86.5939 734.644 91.3779 739.632 88.9859C744.62 86.5939 747.824 78.3859 742.211 77.5519C738.426 77.1339 734.596 77.5734 731.004 78.8379" fill="#C9D5FF"/>
<path opacity="0.7" d="M730.642 67.502H742.207V82.125C742.207 82.9768 741.869 83.7938 741.266 84.3962C740.664 84.9985 739.847 85.337 738.995 85.337H732.449C732.212 85.337 731.977 85.2902 731.757 85.1993C731.538 85.1084 731.339 84.9752 731.171 84.8073C731.003 84.6394 730.87 84.4401 730.779 84.2208C730.689 84.0014 730.642 83.7663 730.642 83.529V67.502Z" fill="#FABCAC"/>
<g opacity="0.7">
<path opacity="0.7" d="M734.882 75.111C732.054 75.1036 729.344 73.977 727.344 71.9774C725.344 69.9778 724.218 67.2679 724.21 64.44V56.909C724.218 54.081 725.344 51.3711 727.344 49.3715C729.344 47.372 732.054 46.2454 734.882 46.238V46.238C737.71 46.2454 740.42 47.372 742.42 49.3715C744.42 51.3711 745.546 54.081 745.554 56.909V64.44C745.546 67.2679 744.42 69.9778 742.42 71.9774C740.42 73.977 737.71 75.1036 734.882 75.111V75.111Z" fill="#FABCAC"/>
<path opacity="0.7" d="M745.553 65.1779C747.258 65.1779 748.64 63.6293 748.64 61.7189C748.64 59.8086 747.258 58.2599 745.553 58.2599C743.848 58.2599 742.466 59.8086 742.466 61.7189C742.466 63.6293 743.848 65.1779 745.553 65.1779Z" fill="#FABCAC"/>
</g>
<path opacity="0.7" d="M715.654 160.358C715.654 160.358 714.854 199.615 714.854 264.606C714.854 329.597 716.97 355.899 716.97 355.899C716.97 355.899 702.779 356.754 702.779 361.676H722.857L739.669 160.357L715.654 160.358Z" fill="#FABCAC"/>
<path opacity="0.7" d="M726.182 160.358C735.72 241.505 743.045 301.458 756.551 355.9C756.551 355.9 742.361 356.755 742.361 361.677H762.436L752.436 160.358H726.182Z" fill="#FABCAC"/>
<path opacity="0.7" d="M749.627 146.588L720.067 146.272C720.067 146.272 702.785 175.945 714.292 254.65C760.524 254.65 757.137 254.998 757.137 254.998C757.137 254.998 771.993 187.943 749.627 146.588Z" fill="#1D263F"/>
<path opacity="0.7" d="M718.571 53.671C718.571 53.671 723.345 63.029 740.96 51.385C758.575 39.741 716.954 42.777 718.571 53.671Z" fill="#1D263F"/>
<path opacity="0.7" d="M730.228 60.115C730.228 60.115 726.435 67.629 730.228 67.023Z" fill="#F1A191"/>
<path opacity="0.7" d="M729.715 68.774H736.549C736.549 68.774 736.116 70.841 733.132 70.841C730.148 70.841 729.715 68.774 729.715 68.774Z" fill="white"/>
<path opacity="0.7" d="M745.177 59.52C745.177 59.52 744.052 59.536 744.052 61.536C745.262 61.536 745.262 63.082 745.262 63.082C745.702 62.9954 746.096 62.7515 746.37 62.3957C746.643 62.0399 746.778 61.5967 746.748 61.149C746.767 60.9353 746.739 60.7201 746.668 60.5179C746.596 60.3156 746.482 60.1311 746.333 59.9767C746.185 59.8223 746.004 59.7017 745.805 59.6229C745.605 59.5441 745.391 59.509 745.177 59.52V59.52Z" fill="#F1A191"/>
<path opacity="0.7" d="M713.921 356.218V359.285H723.095V361.68H702.784C702.784 361.68 702.347 356.218 713.921 356.218Z" fill="#7698FF"/>
<path opacity="0.7" d="M753.265 356.218V359.285H762.319L762.437 361.677H742.129C742.129 361.677 741.691 356.218 753.265 356.218Z" fill="#7698FF"/>
<path opacity="0.7" d="M751.636 83.803C745.527 80.132 741.244 91.622 738.425 104.703L755.564 109.275C757.272 97.413 756.535 86.748 751.636 83.803Z" fill="#7698FF"/>
<path opacity="0.7" d="M738.425 104.706C736.363 114.925 734.879 125.253 733.98 135.639C733.98 135.639 703.68 126.21 692.958 124.117L691.239 122.951C689.462 121.727 687.554 120.706 685.55 119.907C684.119 119.347 682.734 118.967 682.338 119.384C681.661 120.096 683.495 121.006 684.465 121.419C684.272 121.437 684.078 121.456 683.903 121.477C681.543 121.15 675.398 120.124 674.764 121.306C673.778 123.152 679.695 129.196 691.314 128.678C691.314 128.678 721.476 144.829 735.085 148.698C743.516 151.098 752.785 128.59 755.566 109.278L738.425 104.706Z" fill="#FABCAC"/>
</g>
<g filter="url(#filter0_d_27_8363)">
<path d="M679.588 123.165C697.409 123.165 711.855 107.972 711.855 89.23C711.855 70.4882 697.409 55.295 679.588 55.295C661.767 55.295 647.321 70.4882 647.321 89.23C647.321 107.972 661.767 123.165 679.588 123.165Z" fill="white"/>
</g>
<path d="M674.211 89.231V76.454L684.732 82.842L695.253 89.231L684.732 95.619L674.211 102.008V89.231Z" fill="#00B87D"/>
<path d="M781.897 138.865H577.278V154.496H781.897V138.865Z" fill="white"/>
<path d="M775.706 144.009H582.613C581.939 144.009 581.393 144.555 581.393 145.229V148.414C581.393 149.088 581.939 149.634 582.613 149.634H775.706C776.38 149.634 776.926 149.088 776.926 148.414V145.229C776.926 144.555 776.38 144.009 775.706 144.009Z" fill="#E7EEFF"/>
<path d="M582.613 144.009H681.405V149.634H582.613C582.452 149.634 582.293 149.602 582.145 149.541C581.997 149.479 581.862 149.389 581.749 149.275C581.635 149.161 581.545 149.026 581.484 148.877C581.423 148.729 581.392 148.57 581.393 148.409V145.229C581.393 144.905 581.522 144.595 581.75 144.366C581.979 144.138 582.289 144.009 582.613 144.009V144.009Z" fill="#00B87D"/>
<path fill-rule="evenodd" clip-rule="evenodd" d="M514.442 235.562C514.442 234.878 514.307 234.201 514.045 233.569C513.783 232.938 513.399 232.364 512.915 231.881C512.431 231.398 511.856 231.015 511.224 230.755C510.592 230.494 509.915 230.361 509.231 230.362H448.646C447.962 230.361 447.285 230.494 446.653 230.755C446.02 231.015 445.446 231.398 444.962 231.881C444.478 232.364 444.094 232.938 443.832 233.569C443.57 234.201 443.435 234.878 443.435 235.562V235.562C443.436 236.246 443.571 236.922 443.833 237.554C444.095 238.185 444.479 238.758 444.963 239.241C445.447 239.724 446.022 240.107 446.653 240.368C447.285 240.629 447.962 240.763 448.646 240.762H509.23C509.914 240.763 510.591 240.629 511.223 240.368C511.854 240.107 512.429 239.724 512.913 239.241C513.396 238.758 513.78 238.185 514.043 237.554C514.305 236.922 514.44 236.246 514.441 235.562H514.442Z" fill="#EEF4FE"/>
<path fill-rule="evenodd" clip-rule="evenodd" d="M944.69 568.97L939.672 604.5C938.126 615.283 936.599 626.065 935.635 632.884C935.355 634.88 934.364 636.707 932.844 638.03C931.324 639.353 929.377 640.082 927.362 640.084H866.69C864.675 640.082 862.728 639.353 861.208 638.03C859.688 636.707 858.697 634.88 858.417 632.884C856.835 621.792 853.78 600.245 851.653 585.244C850.326 575.807 849.362 568.97 849.362 568.97H944.69Z" fill="#E6971A"/>
<path fill-rule="evenodd" clip-rule="evenodd" d="M944.69 568.97L939.672 604.5C929.598 599.5 916.434 592.7 906.124 587.317C895.267 581.666 882.85 579.749 870.794 581.862C863.23 583.207 855.394 584.589 851.647 585.244C850.32 575.807 849.356 568.97 849.356 568.97H944.69Z" fill="#D5880D"/>
<path fill-rule="evenodd" clip-rule="evenodd" d="M961.986 397.612C972.769 403.158 974.605 420.395 961.986 420.159C961.368 420.141 960.731 420.141 960.095 420.123C956.277 420.032 952.295 419.887 948.64 419.978C940.603 420.16 934.112 421.451 934.221 426.797C934.173 427.38 934.323 427.963 934.646 428.451C934.97 428.939 935.447 429.304 936.003 429.488C940.64 431.324 952.95 426.506 956.277 442.888C956.422 443.543 956.531 444.252 956.641 444.979C959.15 462.653 946.131 469.908 928.641 479.963C928.314 480.163 927.986 480.345 927.659 480.545C922.55 483.473 917.095 486.673 911.549 490.455C886.493 507.547 897.003 560.387 897.003 560.387C897.003 560.387 895.021 561.896 893.857 554.841C892.693 547.768 890.402 518.641 890.911 508.529C891.202 502.619 887.056 496.364 883.365 486.929C882.086 483.686 881.017 480.364 880.165 476.983C878.864 471.729 878.114 466.354 877.928 460.945C877.037 437.016 887.511 424.706 897.948 419.615C898.293 419.451 898.639 419.306 898.984 419.142C899.693 418.833 900.402 418.56 901.111 418.306C912.494 414.269 910.184 409.451 906.22 403.05C902.238 396.65 904.729 390.485 911.548 387.25C918.367 383.995 926.131 381.431 934.222 367.485C942.332 353.538 961.66 349.338 974.098 359.885C986.517 370.449 967.825 376.541 958.642 380.905C949.44 385.284 951.186 392.085 961.986 397.612Z" fill="#04C27F"/>
<path fill-rule="evenodd" clip-rule="evenodd" d="M962.117 359.547L962.317 359.747V360.027C962.235 360.149 962.217 360.178 961.912 360.316C959.596 361.435 957.395 362.778 955.341 364.327C944.975 371.827 936.685 381.905 929.541 392.627C924.39 400.34 919.916 408.484 916.167 416.967C908.008 435.476 902.511 455.101 898.757 474.939C894.989 494.864 893.017 515.155 894.12 535.283C894.488 542.523 895.373 549.728 896.766 556.843L896.822 557.127L896.768 557.402C896.709 557.476 896.628 557.53 896.537 557.557H896.395C896.304 557.529 896.223 557.475 896.162 557.402L896.107 557.271C892.474 539.333 892.463 520.777 894.145 502.407C895.927 483.233 899.564 464.278 905.006 445.807C909.55 430.326 915.216 415.154 923.324 401.235C930.043 389.701 937.914 378.764 947.693 369.706C951.612 365.892 956.037 362.636 960.843 360.027C961.167 359.863 961.492 359.703 961.825 359.561C961.92 359.536 962.02 359.531 962.117 359.547V359.547Z" fill="white"/>
<path fill-rule="evenodd" clip-rule="evenodd" d="M802.512 389.563C799.512 386.876 790.931 377.663 790.312 359.886C789.567 338.395 807.512 347.123 803.591 389.921C813.379 393.335 822.667 398.044 831.206 403.921C841.767 411.174 851.436 419.645 860.015 429.159C860.286 369.913 883.589 360.15 880.515 384.69C877.593 407.872 861.972 427.197 860.183 429.339C864.991 434.654 869.476 440.252 873.617 446.102C883.892 460.765 892.175 476.729 898.246 493.573C898.195 486.86 898.981 464.131 911.591 452.873C926.491 439.573 940.08 438.579 933.027 460.948C926.569 481.448 902.763 493.383 898.839 495.231C904.487 511.226 908.442 527.769 910.639 544.589C911.399 549.946 911.885 555.338 912.094 560.745C912.094 560.745 912.194 560.792 911.965 561.163L911.605 561.319L911.245 561.179C911.146 560.699 911.081 560.212 911.052 559.722C910.236 545.242 907.955 530.881 904.244 516.861C902.391 509.555 900.204 502.333 897.656 495.245C894.387 498.74 879.204 514.096 865.537 513.479C850.137 512.779 842.037 506.922 862.72 497.065C880.167 488.748 893.499 492.67 897.242 494.099C888.723 470.79 876.384 448.974 859.734 430.454C859.374 431.541 854.034 446.835 839.944 453.199C825.327 459.799 828.105 445.44 837.318 438.389C846.133 431.636 858.64 430.483 859.681 430.399C857.559 428.034 855.363 425.723 853.093 423.468C839.893 410.368 824.887 399.092 806.988 392.202C805.999 391.818 804.995 391.449 803.988 391.096C804.63 394.736 807.167 412.647 796.088 420.002C783.927 428.073 789.975 398.459 803.178 390.816C791.263 386.738 778.458 384.792 766.068 387.061C765.105 387.226 764.151 387.443 763.211 387.712L762.798 387.683C762.772 387.661 762.747 387.638 762.722 387.618C760.406 390.404 745.466 407.818 727.222 416.076C707.422 425.031 718.349 383.168 762.532 387.19C762.659 386.761 762.892 386.755 762.892 386.755C767.302 385.571 771.863 385.039 776.427 385.177H776.727C785.499 385.282 794.199 386.762 802.512 389.563V389.563Z" fill="#008C5F"/>
<path d="M951.826 552.388H842.236V573.963H951.826V552.388Z" fill="#FFFF3E"/>
<path fill-rule="evenodd" clip-rule="evenodd" d="M528.647 160.342L528.629 160.36C528.611 160.378 528.593 160.415 528.574 160.433C528.379 160.762 528.154 161.073 527.901 161.36C527.665 161.673 527.41 161.97 527.137 162.251C526.884 162.525 526.617 162.786 526.337 163.033C525.108 163.988 523.93 165.008 522.81 166.088C521.81 167.27 521.937 169.543 522.428 171.761C522.889 173.771 523.528 175.737 524.337 177.634C524.337 177.634 506.1 196.871 498.299 180.18C496.786 176.874 495.099 173.651 493.244 170.525C493.235 170.515 493.222 170.508 493.208 170.507C488.553 163.07 484.898 161.561 476.88 154.888C466.206 146.015 469.28 133.288 479.389 123.74C484.335 119.067 491.389 116.685 498.189 116.594C505.335 116.467 512.208 118.849 516.099 123.74C516.099 123.74 516.554 124.34 517.317 125.377C519.826 128.795 525.59 137.051 528.463 144.524C529.076 146.048 529.55 147.624 529.881 149.233C530.938 154.614 530.101 157.996 528.647 160.342Z" fill="#FE745F"/>
<path fill-rule="evenodd" clip-rule="evenodd" d="M511.573 136.031C511.573 136.031 519.173 146.905 516.101 147.686C513.046 148.468 504.227 147.231 503.609 154.505C502.991 161.76 513.519 160.451 506.573 166.251C499.918 171.815 493.773 170.633 493.245 170.524C493.236 170.514 493.223 170.507 493.209 170.506C488.554 163.069 484.899 161.56 476.881 154.887C466.207 146.014 469.281 133.287 479.39 123.739C484.336 119.066 491.39 116.684 498.19 116.593C505.336 116.466 512.209 118.848 516.1 123.739C516.1 123.739 516.555 124.339 517.318 125.376C517.122 127.357 516.535 129.279 515.591 131.031C514.585 132.94 513.22 134.637 511.573 136.031V136.031Z" fill="#1F2A82"/>
<path fill-rule="evenodd" clip-rule="evenodd" d="M528.629 160.36C526.829 163.251 524.101 164.542 522.81 166.088C521.81 167.27 521.937 169.543 522.428 171.761C519.973 171.797 517.409 171.234 516.1 169.161C513.1 164.415 517.046 162.451 521.919 162.597C526.483 162.724 528.41 160.615 528.629 160.36Z" fill="#ED533F"/>
<path fill-rule="evenodd" clip-rule="evenodd" d="M528.465 144.522C528.047 144.54 525.028 144.34 520.265 136.576C519.013 134.49 517.435 132.618 515.592 131.03C511.228 127.212 506.319 125.666 502.664 122.92C500.56 121.318 498.999 119.109 498.191 116.592C505.337 116.465 512.21 118.847 516.101 123.738C516.101 123.738 516.556 124.338 517.319 125.375C519.828 128.794 525.592 137.049 528.465 144.522Z" fill="white" fill-opacity="0.3"/>
<path fill-rule="evenodd" clip-rule="evenodd" d="M638.047 129.046C638.047 129.046 644.173 108.786 633.105 110.626C633.105 110.626 628.905 101.694 624.73 107.76C624.73 107.76 619.79 94.4949 615.322 95.1989C610.854 95.9029 615.397 101.31 618.36 110.626C621.323 119.942 623.584 126.754 623.584 126.754L630.89 132.469L638.047 129.046Z" fill="#FE745F"/>
<path fill-rule="evenodd" clip-rule="evenodd" d="M452.985 337.837C452.985 337.837 435.517 349.404 435.679 358.418C435.841 367.432 454.588 361.24 460.155 354.794C460.155 354.794 465.934 360.284 470.901 358.418C475.868 356.552 471.461 352.445 470.201 348.174C468.941 343.903 471.247 340.543 472.185 338.932C472.183 338.936 458.538 329.124 452.985 337.837Z" fill="#FE745F"/>
<path fill-rule="evenodd" clip-rule="evenodd" d="M513.353 595.416C513.353 595.416 500.518 622.565 505.667 624.827C510.816 627.089 525.823 635.627 526.612 640.075H465.726L473.21 596.901C486.726 585.965 500.167 580.866 513.353 595.416Z" fill="#B14D1B"/>
<path fill-rule="evenodd" clip-rule="evenodd" d="M573.183 414.103C573.183 414.103 569.81 440.656 559.655 482.877C557.269 492.791 547.776 509.943 545.072 520.365C535.893 555.744 523.587 590.941 508.472 606.889C508.472 606.889 473.744 607.638 471.472 606.889C469.2 606.14 496.437 502.963 500.272 453C502.868 419.382 509.489 323.582 509.489 323.582C509.489 323.582 526.479 292.558 542.1 320.46C557.721 348.362 573.183 414.103 573.183 414.103Z" fill="url(#paint0_linear_27_8363)"/>
<path fill-rule="evenodd" clip-rule="evenodd" d="M618.32 553.726V595.416L633.139 640.076H698.371C698.371 640.076 695.18 632.19 683.921 628.843C672.662 625.496 668.685 621.106 665.314 611.143C661.943 601.18 659.845 592.403 659.845 592.403L618.32 553.726Z" fill="#B14D1B"/>
<path fill-rule="evenodd" clip-rule="evenodd" d="M522.084 317.996C522.084 317.996 558.428 435.096 573.342 477.731C588.256 520.366 619.942 600.518 621.455 604.86C622.968 609.202 654.403 605.353 663.191 604.48C671.979 603.607 662.755 561.444 655.78 535.28C648.805 509.116 595.265 315.18 595.265 315.18C595.265 315.18 530.321 277.214 522.084 317.996Z" fill="url(#paint1_linear_27_8363)"/>
<path fill-rule="evenodd" clip-rule="evenodd" d="M637.437 196.217C629.273 238.147 624.037 232.11 566.632 218.764C566.632 218.764 575.796 246.821 583.615 272.404C588.87 289.496 593.525 305.497 594.434 311.261C596.725 325.644 589.015 323.171 566.634 321.171C544.253 319.171 527.977 324.68 517.849 328.462C507.739 332.244 507.921 332.171 505.849 307.951C503.885 284.677 493.194 253.911 489.449 242.365C489.449 242.365 482.285 269.112 477.121 298.765C474.7 312.047 473.055 325.459 472.193 338.932C472.193 338.932 462.447 347.169 447.593 337.095C447.593 337.095 445.429 281.709 459.667 229.015C473.704 177.139 505.725 173.32 545.055 178.702C545.655 178.775 546.273 178.866 546.892 178.957C587.058 184.703 604.423 196.557 610.315 183.721C616.207 170.885 622.134 138.881 623.589 126.753C623.589 126.753 624.68 126.48 626.353 126.171C630.517 125.425 638.336 124.407 641.809 126.753C641.801 126.757 645.601 154.305 637.437 196.217Z" fill="url(#paint2_linear_27_8363)"/>
<path fill-rule="evenodd" clip-rule="evenodd" d="M583.615 272.404C579.851 273.84 576.105 273.24 573.16 269.058C563.487 255.366 556.504 223.527 545.067 220.745C533.648 217.963 534.539 210.962 545.067 213.29C555.613 215.617 566.632 218.763 566.632 218.763C566.632 218.763 575.796 246.821 583.615 272.404Z" fill="#1083E8"/>
<path fill-rule="evenodd" clip-rule="evenodd" d="M489.444 242.365C489.444 242.365 482.28 269.112 477.116 298.765C474.225 301.911 471.625 302.583 470.206 299.11C466.497 290.055 480.57 233.71 480.57 233.71C477.515 219.036 480.57 212.236 482.607 218.654C484.662 225.073 489.444 242.365 489.444 242.365Z" fill="#1083E8"/>
<path fill-rule="evenodd" clip-rule="evenodd" d="M682.203 144.522C679.948 172.997 666.038 201.362 650.492 197.689C637.018 194.489 607.762 188.016 599.597 178.706C600.197 178.779 600.815 178.87 601.434 178.961C641.601 184.707 658.965 196.561 664.857 183.725C670.749 170.889 676.676 138.885 678.131 126.757C678.131 126.757 679.222 126.484 680.895 126.175C682.203 130.685 682.839 136.576 682.203 144.522Z" fill="white" fill-opacity="0.2"/>
<path d="M168.155 640.078C176.199 640.078 182.72 633.557 182.72 625.513C182.72 617.469 176.199 610.948 168.155 610.948C160.111 610.948 153.59 617.469 153.59 625.513C153.59 633.557 160.111 640.078 168.155 640.078Z" fill="#1F2A82"/>
<path fill-rule="evenodd" clip-rule="evenodd" d="M159.644 588.001C163.018 588.121 166.221 589.514 168.608 591.901C170.996 594.288 172.39 597.491 172.51 600.865V625.513C172.51 625.513 171.923 629.684 168.881 630.943C167.986 631.26 167.03 631.363 166.088 631.246C165.147 631.128 164.245 630.792 163.456 630.265C162.667 629.738 162.012 629.034 161.542 628.209C161.073 627.384 160.803 626.461 160.753 625.513V601.051C160.749 600.718 160.62 600.399 160.39 600.159C160.16 599.919 159.847 599.774 159.515 599.756C132.728 599.241 105.928 599.756 79.135 599.756C78.9654 599.756 78.7974 599.789 78.6406 599.854C78.4839 599.918 78.3415 600.014 78.2215 600.133C78.1016 600.253 78.0065 600.396 77.9417 600.553C77.8769 600.709 77.8437 600.877 77.844 601.047V618.803C77.844 618.803 74.838 626.865 69.296 624.042C68.3481 623.527 67.5524 622.772 66.9891 621.853C66.4258 620.933 66.1146 619.881 66.087 618.803C66.087 608.703 63.956 597.038 70.487 591.265C72.8352 589.21 75.8353 588.054 78.955 588.001C105.852 587.843 132.748 587.843 159.644 588.001Z" fill="#1F2A82"/>
<path d="M74.437 329.418H66.205V485.829H74.437V329.418Z" fill="#1F2A82"/>
<path d="M125.813 492.697H111.795V609.614H125.813V492.697Z" fill="#1F2A82"/>
<path fill-rule="evenodd" clip-rule="evenodd" d="M162.689 523.759H145.081C145.081 523.759 126.245 533.649 125.814 537.278C125.383 540.907 141.406 588.191 145.081 579.725C148.756 571.259 148.218 557.611 148.218 557.611L155.477 552.481L162.689 523.759Z" fill="#1059E8"/>
<path fill-rule="evenodd" clip-rule="evenodd" d="M198.95 577.471L185.002 583.85C185.002 583.85 178.054 606.757 174.523 618.407C173.97 620.226 174.152 622.188 175.028 623.875C175.905 625.561 177.406 626.838 179.212 627.431C192.618 632.115 221.851 642.158 226.921 642.112C233.538 642.05 220.933 629.084 216.655 623.276C209.502 613.566 215.833 595.31 215.833 595.31L211.145 577.116L198.95 577.471Z" fill="#1059E8"/>
<path d="M158.451 428.409L177.851 419.17C177.851 419.17 282.339 456.796 285.07 478.47C287.801 500.144 273.295 511.331 229.993 527.032C186.691 542.733 155.473 552.481 155.473 552.481C155.473 552.481 145.66 536.858 145.073 523.759C145.073 523.759 184.443 500.396 193.073 494.308C201.703 488.22 158.451 428.409 158.451 428.409Z" fill="url(#paint3_linear_27_8363)"/>
<path d="M110.272 402.836L103.499 411.984C103.499 411.984 90.918 464.51 152.139 481.944C213.36 499.378 222.297 503.429 211.625 518.281C196.231 539.704 182.719 591.381 182.719 591.381C182.719 591.381 188.772 601.163 218.269 606.181C218.269 606.181 265.654 526.615 271.111 497.373C276.568 468.131 211.547 436.994 177.855 419.173C144.163 401.352 110.272 402.836 110.272 402.836Z" fill="url(#paint4_linear_27_8363)"/>
<path fill-rule="evenodd" clip-rule="evenodd" d="M261.811 382.409C261.811 382.409 265.595 379.26 282.198 383.164C298.801 387.068 303.576 395.421 302.185 396.541C300.794 397.661 266.475 396.234 262.985 394.997C259.495 393.76 261.811 382.409 261.811 382.409Z" fill="#FE715F"/>
<path fill-rule="evenodd" clip-rule="evenodd" d="M206.543 311.073L213.405 314.824C213.405 314.824 211.849 379.292 211.623 384.554C211.397 389.816 182.717 375.554 182.717 375.554L206.543 311.073Z" fill="#C7D3E9"/>
<path fill-rule="evenodd" clip-rule="evenodd" d="M200.569 356.7V356.718C200.528 356.824 200.48 356.928 200.424 357.027C196.733 364.737 193.369 372.81 190.46 380.501C185.296 394.12 181.478 406.539 179.46 413.449C178.424 417.067 177.86 419.177 177.86 419.177C161.586 418.213 103.491 411.977 103.491 411.977C106.146 353.645 122.365 334.644 141.876 307.315C161.368 280.004 193.076 282.095 193.076 282.095H212.641C211.97 286.473 211.721 290.906 211.896 295.332C211.978 298.555 212.227 301.772 212.641 304.969C214.424 318.315 214.079 328.516 200.569 356.7Z" fill="url(#paint5_linear_27_8363)"/>
<path fill-rule="evenodd" clip-rule="evenodd" d="M190.459 380.502C185.295 394.121 181.477 406.54 179.459 413.45C160.767 404.304 167.84 390.703 167.84 390.703C155.094 372.665 144.256 338.808 148.584 329.171C152.912 319.534 167.839 341.646 167.839 341.646C167.839 341.646 189.313 375.538 190.459 380.502Z" fill="#C7D3E9"/>
<path fill-rule="evenodd" clip-rule="evenodd" d="M200.569 356.701C200.951 349.428 200.169 310.007 202.969 302.424C204.824 297.351 207.824 294.951 211.897 295.333C211.98 298.556 212.229 301.773 212.643 304.97C214.425 318.316 214.079 328.517 200.569 356.701Z" fill="white" fill-opacity="0.4"/>
<path fill-rule="evenodd" clip-rule="evenodd" d="M271.101 386.339C271.21 390.83 270.283 396.067 266.919 397.939C261.264 401.067 192.441 407.176 179.204 397.939C165.967 388.702 153.111 337.807 152.166 316.733C151.202 295.659 185.005 286.24 191.878 307.314C191.878 307.314 195.642 337.48 200.57 356.681V356.699C202.77 365.245 205.189 371.627 207.607 372.191C215.462 374.009 268.43 376.828 269.907 379.501C270.751 381.68 271.156 384.003 271.101 386.339V386.339Z" fill="url(#paint6_linear_27_8363)"/>
<path fill-rule="evenodd" clip-rule="evenodd" d="M271.102 386.339C256.028 385.121 227.026 383.139 215.371 381.884C201.988 380.429 200.188 363.974 200.571 356.7C202.771 365.246 205.19 371.628 207.608 372.192C215.463 374.01 268.431 376.829 269.908 379.502C270.751 381.68 271.157 384.004 271.102 386.339V386.339Z" fill="white" fill-opacity="0.4"/>
<path fill-rule="evenodd" clip-rule="evenodd" d="M266.573 253.347C266.751 259.128 265.882 264.894 264.009 270.366C258.136 287.913 245.371 299.241 232.57 296.022C231.291 295.71 230.048 295.265 228.861 294.695C227.4 294.004 225.753 293.809 224.171 294.141C222.588 294.472 221.158 295.311 220.097 296.531C219.642 297.004 219.188 297.495 218.715 297.986C216.54 300.178 214.511 302.51 212.642 304.968C212.096 305.913 208.933 302.55 205.314 298.131C199.75 291.349 193.077 282.093 193.077 282.093C193.077 282.093 202.587 278.875 205.26 269.038C205.881 266.673 206.09 264.219 205.878 261.783C204.678 246.218 207.551 223.783 234.462 222.908C245.936 222.544 254.445 226.745 259.809 233.563C264.106 239.273 266.475 246.202 266.573 253.347V253.347Z" fill="#FE715F"/>
<path fill-rule="evenodd" clip-rule="evenodd" d="M266.573 253.347C265.1 255.511 262.409 255.656 259.573 254.947C254.555 253.729 249.045 249.874 249.045 249.874C249.045 249.874 240.663 263.73 237.299 258.656C233.79 253.365 226.426 241.818 221.662 249.874C216.898 257.947 223.626 264.93 223.626 264.93C218.007 272.04 210.643 271.167 205.261 269.039C205.882 266.674 206.091 264.22 205.879 261.784C204.679 246.219 207.552 223.784 234.463 222.909C245.937 222.545 254.446 226.746 259.81 233.564C264.107 239.273 266.475 246.202 266.573 253.347Z" fill="#1F2A82"/>
<path fill-rule="evenodd" clip-rule="evenodd" d="M218.716 297.987C216.541 300.179 214.512 302.511 212.643 304.969C212.097 305.914 208.934 302.551 205.315 298.132C208.333 294.423 212.861 294.314 218.716 297.987Z" fill="#FFA296" fill-opacity="0.4"/>
<path fill-rule="evenodd" clip-rule="evenodd" d="M266.573 253.347C266.751 259.128 265.882 264.894 264.009 270.366C258.136 287.913 245.371 299.241 232.57 296.022C238.934 292.404 245.68 285.967 250.517 278.966C255.464 271.825 258.574 263.575 259.572 254.946C260.134 250.434 259.881 245.858 258.826 241.436C257.862 237.69 258.571 235.199 259.808 233.563C264.106 239.273 266.475 246.201 266.573 253.347V253.347Z" fill="#FFA296" fill-opacity="0.4"/>
<path d="M436.969 399.422H242.514V406.252H436.969V399.422Z" fill="white"/>
<path d="M422.5 403.337H419.157V639.981H422.5V403.337Z" fill="white"/>
<path d="M256.013 403.337H252.67V639.981H256.013V403.337Z" fill="white"/>
<path fill-rule="evenodd" clip-rule="evenodd" d="M376.512 304.858C377.277 305.036 377.363 305.307 377.527 305.758L396.937 376.358C399.821 387.158 391.318 399.34 379.352 399.429H339.937C339.641 399.384 339.371 399.234 339.176 399.007C338.981 398.779 338.874 398.49 338.874 398.19C338.874 397.891 338.981 397.602 339.176 397.374C339.371 397.147 339.641 396.997 339.937 396.952H379.343C388.969 396.883 397.228 387.046 394.543 377.005L375.136 306.418C374.921 305.246 375.319 304.786 376.512 304.858Z" fill="#848484"/>
<path fill-rule="evenodd" clip-rule="evenodd" d="M330.051 396.943V399.42H276.869C274.258 399.309 273.894 397.069 276.869 396.943H330.051Z" fill="#848484"/>
<path fill-rule="evenodd" clip-rule="evenodd" d="M412.287 227.457C416.28 228.27 410.765 235.447 407.354 241.447C383.814 282.865 369.109 329.424 361.585 376.447C361.585 376.447 360.559 378.747 358.774 378.163C357.216 377.654 357.347 375.516 357.652 373.635C365.7 324.888 381.108 276.824 406.252 234.735C408.029 231.764 409.385 227.33 412.287 227.457Z" fill="white"/>
<path fill-rule="evenodd" clip-rule="evenodd" d="M177.255 485.824C177.254 482.353 175.875 479.024 173.42 476.569C170.966 474.115 167.636 472.736 164.165 472.736H79.295C77.576 472.736 75.8738 473.074 74.2855 473.732C72.6973 474.389 71.2541 475.353 70.0384 476.569C68.8227 477.784 67.8583 479.227 67.2002 480.815C66.5421 482.403 66.2033 484.105 66.203 485.824V485.824C66.203 487.543 66.5416 489.246 67.1996 490.834C67.8576 492.422 68.8219 493.865 70.0377 495.081C71.2534 496.296 72.6967 497.26 74.285 497.918C75.8734 498.576 77.5758 498.914 79.295 498.914H164.165C167.637 498.914 170.966 497.535 173.421 495.08C175.876 492.625 177.255 489.296 177.255 485.824V485.824Z" fill="#04C27F"/>
<path fill-rule="evenodd" clip-rule="evenodd" d="M87.266 411.563C90.6897 410.989 93.7452 409.079 95.7608 406.252C97.7763 403.426 98.5868 399.915 98.014 396.491L86.399 327.15C86.1157 325.454 85.5009 323.831 84.59 322.373C83.679 320.915 82.4896 319.65 81.0898 318.652C79.69 317.654 78.1072 316.941 76.4319 316.555C74.7566 316.169 73.0216 316.116 71.326 316.401V316.401C69.6304 316.685 68.0073 317.299 66.5494 318.21C65.0914 319.121 63.8272 320.311 62.8289 321.71C61.8307 323.11 61.1179 324.692 60.7313 326.367C60.3448 328.043 60.292 329.777 60.576 331.473L72.192 400.813C72.7654 404.237 74.6755 407.293 77.5021 409.308C80.3286 411.324 83.8401 412.134 87.264 411.561L87.266 411.563Z" fill="#04C27F"/>
<path d="M70.561 640.078C78.605 640.078 85.126 633.557 85.126 625.513C85.126 617.469 78.605 610.948 70.561 610.948C62.517 610.948 55.996 617.469 55.996 625.513C55.996 633.557 62.517 640.078 70.561 640.078Z" fill="#1F2A82"/>
<path d="M983.258 326.39C985.108 326.39 986.607 324.891 986.607 323.041C986.607 321.191 985.108 319.692 983.258 319.692C981.408 319.692 979.909 321.191 979.909 323.041C979.909 324.891 981.408 326.39 983.258 326.39Z" fill="#DCB900"/>
<path d="M983.258 261.579C985.108 261.579 986.607 260.08 986.607 258.23C986.607 256.38 985.108 254.881 983.258 254.881C981.408 254.881 979.909 256.38 979.909 258.23C979.909 260.08 981.408 261.579 983.258 261.579Z" fill="#DCB900"/>
<path d="M983.258 196.767C985.108 196.767 986.607 195.268 986.607 193.418C986.607 191.568 985.108 190.069 983.258 190.069C981.408 190.069 979.909 191.568 979.909 193.418C979.909 195.268 981.408 196.767 983.258 196.767Z" fill="#DCB900"/>
<path d="M941.856 326.39C943.706 326.39 945.205 324.891 945.205 323.041C945.205 321.191 943.706 319.692 941.856 319.692C940.006 319.692 938.507 321.191 938.507 323.041C938.507 324.891 940.006 326.39 941.856 326.39Z" fill="#DCB900"/>
<path d="M941.856 261.579C943.706 261.579 945.205 260.08 945.205 258.23C945.205 256.38 943.706 254.881 941.856 254.881C940.006 254.881 938.507 256.38 938.507 258.23C938.507 260.08 940.006 261.579 941.856 261.579Z" fill="#DCB900"/>
<path d="M941.856 196.767C943.706 196.767 945.205 195.268 945.205 193.418C945.205 191.568 943.706 190.069 941.856 190.069C940.006 190.069 938.507 191.568 938.507 193.418C938.507 195.268 940.006 196.767 941.856 196.767Z" fill="#DCB900"/>
<path d="M900.455 326.39C902.305 326.39 903.804 324.891 903.804 323.041C903.804 321.191 902.305 319.692 900.455 319.692C898.605 319.692 897.106 321.191 897.106 323.041C897.106 324.891 898.605 326.39 900.455 326.39Z" fill="#DCB900"/>
<path d="M900.455 261.579C902.305 261.579 903.804 260.08 903.804 258.23C903.804 256.38 902.305 254.881 900.455 254.881C898.605 254.881 897.106 256.38 897.106 258.23C897.106 260.08 898.605 261.579 900.455 261.579Z" fill="#DCB900"/>
<path d="M900.455 196.767C902.305 196.767 903.804 195.268 903.804 193.418C903.804 191.568 902.305 190.069 900.455 190.069C898.605 190.069 897.106 191.568 897.106 193.418C897.106 195.268 898.605 196.767 900.455 196.767Z" fill="#DCB900"/>
<g opacity="0.3">
<g opacity="0.3">
<path opacity="0.3" d="M311.294 33.767C313.144 33.767 314.643 32.2676 314.643 30.418C314.643 28.5684 313.144 27.069 311.294 27.069C309.444 27.069 307.945 28.5684 307.945 30.418C307.945 32.2676 309.444 33.767 311.294 33.767Z" fill="#04C27F"/>
</g>
<g opacity="0.3">
<path opacity="0.3" d="M246.482 33.767C248.332 33.767 249.831 32.2676 249.831 30.418C249.831 28.5684 248.332 27.069 246.482 27.069C244.632 27.069 243.133 28.5684 243.133 30.418C243.133 32.2676 244.632 33.767 246.482 33.767Z" fill="#04C27F"/>
</g>
<g opacity="0.3">
<path opacity="0.3" d="M181.671 33.767C183.521 33.767 185.02 32.2676 185.02 30.418C185.02 28.5684 183.521 27.069 181.671 27.069C179.821 27.069 178.322 28.5684 178.322 30.418C178.322 32.2676 179.821 33.767 181.671 33.767Z" fill="#04C27F"/>
</g>
</g>
<g opacity="0.3">
<g opacity="0.3">
<path opacity="0.3" d="M311.294 75.168C313.144 75.168 314.643 73.6686 314.643 71.819C314.643 69.9694 313.144 68.47 311.294 68.47C309.444 68.47 307.945 69.9694 307.945 71.819C307.945 73.6686 309.444 75.168 311.294 75.168Z" fill="#04C27F"/>
</g>
<g opacity="0.3">
<path opacity="0.3" d="M246.482 75.168C248.332 75.168 249.831 73.6686 249.831 71.819C249.831 69.9694 248.332 68.47 246.482 68.47C244.632 68.47 243.133 69.9694 243.133 71.819C243.133 73.6686 244.632 75.168 246.482 75.168Z" fill="#04C27F"/>
</g>
<g opacity="0.3">
<path opacity="0.3" d="M181.671 75.168C183.521 75.168 185.02 73.6686 185.02 71.819C185.02 69.9694 183.521 68.47 181.671 68.47C179.821 68.47 178.322 69.9694 178.322 71.819C178.322 73.6686 179.821 75.168 181.671 75.168Z" fill="#04C27F"/>
</g>
</g>
<g opacity="0.3">
<g opacity="0.3">
<path opacity="0.3" d="M311.294 116.57C313.144 116.57 314.643 115.071 314.643 113.221C314.643 111.371 313.144 109.872 311.294 109.872C309.444 109.872 307.945 111.371 307.945 113.221C307.945 115.071 309.444 116.57 311.294 116.57Z" fill="#04C27F"/>
</g>
<g opacity="0.3">
<path opacity="0.3" d="M246.482 116.57C248.332 116.57 249.831 115.071 249.831 113.221C249.831 111.371 248.332 109.872 246.482 109.872C244.632 109.872 243.133 111.371 243.133 113.221C243.133 115.071 244.632 116.57 246.482 116.57Z" fill="#04C27F"/>
</g>
<g opacity="0.3">
<path opacity="0.3" d="M181.671 116.57C183.521 116.57 185.02 115.071 185.02 113.221C185.02 111.371 183.521 109.872 181.671 109.872C179.821 109.872 178.322 111.371 178.322 113.221C178.322 115.071 179.821 116.57 181.671 116.57Z" fill="#04C27F"/>
</g>
</g>
<path d="M449.216 29.983C452.405 29.983 454.991 27.3974 454.991 24.208C454.991 21.0185 452.405 18.433 449.216 18.433C446.027 18.433 443.441 21.0185 443.441 24.208C443.441 27.3974 446.027 29.983 449.216 29.983Z" fill="#FF4800"/>
<path d="M472.727 29.983C475.916 29.983 478.502 27.3974 478.502 24.208C478.502 21.0185 475.916 18.433 472.727 18.433C469.538 18.433 466.952 21.0185 466.952 24.208C466.952 27.3974 469.538 29.983 472.727 29.983Z" fill="#FFC600"/>
<path d="M496.237 29.983C499.426 29.983 502.012 27.3974 502.012 24.208C502.012 21.0185 499.426 18.433 496.237 18.433C493.048 18.433 490.462 21.0185 490.462 24.208C490.462 27.3974 493.048 29.983 496.237 29.983Z" fill="#00FF48"/>
<defs>
<filter id="filter0_d_27_8363" x="638.321" y="54.295" width="82.534" height="85.87" filterUnits="userSpaceOnUse" color-interpolation-filters="sRGB">
<feFlood flood-opacity="0" result="BackgroundImageFix"/>
<feColorMatrix in="SourceAlpha" type="matrix" values="0 0 0 0 0 0 0 0 0 0 0 0 0 0 0 0 0 0 127 0" result="hardAlpha"/>
<feOffset dy="8"/>
<feGaussianBlur stdDeviation="4.5"/>
<feColorMatrix type="matrix" values="0 0 0 0 0 0 0 0 0 0 0 0 0 0 0 0 0 0 0.102 0"/>
<feBlend mode="normal" in2="BackgroundImageFix" result="effect1_dropShadow_27_8363"/>
<feBlend mode="normal" in="SourceGraphic" in2="effect1_dropShadow_27_8363" result="shape"/>
</filter>
<linearGradient id="paint0_linear_27_8363" x1="-272.541" y1="840.572" x2="-270.708" y2="840.572" gradientUnits="userSpaceOnUse">
<stop stop-color="#1C2465"/>
<stop offset="1" stop-color="#050A2F"/>
</linearGradient>
<linearGradient id="paint1_linear_27_8363" x1="-272.477" y1="840.798" x2="-270.741" y2="840.798" gradientUnits="userSpaceOnUse">
<stop stop-color="#1F2A82"/>
<stop offset="1" stop-color="#131D6C"/>
</linearGradient>
<linearGradient id="paint2_linear_27_8363" x1="580.999" y1="344.489" x2="508.992" y2="163.713" gradientUnits="userSpaceOnUse">
<stop stop-color="#1059E8"/>
<stop offset="1" stop-color="#10DBE8"/>
</linearGradient>
<linearGradient id="paint3_linear_27_8363" x1="145.073" y1="485.825" x2="285.389" y2="485.825" gradientUnits="userSpaceOnUse">
<stop stop-color="#1C2465"/>
<stop offset="1" stop-color="#050A2F"/>
</linearGradient>
<linearGradient id="paint4_linear_27_8363" x1="102.432" y1="504.493" x2="271.434" y2="504.493" gradientUnits="userSpaceOnUse">
<stop stop-color="#1F2A82"/>
<stop offset="1" stop-color="#131D6C"/>
</linearGradient>
<linearGradient id="paint5_linear_27_8363" x1="187.906" y1="259.845" x2="116.131" y2="408.544" gradientUnits="userSpaceOnUse">
<stop stop-color="white"/>
<stop offset="1" stop-color="#D6E0F3"/>
</linearGradient>
<linearGradient id="paint6_linear_27_8363" x1="235.539" y1="274.622" x2="194.669" y2="436.258" gradientUnits="userSpaceOnUse">
<stop stop-color="white"/>
<stop offset="1" stop-color="#D6E0F3"/>
</linearGradient>
</defs>
</svg>
