<svg width="493" height="548" viewBox="0 0 493 548" fill="none" xmlns="http://www.w3.org/2000/svg">
<path d="M346.5 512.6C346.5 512.6 51.5001 280.6 8.50006 206.6C-27.8999 144 105.4 212.4 147.3 234.9C156.3 239.7 164.9 245.2 173.1 251.2C206 275.5 291 343.9 346.5 440.6" stroke="#FFF2E1" stroke-width="4" stroke-miterlimit="10"/>
<path d="M344.2 478C350.1 489.1 258.2 322.3 4.30005 186.3" stroke="#FFF2E1" stroke-width="4" stroke-miterlimit="10"/>
<path d="M277.5 546.9C277.5 546.9 337.9 228.1 461.8 35.9" stroke="#FFE9C8" stroke-width="4" stroke-miterlimit="10"/>
<path d="M475.8 32.8C484.084 32.8 490.8 26.0843 490.8 17.8C490.8 9.51572 484.084 2.79999 475.8 2.79999C467.516 2.79999 460.8 9.51572 460.8 17.8C460.8 26.0843 467.516 32.8 475.8 32.8Z" stroke="#FFE9C8" stroke-width="4" stroke-miterlimit="10"/>
</svg>
