<svg width="670" height="670" viewBox="0 0 670 670" fill="none" xmlns="http://www.w3.org/2000/svg">
<g clip-path="url(#clip0_804_2)">
<path d="M335 670C520.015 670 670 520.015 670 335C670 149.985 520.015 0 335 0C149.985 0 0 149.985 0 335C0 520.015 149.985 670 335 670Z" fill="#FFA61A" fill-opacity="0.1"/>
<path d="M403.5 738.6C403.5 738.6 108.5 506.6 65.5001 432.6C29.1 370 162.4 438.4 204.3 460.9C213.3 465.7 221.9 471.2 230.1 477.2C263 501.5 348 569.9 403.5 666.6" stroke="#FFE9C8" stroke-width="4" stroke-miterlimit="10"/>
<path d="M401.2 704C407.1 715.1 315.2 548.3 61.3 412.3" stroke="#FFE9C8" stroke-width="4" stroke-miterlimit="10"/>
<path d="M334.5 772.9C334.5 772.9 394.9 454.1 518.8 261.9" stroke="#FFE9C8" stroke-width="4" stroke-miterlimit="10"/>
<path d="M532.8 258.8C541.084 258.8 547.8 252.084 547.8 243.8C547.8 235.516 541.084 228.8 532.8 228.8C524.516 228.8 517.8 235.516 517.8 243.8C517.8 252.084 524.516 258.8 532.8 258.8Z" stroke="#FFE9C8" stroke-width="4" stroke-miterlimit="10"/>
</g>
<defs>
<clipPath id="clip0_804_2">
<rect width="670" height="670" fill="white"/>
</clipPath>
</defs>
</svg>
