<svg width="180" height="42" viewBox="0 0 180 42" fill="none" xmlns="http://www.w3.org/2000/svg">
<path d="M26.5 2.7L45.1 35C46.6 37.6 44.7 40.9 41.7 40.9H4.40001C1.40001 40.9 -0.499986 37.6 1.00001 35L19.7 2.7C21.2 0.1 25 0.1 26.5 2.7Z" fill="#6E42D3"/>
<path d="M47.3 2.7L66 35C67.5 37.6 65.6 40.9 62.6 40.9H25.3C22.3 40.9 20.4 37.6 21.9 35L40.5 2.7C42 0.1 45.8 0.1 47.3 2.7Z" fill="#FC5B4D"/>
<path d="M44.6 34.2L33.5 15L22.4 34.2C20.6 37.3 22.8 41.1 26.4 41.1H40.6C44.1 41 46.3 37.2 44.6 34.2Z" fill="url(#paint0_linear_28_8670)"/>
<path d="M105.6 16.2H101L95.6 27.7C95.4 28 95.3 28.5 95.1 29.1C94.9 28.5 94.7 28 94.6 27.7L89.4 16.2H84.4V38.8H89.3V26.9C89.4 27.2 89.5 27.5 89.6 27.6L95 39.2L100.5 27.6C100.6 27.4 100.7 27.2 100.8 27C100.8 27.3 100.8 27.5 100.8 27.7V38.9H105.7L105.6 16.2ZM123.8 38.8V22.3H119.1V30.9C119.2 31.9 118.9 32.9 118.4 33.7C117.9 34.3 117.1 34.7 116.2 34.6C115.4 34.7 114.6 34.3 114.1 33.7C113.6 32.8 113.4 31.8 113.5 30.8V22.2H108.8V33C108.8 34 109 35 109.3 35.9C109.6 36.7 110.1 37.3 110.7 37.8C111.2 38.2 111.8 38.6 112.5 38.8C113.1 39 113.8 39.1 114.4 39.1C116.1 39.2 117.8 38.5 118.9 37.2V38.7L123.8 38.8ZM132.1 38.8V15.5L127.4 17.7V38.8H132.1ZM144.4 38.4L144.9 34.5C144 34.9 143 35.1 142.1 35.1C141.9 35.1 141.6 35 141.4 34.9C141.2 34.7 141.1 34.5 141.1 34.2V26.4H144.7V22.3H141.1V15.5L136.5 17.7V22.3H134.2V26.4H136.5V34.7C136.5 37.7 137.9 39.2 140.6 39.2C142 39.2 143.3 39 144.4 38.4ZM151.6 19.9C152.1 19.4 152.4 18.7 152.4 18C152.4 17.3 152.1 16.6 151.6 16.1C150.5 15.1 148.8 15.1 147.8 16.1C147.3 16.6 147 17.3 147 18C147 18.7 147.3 19.4 147.8 19.9C148.3 20.4 149 20.7 149.7 20.7C150.4 20.7 151.1 20.5 151.6 19.9ZM152 38.8V22.3H147.3V38.8H152ZM179.5 38.8V28.6C179.5 26.1 179 24.4 177.9 23.4C176.6 22.3 174.9 21.8 173.3 21.9C171.3 21.8 169.4 22.6 168.2 24.2C167.4 22.7 165.8 21.7 164.1 21.9C162.6 21.9 161.2 22.6 160.3 23.8V22.3H155.6V38.8H160.3V30.2C160.2 29.2 160.4 28.2 160.9 27.3C161.4 26.7 162.2 26.4 163 26.5C163.7 26.4 164.4 26.7 164.8 27.3C165.2 28.2 165.4 29.3 165.3 30.3V38.8H170V30.2C169.9 29.2 170.1 28.2 170.6 27.3C171.1 26.7 171.9 26.4 172.7 26.5C173.4 26.4 174.1 26.7 174.5 27.3C174.9 28.2 175.1 29.3 175 30.3V38.8H179.5Z" fill="url(#paint1_linear_28_8670)"/>
<defs>
<linearGradient id="paint0_linear_28_8670" x1="21.8198" y1="28.024" x2="45.1803" y2="28.024" gradientUnits="userSpaceOnUse">
<stop stop-color="#FC5B4D"/>
<stop offset="1" stop-color="#6E42D3"/>
</linearGradient>
<linearGradient id="paint1_linear_28_8670" x1="84.2936" y1="27.29" x2="179.523" y2="27.29" gradientUnits="userSpaceOnUse">
<stop stop-color="#6E42D3"/>
<stop offset="1" stop-color="#FC5B4D"/>
</linearGradient>
</defs>
</svg>
