<?xml version="1.0" encoding="utf-8"?>
<!-- Generator: Adobe Illustrator 21.0.0, SVG Export Plug-In . SVG Version: 6.00 Build 0)  -->
<svg version="1.1" id="Layer_1" xmlns="http://www.w3.org/2000/svg" xmlns:xlink="http://www.w3.org/1999/xlink" x="0px" y="0px"
	 viewBox="0 0 140 140" style="enable-background:new 0 0 140 140;" xml:space="preserve">
<style type="text/css">
	.st0{fill:#FFFFFF;stroke:#7B6079;stroke-width:2;stroke-miterlimit:10;}
	.st1{fill:none;stroke:#DE8971;stroke-width:2;stroke-miterlimit:10;}
	.st2{fill:#A7D0CD;}
	.st3{fill:#02B3FD;}
	.st4{fill:#FFFFFF;}
	.st5{fill:#7B6079;}
</style>
<path class="st0" d="M12.6,53.5h115.6c2.9,0,5.2-2.3,5.2-5.2V26.8c0-2.9-2.3-5.2-5.2-5.2H12.6c-2.9,0-5.2,2.3-5.2,5.2v21.5
	C7.3,51.1,9.7,53.5,12.6,53.5z"/>
<g>
	<circle class="st1" cx="48.1" cy="37.8" r="6.3"/>
	<circle class="st1" cx="25.3" cy="37.8" r="6.3"/>
	<circle class="st2" cx="97.7" cy="32.6" r="2"/>
	<circle class="st2" cx="119.7" cy="32.6" r="2"/>
	<circle class="st2" cx="109.6" cy="32.6" r="2"/>
	<circle class="st2" cx="97.7" cy="42.4" r="2"/>
	<circle class="st2" cx="119.7" cy="42.4" r="2"/>
	<circle class="st2" cx="109.6" cy="42.4" r="2"/>
</g>
<path class="st0" d="M133.4,58.7c0-2.9-2.3-5.2-5.2-5.2H12.6c-2.9,0-5.2,2.3-5.2,5.2v21.5c0,2.9,2.3,5.2,5.2,5.2h115.6
	c2.9,0,5.2-2.3,5.2-5.2"/>
<g>
	<circle class="st1" cx="48.1" cy="69.7" r="6.3"/>
	<circle class="st1" cx="25.3" cy="69.7" r="6.3"/>
	<circle class="st3" cx="97.7" cy="64.5" r="2"/>
	<circle class="st3" cx="119.7" cy="64.5" r="2"/>
	<circle class="st3" cx="109.6" cy="64.5" r="2"/>
	<circle class="st3" cx="97.7" cy="74.4" r="2"/>
	<circle class="st3" cx="119.7" cy="74.4" r="2"/>
	<circle class="st3" cx="109.6" cy="74.4" r="2"/>
</g>
<path class="st0" d="M133.4,90.7c0-2.9-2.3-5.2-5.2-5.2H12.6c-2.9,0-5.2,2.3-5.2,5.2v21.5c0,2.9,2.3,5.2,5.2,5.2h115.6
	c2.9,0,5.2-2.3,5.2-5.2"/>
<g>
	<circle class="st1" cx="48.1" cy="101.7" r="6.3"/>
	<circle class="st1" cx="25.3" cy="101.7" r="6.3"/>
	<circle class="st3" cx="97.7" cy="96.5" r="2"/>
	<circle class="st3" cx="119.7" cy="96.5" r="2"/>
	<circle class="st3" cx="109.6" cy="96.5" r="2"/>
	<circle class="st3" cx="97.7" cy="106.4" r="2"/>
	<circle class="st3" cx="119.7" cy="106.4" r="2"/>
	<circle class="st3" cx="109.6" cy="106.4" r="2"/>
</g>
<g>
	<path class="st4" d="M103,121L103,121c-18.6,0-33.8-15.2-33.8-33.8v-2.9c0-18.6,15.2-33.8,33.8-33.8h0c18.6,0,33.8,15.2,33.8,33.8
		v2.9C136.8,105.7,121.6,121,103,121z"/>
	<g>
		<path class="st0" d="M136.1,110.5c0,6.5-14.8,11.7-33.1,11.7s-33.1-5.2-33.1-11.7"/>
		<path class="st0" d="M136.1,94.6c0,6.5-14.8,11.7-33.1,11.7s-33.1-5.2-33.1-11.7"/>
		<path class="st0" d="M136.1,77.8c0,6.5-14.8,11.7-33.1,11.7s-33.1-5.2-33.1-11.7"/>
		<ellipse class="st0" cx="103" cy="60.9" rx="33.1" ry="11.7"/>
		<path class="st5" d="M69.9,112L69.9,112c-0.6,0-1-0.4-1-1V62.1c0-0.6,0.4-1,1-1l0,0c0.6,0,1,0.4,1,1V111
			C70.9,111.6,70.4,112,69.9,112z"/>
		<path class="st5" d="M137.1,110.8c0,0.7-0.4,1.2-1,1.2l0,0c-0.6,0-1-0.5-1-1.2V61.7c0-0.7,0.4-1.2,1-1.2l0,0c0.6,0,1,0.5,1,1.2"/>
	</g>
</g>
</svg>
