<?xml version="1.0" encoding="utf-8"?>
<!-- Generator: Adobe Illustrator 21.0.0, SVG Export Plug-In . SVG Version: 6.00 Build 0)  -->
<svg version="1.1" id="Layer_1" xmlns="http://www.w3.org/2000/svg" xmlns:xlink="http://www.w3.org/1999/xlink" x="0px" y="0px"
	 viewBox="0 0 140 140" style="enable-background:new 0 0 140 140;" xml:space="preserve">
<style type="text/css">
	.st0{fill:#FFFFFF;stroke:#7B6079;stroke-width:2;stroke-miterlimit:10;}
	.st1{fill:none;stroke:#DE8971;stroke-width:2;stroke-miterlimit:10;}
	.st2{fill:#A7D0CD;}
	.st3{fill:#7B6079;}
</style>
<g>
	<g>
		<path class="st0" d="M128.9,88.5H9.3c-2.9,0-5.2-2.3-5.2-5.2V60.7c0-2.9,2.3-5.2,5.2-5.2h119.6c2.9,0,5.2,2.3,5.2,5.2v22.5
			C134.1,86.1,131.7,88.5,128.9,88.5z"/>
		<g>
			<circle class="st1" cx="92" cy="72.2" r="6.5"/>
			<circle class="st1" cx="115.6" cy="72.2" r="6.5"/>
			<circle class="st2" cx="40.9" cy="66.9" r="2.1"/>
			<circle class="st2" cx="18.1" cy="66.9" r="2.1"/>
			<circle class="st2" cx="28.6" cy="66.9" r="2.1"/>
			<circle class="st2" cx="40.9" cy="77.1" r="2.1"/>
			<circle class="st2" cx="18.1" cy="77.1" r="2.1"/>
			<circle class="st2" cx="28.6" cy="77.1" r="2.1"/>
		</g>
	</g>
	<g>
		<path class="st0" d="M128.9,55.5H9.3c-2.9,0-5.2-2.3-5.2-5.2V27.7c0-2.9,2.3-5.2,5.2-5.2h119.6c2.9,0,5.2,2.3,5.2,5.2v22.6
			C134.1,53.2,131.8,55.5,128.9,55.5z"/>
		<g>
			<circle class="st1" cx="92" cy="39.3" r="6.5"/>
			<circle class="st1" cx="115.6" cy="39.3" r="6.5"/>
			<circle class="st2" cx="40.9" cy="33.9" r="2.1"/>
			<circle class="st2" cx="18.1" cy="33.9" r="2.1"/>
			<circle class="st2" cx="28.6" cy="33.9" r="2.1"/>
			<circle class="st2" cx="40.9" cy="44.1" r="2.1"/>
			<circle class="st2" cx="18.1" cy="44.1" r="2.1"/>
			<circle class="st2" cx="28.6" cy="44.1" r="2.1"/>
		</g>
	</g>
	<g>
		<circle class="st0" cx="69.1" cy="110.9" r="7.2"/>
		<path class="st3" d="M118.1,112H75.9v-2.6h42.2c0.7,0,1.3,0.6,1.3,1.3l0,0C119.4,111.4,118.8,112,118.1,112z"/>
		<path class="st3" d="M20,112h42.5v-2.6H20c-0.7,0-1.3,0.6-1.3,1.3l0,0C18.7,111.4,19.3,112,20,112z"/>
		<path class="st3" d="M67.8,88.9v14.1h2.6V88.9c0-0.2-0.2-0.3-0.3-0.3h-1.9C68,88.5,67.8,88.7,67.8,88.9z"/>
	</g>
</g>
</svg>
