<?xml version="1.0" encoding="utf-8"?>
<!-- Generator: Adobe Illustrator 21.0.0, SVG Export Plug-In . SVG Version: 6.00 Build 0)  -->
<svg version="1.1" id="Layer_1" xmlns="http://www.w3.org/2000/svg" xmlns:xlink="http://www.w3.org/1999/xlink" x="0px" y="0px"
	 viewBox="0 0 140 140" style="enable-background:new 0 0 140 140;" xml:space="preserve">
<style type="text/css">
	.st0{fill:#FFFFFF;stroke:#7B6079;stroke-width:2;stroke-miterlimit:10;}
	.st1{fill:none;stroke:#DE8971;stroke-width:2;stroke-miterlimit:10;}
	.st2{fill:#A7D0CD;}
</style>
<path class="st0" d="M121.2,134.7h-102c-2.9,0-5.3-2.4-5.3-5.3V10.3C14,7.4,16.3,5,19.2,5h102c2.9,0,5.3,2.4,5.3,5.3v119.2
	C126.5,132.4,124.1,134.7,121.2,134.7z"/>
<path class="st0" d="M130.1,46.4H10.4c-2.8,0-5.2-2.3-5.2-5.2V18.6c0-2.8,2.3-5.2,5.2-5.2h119.7c2.8,0,5.2,2.3,5.2,5.2v22.7
	C135.3,44.1,133,46.4,130.1,46.4z"/>
<g>
	<ellipse class="st1" cx="93" cy="30.2" rx="6.5" ry="6.5"/>
	<ellipse class="st1" cx="116.5" cy="30.2" rx="6.5" ry="6.5"/>
	<ellipse class="st2" cx="42" cy="24.8" rx="2.1" ry="2.1"/>
	<ellipse class="st2" cx="19.3" cy="24.8" rx="2.1" ry="2.1"/>
	<ellipse class="st2" cx="29.7" cy="24.8" rx="2.1" ry="2.1"/>
	<ellipse class="st2" cx="42" cy="35" rx="2.1" ry="2.1"/>
	<ellipse class="st2" cx="19.3" cy="35" rx="2.1" ry="2.1"/>
	<ellipse class="st2" cx="29.7" cy="35" rx="2.1" ry="2.1"/>
</g>
<path class="st0" d="M130.1,86.7H10.4c-2.9,0-5.2-2.3-5.2-5.2V58.9c0-2.9,2.3-5.2,5.2-5.2h119.6c2.9,0,5.2,2.3,5.2,5.2v22.6
	C135.3,84.4,132.9,86.7,130.1,86.7z"/>
<g>
	<circle class="st1" cx="93.2" cy="70.5" r="6.5"/>
	<circle class="st1" cx="116.8" cy="70.5" r="6.5"/>
	<circle class="st2" cx="42.1" cy="65.1" r="2.1"/>
	<circle class="st2" cx="19.3" cy="65.1" r="2.1"/>
	<circle class="st2" cx="29.8" cy="65.1" r="2.1"/>
	<circle class="st2" cx="42.1" cy="75.3" r="2.1"/>
	<circle class="st2" cx="19.3" cy="75.3" r="2.1"/>
	<circle class="st2" cx="29.8" cy="75.3" r="2.1"/>
</g>
<path class="st0" d="M130,127H10.5c-2.9,0-5.2-2.3-5.2-5.2V99.2c0-2.9,2.3-5.2,5.2-5.2H130c2.9,0,5.2,2.3,5.2,5.2v22.5
	C135.3,124.6,132.9,127,130,127z"/>
<g>
	<circle class="st1" cx="93.2" cy="110.7" r="6.5"/>
	<circle class="st1" cx="116.8" cy="110.7" r="6.5"/>
	<circle class="st2" cx="42.1" cy="105.4" r="2.1"/>
	<circle class="st2" cx="19.3" cy="105.4" r="2.1"/>
	<circle class="st2" cx="29.8" cy="105.4" r="2.1"/>
	<circle class="st2" cx="42.1" cy="115.6" r="2.1"/>
	<circle class="st2" cx="19.3" cy="115.6" r="2.1"/>
	<circle class="st2" cx="29.8" cy="115.6" r="2.1"/>
</g>
</svg>
