<svg width="165" height="56" viewBox="0 0 165 56" fill="none" xmlns="http://www.w3.org/2000/svg">
<g clip-path="url(#clip0_4_15)">
<path d="M29.5 50.499L44.5 31.499L59.5 50.499" stroke="#353060" stroke-width="3"/>
<path d="M57.5 50.499L72.5 31.499L87.5 50.499" stroke="#353060" stroke-width="3"/>
<path d="M85.5 50.499L100.5 31.499L115.5 50.499" stroke="#353060" stroke-width="3"/>
<path d="M113.5 50.499L128.5 31.499L143.5 50.499" stroke="#353060" stroke-width="3"/>
<path d="M141.5 50.499L156.5 31.499L171.5 50.499" stroke="#353060" stroke-width="3"/>
<path d="M1.5 50.499L16.5 31.499L31.5 50.499" stroke="#353060" stroke-width="3"/>
<path d="M29.5 21.498L44.5 2.49899L59.5 21.498" stroke="#353060" stroke-width="3"/>
<path d="M57.5 21.498L72.5 2.49899L87.5 21.498" stroke="#353060" stroke-width="3"/>
<path d="M85.5 21.498L100.5 2.49899L115.5 21.498" stroke="#353060" stroke-width="3"/>
<path d="M113.5 21.498L128.5 2.49899L143.5 21.498" stroke="#353060" stroke-width="3"/>
<path d="M141.5 21.498L156.5 2.49899L171.5 21.498" stroke="#353060" stroke-width="3"/>
<path d="M1.5 21.498L16.5 2.49899L31.5 21.498" stroke="#353060" stroke-width="3"/>
</g>
<defs>
<clipPath id="clip0_4_15">
<rect width="164.5" height="55.5" fill="white"/>
</clipPath>
</defs>
</svg>
